<svg width="261" height="260" viewBox="0 0 261 260" fill="none" xmlns="http://www.w3.org/2000/svg">
<g filter="url(#filter0_d_2_22)">
<path d="M148.799 157.97H111.261C105.041 157.97 100 152.936 100 146.725V109.244C100 103.034 105.041 98 111.261 98H148.799C155.019 98 160.06 103.034 160.06 109.244V146.725C160.06 152.936 155.019 157.97 148.799 157.97Z" fill="#ED3F4E" fill-opacity="0.1" shape-rendering="crispEdges"/>
</g>
<path d="M129.985 130.234C132.055 130.234 133.733 128.556 133.733 126.486C133.733 124.416 132.055 122.737 129.985 122.737C127.915 122.737 126.237 124.416 126.237 126.486C126.237 128.556 127.915 130.234 129.985 130.234Z" stroke="#ED3F4E" stroke-width="1.5" stroke-miterlimit="10" stroke-linecap="round" stroke-linejoin="round"/>
<path d="M139.73 122.737V130.234" stroke="#ED3F4E" stroke-width="1.5" stroke-miterlimit="10" stroke-linecap="round" stroke-linejoin="round"/>
<path d="M125.487 135.481C125.487 136.606 125.172 137.67 124.618 138.57C123.583 140.309 121.679 141.478 119.49 141.478C117.301 141.478 115.397 140.309 114.363 138.57C113.808 137.67 113.493 136.606 113.493 135.481C113.493 132.168 116.177 129.484 119.49 129.484C122.804 129.484 125.487 132.168 125.487 135.481Z" stroke="#ED3F4E" stroke-width="1.5" stroke-miterlimit="10" stroke-linecap="round" stroke-linejoin="round"/>
<path d="M121.727 135.45H117.259" stroke="#ED3F4E" stroke-width="1.5" stroke-miterlimit="10" stroke-linecap="round" stroke-linejoin="round"/>
<path d="M119.49 133.261V137.744" stroke="#ED3F4E" stroke-width="1.5" stroke-miterlimit="10" stroke-linecap="round" stroke-linejoin="round"/>
<path d="M114.992 131.433V121.988C114.992 116.741 117.991 114.492 122.489 114.492H137.481C141.979 114.492 144.977 116.741 144.977 121.988V130.983C144.977 136.231 141.979 138.48 137.481 138.48H124.737" stroke="#ED3F4E" stroke-width="1.5" stroke-miterlimit="10" stroke-linecap="round" stroke-linejoin="round"/>
<defs>
<filter id="filter0_d_2_22" x="0" y="0" width="260.06" height="259.97" filterUnits="userSpaceOnUse" color-interpolation-filters="sRGB">
<feFlood flood-opacity="0" result="BackgroundImageFix"/>
<feColorMatrix in="SourceAlpha" type="matrix" values="0 0 0 0 0 0 0 0 0 0 0 0 0 0 0 0 0 0 127 0" result="hardAlpha"/>
<feOffset dy="2"/>
<feGaussianBlur stdDeviation="50"/>
<feComposite in2="hardAlpha" operator="out"/>
<feColorMatrix type="matrix" values="0 0 0 0 0 0 0 0 0 0 0 0 0 0 0 0 0 0 0.1 0"/>
<feBlend mode="normal" in2="BackgroundImageFix" result="effect1_dropShadow_2_22"/>
<feBlend mode="normal" in="SourceGraphic" in2="effect1_dropShadow_2_22" result="shape"/>
</filter>
</defs>
</svg>
