<svg width="261" height="260" viewBox="0 0 261 260" fill="none" xmlns="http://www.w3.org/2000/svg">
<g filter="url(#filter0_d_5_2)">
<path d="M148.799 157.97H111.261C105.041 157.97 100 152.936 100 146.725V109.244C100 103.034 105.041 98 111.261 98H148.799C155.019 98 160.06 103.034 160.06 109.244V146.725C160.06 152.936 155.019 157.97 148.799 157.97Z" fill="#0061FF" fill-opacity="0.1" shape-rendering="crispEdges"/>
</g>
<path d="M141 120.875V134.625C141 140.125 139.625 141.5 134.125 141.5H125.875C120.375 141.5 119 140.125 119 134.625V120.875C119 115.375 120.375 114 125.875 114H134.125C139.625 114 141 115.375 141 120.875Z" stroke="#0061FF" stroke-width="1.5" stroke-linecap="round" stroke-linejoin="round"/>
<path d="M132.75 118.812H127.25" stroke="#0061FF" stroke-width="1.5" stroke-linecap="round" stroke-linejoin="round"/>
<path d="M130 137.513C131.177 137.513 132.131 136.558 132.131 135.381C132.131 134.204 131.177 133.25 130 133.25C128.823 133.25 127.869 134.204 127.869 135.381C127.869 136.558 128.823 137.513 130 137.513Z" stroke="#0061FF" stroke-width="1.5" stroke-linecap="round" stroke-linejoin="round"/>
<defs>
<filter id="filter0_d_5_2" x="0" y="0" width="260.06" height="259.97" filterUnits="userSpaceOnUse" color-interpolation-filters="sRGB">
<feFlood flood-opacity="0" result="BackgroundImageFix"/>
<feColorMatrix in="SourceAlpha" type="matrix" values="0 0 0 0 0 0 0 0 0 0 0 0 0 0 0 0 0 0 127 0" result="hardAlpha"/>
<feOffset dy="2"/>
<feGaussianBlur stdDeviation="50"/>
<feComposite in2="hardAlpha" operator="out"/>
<feColorMatrix type="matrix" values="0 0 0 0 0 0 0 0 0 0 0 0 0 0 0 0 0 0 0.1 0"/>
<feBlend mode="normal" in2="BackgroundImageFix" result="effect1_dropShadow_5_2"/>
<feBlend mode="normal" in="SourceGraphic" in2="effect1_dropShadow_5_2" result="shape"/>
</filter>
</defs>
</svg>
