<svg width="68" height="41" viewBox="0 0 68 41" fill="none" xmlns="http://www.w3.org/2000/svg">
<path d="M19.1044 15.019C19.1044 15.8434 19.1935 16.5118 19.3495 17.002C19.5277 17.4922 19.7505 18.0269 20.0624 18.6062C20.1738 18.7844 20.2184 18.9627 20.2184 19.1186C20.2184 19.3414 20.0847 19.5642 19.7951 19.787L18.3914 20.7228C18.1909 20.8565 17.9904 20.9233 17.8121 20.9233C17.5893 20.9233 17.3665 20.8119 17.1437 20.6114C16.8318 20.2772 16.5644 19.9207 16.3416 19.5642C16.1188 19.1855 15.896 18.7621 15.6509 18.2497C13.9131 20.2995 11.7296 21.3244 9.10053 21.3244C7.22899 21.3244 5.73621 20.7896 4.64447 19.7202C3.55274 18.6507 2.99573 17.2248 2.99573 15.4424C2.99573 13.5485 3.66414 12.0112 5.02324 10.8526C6.38233 9.69405 8.18704 9.11476 10.4819 9.11476C11.2394 9.11476 12.0193 9.1816 12.8436 9.293C13.668 9.40441 14.5146 9.58265 15.4059 9.78317V8.15671C15.4059 6.4634 15.0494 5.28255 14.3587 4.59186C13.6457 3.90117 12.4426 3.56696 10.727 3.56696C9.94718 3.56696 9.14509 3.65609 8.32072 3.85661C7.49635 4.05713 6.69426 4.30221 5.91445 4.61414C5.55796 4.7701 5.2906 4.85922 5.13464 4.90378C4.97868 4.94834 4.86727 4.97062 4.77815 4.97062C4.46623 4.97062 4.31027 4.74782 4.31027 4.27993V3.1882C4.31027 2.83171 4.35483 2.56435 4.46623 2.40839C4.57763 2.25243 4.77815 2.09646 5.09008 1.9405C5.86989 1.53946 6.80566 1.20525 7.8974 0.937888C8.98913 0.648244 10.1477 0.514562 11.3731 0.514562C14.0245 0.514562 15.9629 1.11613 17.2106 2.31927C18.436 3.5224 19.0598 5.34939 19.0598 7.80022V15.019H19.1044ZM10.0586 18.4057C10.7938 18.4057 11.5514 18.272 12.3535 18.0046C13.1555 17.7372 13.8685 17.2471 14.4701 16.5787C14.8266 16.1553 15.0939 15.6875 15.2276 15.1527C15.3613 14.618 15.4504 13.9719 15.4504 13.2143V12.2786C14.8043 12.1226 14.1136 11.9889 13.4006 11.8998C12.6877 11.8107 11.997 11.7661 11.3063 11.7661C9.8135 11.7661 8.72177 12.0558 7.98652 12.6573C7.25127 13.2589 6.89478 14.1056 6.89478 15.2196C6.89478 16.2667 7.16215 17.0466 7.71915 17.5813C8.25388 18.1383 9.03369 18.4057 10.0586 18.4057ZM27.9497 20.8119C27.5486 20.8119 27.2813 20.7451 27.103 20.5891C26.9248 20.4554 26.7688 20.1435 26.6351 19.7202L21.3993 2.49751C21.2656 2.0519 21.1987 1.76226 21.1987 1.6063C21.1987 1.24981 21.377 1.04929 21.7335 1.04929H23.9169C24.3403 1.04929 24.6299 1.11613 24.7859 1.27209C24.9641 1.40577 25.0978 1.7177 25.2315 2.14102L28.9746 16.8906L32.4503 2.14102C32.5617 1.69542 32.6954 1.40577 32.8736 1.27209C33.0519 1.13841 33.3638 1.04929 33.7648 1.04929H35.5473C35.9706 1.04929 36.2602 1.11613 36.4385 1.27209C36.6167 1.40577 36.7727 1.7177 36.8618 2.14102L40.3821 17.0688L44.2366 2.14102C44.3703 1.69542 44.5262 1.40577 44.6822 1.27209C44.8604 1.13841 45.1501 1.04929 45.5511 1.04929H47.6232C47.9797 1.04929 48.1802 1.22753 48.1802 1.6063C48.1802 1.7177 48.1579 1.8291 48.1356 1.96278C48.1133 2.09646 48.0688 2.27471 47.9797 2.51979L42.6101 19.7425C42.4764 20.1881 42.3205 20.4777 42.1422 20.6114C41.964 20.7451 41.6743 20.8342 41.2956 20.8342H39.3795C38.9561 20.8342 38.6665 20.7674 38.4883 20.6114C38.31 20.4554 38.1541 20.1658 38.0649 19.7202L34.6115 5.34939L31.1803 19.6979C31.0689 20.1435 30.9352 20.4332 30.757 20.5891C30.5787 20.7451 30.2668 20.8119 29.8658 20.8119H27.9497ZM56.5799 21.4135C55.4213 21.4135 54.2627 21.2798 53.1487 21.0124C52.0347 20.7451 51.1658 20.4554 50.5865 20.1212C50.23 19.9207 49.9849 19.6979 49.8958 19.4974C49.8067 19.2969 49.7621 19.0741 49.7621 18.8735V17.7372C49.7621 17.2694 49.9403 17.0466 50.2745 17.0466C50.4082 17.0466 50.5419 17.0688 50.6756 17.1134C50.8093 17.158 51.0098 17.2471 51.2326 17.3362C51.9901 17.6704 52.8145 17.9378 53.6834 18.116C54.5746 18.2943 55.4436 18.3834 56.3348 18.3834C57.7384 18.3834 58.8302 18.1383 59.5877 17.6481C60.3452 17.158 60.7463 16.445 60.7463 15.5315C60.7463 14.9076 60.5458 14.3952 60.1447 13.9719C59.7437 13.5485 58.9861 13.1698 57.8944 12.8133L54.6638 11.8107C53.0373 11.2982 51.8342 10.5407 51.0989 9.53809C50.3637 8.55775 49.9849 7.46602 49.9849 6.30744C49.9849 5.37167 50.1854 4.5473 50.5865 3.83433C50.9875 3.12136 51.5222 2.49751 52.1906 2.00734C52.8591 1.4949 53.6166 1.11613 54.5078 0.848766C55.399 0.581403 56.3348 0.470001 57.3151 0.470001C57.8053 0.470001 58.3177 0.492282 58.8079 0.559122C59.3203 0.625963 59.7882 0.715085 60.2561 0.804206C60.7017 0.915607 61.125 1.02701 61.5261 1.16069C61.9271 1.29437 62.2391 1.42805 62.4619 1.56174C62.7738 1.73998 62.9966 1.91822 63.1303 2.11874C63.264 2.29699 63.3308 2.54207 63.3308 2.85399V3.90117C63.3308 4.36906 63.1526 4.61414 62.8184 4.61414C62.6401 4.61414 62.3505 4.52502 61.9717 4.34678C60.7017 3.76749 59.2758 3.47784 57.6939 3.47784C56.4239 3.47784 55.4213 3.67837 54.7306 4.10169C54.0399 4.52502 53.6834 5.17115 53.6834 6.08464C53.6834 6.70849 53.9062 7.24322 54.3518 7.66654C54.7974 8.08987 55.6218 8.51319 56.8027 8.89196L59.9665 9.89457C61.5707 10.407 62.7292 11.12 63.4199 12.0335C64.1106 12.947 64.4448 13.9942 64.4448 15.1527C64.4448 16.1108 64.2443 16.9797 63.8655 17.7372C63.4645 18.4948 62.9298 19.1632 62.2391 19.6979C61.5484 20.2549 60.724 20.656 59.7659 20.9456C58.7633 21.2575 57.7162 21.4135 56.5799 21.4135Z" fill="#D1D1D1"/>
<path fill-rule="evenodd" clip-rule="evenodd" d="M60.7912 32.2416C53.461 37.6558 42.811 40.5299 33.6538 40.5299C20.8203 40.5299 9.25686 35.7842 0.522974 27.897C-0.167716 27.2731 0.456133 26.4265 1.2805 26.9167C10.7274 32.3976 22.38 35.7174 34.4336 35.7174C42.5659 35.7174 51.5003 34.0241 59.7218 30.5483C60.9472 29.9913 61.9944 31.3504 60.7912 32.2416Z" fill="#D1D1D1"/>
<path fill-rule="evenodd" clip-rule="evenodd" d="M63.8432 28.766C62.9075 27.5628 57.6493 28.1867 55.2653 28.4763C54.5523 28.5654 54.4409 27.9416 55.0871 27.4737C59.2758 24.5327 66.1604 25.3793 66.9625 26.3597C67.7646 27.3623 66.7397 34.2469 62.8183 37.5444C62.2168 38.0568 61.6375 37.7895 61.9048 37.1211C62.7961 34.9153 64.779 29.9468 63.8432 28.766Z" fill="#D1D1D1"/>
</svg>
