<svg width="98" height="49" viewBox="0 0 98 49" fill="none" xmlns="http://www.w3.org/2000/svg">
<path d="M15.3158 12.2851L15.6652 10.3195H7.18739V10.3224C6.29791 10.3224 5.45211 11.0332 5.27739 11.9187L2.00538 30.4747H2.00945C1.84266 31.3721 2.43036 32.1028 3.33175 32.1068H12.5839L12.9294 30.1451H4.97967L6.44889 21.8142H12.9095L13.247 19.8843H6.78642L8.12858 12.2841L15.3158 12.2851Z" fill="#D1D1D1"/>
<path d="M19.4934 32.4294C15.7568 32.4294 13.5927 29.074 14.5615 23.5624C15.5503 17.9555 18.8779 14.7272 22.678 14.7272C24.7667 14.7272 25.7912 15.3943 26.2479 15.8668L25.2988 17.483C24.858 17.1018 24.1751 16.661 22.9083 16.661C19.8031 16.661 18.1036 19.4764 17.4007 23.4671C16.678 27.5531 17.639 30.3724 20.3948 30.3724C21.5662 30.3724 22.4279 29.9913 23.1387 29.5505L23.5278 31.2897C22.7574 31.8933 21.3954 32.4294 19.4934 32.4294Z" fill="#D1D1D1"/>
<path d="M34.058 16.5021C30.7979 16.5021 29.5193 20.1434 28.9077 23.5941C28.3042 27.0448 28.3915 30.4995 31.5881 30.4995C34.8522 30.4995 36.0672 27.0131 36.6668 23.5941C37.2744 20.1752 37.3181 16.5021 34.058 16.5021ZM31.2506 32.4294C26.5927 32.4294 25.2426 28.5975 26.1241 23.5941C27.0216 18.4955 29.7456 14.7272 34.3399 14.7272C39.0256 14.7272 40.3558 18.4955 39.4544 23.5941C38.5729 28.5975 35.8727 32.4294 31.2506 32.4294Z" fill="#D1D1D1"/>
<path d="M65.3008 22.4228C60.9011 22.9588 58.1731 23.8761 57.5655 27.3307C57.1287 29.8006 58.4669 30.8132 61.0043 30.8132C62.0764 30.8132 63.1605 30.6265 63.9229 30.2454L65.3008 22.4228ZM60.496 32.4294C56.0645 32.4294 54.3451 30.4995 54.8931 27.3943C55.6913 22.8635 60.1664 21.5372 65.5549 20.9972L65.7376 19.9528C66.2022 17.3241 64.7528 16.5657 62.5649 16.5657C60.9209 16.5657 59.2929 17.1653 58.2604 17.6418L57.8832 15.9939C58.9593 15.4538 60.9884 14.7272 63.3312 14.7272C66.5 14.7272 69.0493 16.0892 68.3107 20.2665L66.3769 31.2262C64.9514 31.9568 62.8706 32.4294 60.496 32.4294Z" fill="#D1D1D1"/>
<path d="M78.1314 32.1117L80.2915 19.8576C80.5735 18.2732 80.2122 16.5339 77.3015 16.5339C75.7171 16.5339 74.915 16.7524 73.9659 17.1335L71.3213 32.1117H68.5377L71.3888 15.9304C73.0407 15.2037 75.1175 14.7272 77.8375 14.7272C82.5907 14.7272 83.5199 17.3559 83.091 19.794L80.9189 32.1117H78.1314Z" fill="#D1D1D1"/>
<path d="M95.1191 36.0349H1.02893L1.11624 35.475H95.1984L95.1191 36.0349Z" fill="#D1D1D1"/>
<path d="M51.6373 23.3718C50.8749 27.6802 48.9649 30.6266 45.4506 30.6266C44.5612 30.6266 43.6955 30.5312 43.1158 30.2136L45.4228 17.1335C46.2925 16.6928 47.0588 16.4704 48.3256 16.4704C51.5539 16.4704 52.2964 19.6392 51.6373 23.3718ZM49.3103 14.8225C47.6346 14.8225 46.622 15.168 45.6889 15.6127L47.1581 7.2897L44.0886 9.06471L40.1813 31.2262C41.0787 31.8933 42.7544 32.4294 45.0694 32.4294C50.1363 32.4294 53.4758 28.7563 54.4407 23.2765C55.35 18.1143 53.2375 14.8225 49.3103 14.8225Z" fill="#D1D1D1"/>
<path d="M97.8507 15.0449H94.94L87.4628 22.9588H87.3993L89.3054 12.1739C91.1995 1.49224 79.672 -0.76324 67.6362 1.07925C59.4562 2.33405 52.2292 5.59415 52.2292 5.59415C52.2292 5.59415 61.664 2.29434 69.9671 1.82179C80.4503 1.22618 88.666 2.81452 86.2676 13.9211L83.0591 32.1157H85.7832L87.3358 23.3083H87.3993L92.3708 32.1157H95.5396L89.9843 23.0224L97.8507 15.0449Z" fill="#D1D1D1"/>
<path d="M2.56926 41.618L1.37403 48.3924H0.377335L1.57257 41.618H0.0914307L0.210554 40.947H4.16953L4.05041 41.618H2.56926Z" fill="#D1D1D1"/>
<path d="M7.22685 48.3923L7.95351 44.2586C8.06074 43.6551 7.8979 43.111 6.96874 43.111C6.53591 43.111 6.17456 43.1865 5.78144 43.4009L4.89991 48.3923H3.9469L5.44789 39.8986H6.39693L5.87674 42.8649C6.40487 42.6147 6.84961 42.5075 7.27847 42.5075C8.76358 42.5075 9.05742 43.4009 8.91446 44.2229L8.17986 48.3923H7.22685Z" fill="#D1D1D1"/>
<path d="M12.3851 43.0674C11.5393 43.0674 10.7927 43.7504 10.5346 45.3308L13.4016 44.9059C13.6319 43.5836 13.215 43.0674 12.3851 43.0674ZM10.479 45.839C10.352 47.1574 10.8563 47.8086 11.9046 47.8086C12.5638 47.8086 13.0681 47.6458 13.4016 47.4711L13.5406 48.0985C13.1475 48.3129 12.4962 48.4996 11.706 48.4996C10.1812 48.4996 9.27983 47.5346 9.64515 45.4579C9.99856 43.4764 11.1501 42.4519 12.524 42.4519C13.9218 42.4519 14.6048 43.3612 14.2395 45.3069L10.479 45.839Z" fill="#D1D1D1"/>
<path d="M21.4506 41.4354C21.0495 41.4354 20.7438 41.5109 20.581 41.5742L20.033 44.6914L20.3506 44.7231C21.8953 44.8781 22.5902 44.1592 22.7848 43.0792C22.9754 41.9991 22.5862 41.4352 21.4506 41.4352V41.4354ZM20.2553 45.3306L19.9258 45.2989L19.3778 48.3923H18.4049L19.6637 41.2486C20.1203 41.0103 20.8073 40.8357 21.5975 40.8357C23.3526 40.8357 23.9761 41.7807 23.7458 43.0872C23.5115 44.4094 22.4155 45.5491 20.2553 45.3307" fill="#D1D1D1"/>
<path d="M27.2521 45.0806C25.7511 45.2673 24.8179 45.577 24.6115 46.7563C24.4605 47.5981 24.9212 47.9476 25.7868 47.9476C26.1522 47.9476 26.5215 47.8801 26.7835 47.7531L27.2521 45.0806ZM25.6121 48.4996C24.0992 48.4996 23.5115 47.8364 23.6981 46.7762C23.9721 45.2315 25.5009 44.7788 27.3394 44.5922L27.403 44.2348C27.5618 43.3374 27.0655 43.0793 26.3189 43.0793C25.759 43.0793 25.2031 43.2818 24.8497 43.4446L24.7187 42.8807C25.088 42.698 25.7829 42.4519 26.581 42.4519C27.6651 42.4519 28.5347 42.9165 28.2806 44.346L27.6214 48.0866C27.133 48.3407 26.4261 48.4996 25.6121 48.4996" fill="#D1D1D1"/>
<path d="M32.1448 48.3923L32.8834 44.2031C32.9786 43.663 32.8557 43.0674 31.8589 43.0674C31.3189 43.0674 31.0449 43.1429 30.7193 43.274L29.8179 48.3924H28.8649L29.8417 42.865C30.4056 42.6149 31.1124 42.452 32.0455 42.452C33.6696 42.452 33.9873 43.3494 33.8404 44.1833L33.0978 48.3924L32.1448 48.3923Z" fill="#D1D1D1"/>
<path d="M41.4482 42.7418C41.3688 42.1581 41.3926 41.8444 41.3926 41.8444H41.3687C41.3687 41.8444 41.2734 42.1581 40.9835 42.7418L39.5976 45.569H41.8174L41.4482 42.7418ZM42.1828 48.3924L41.8731 46.1607H39.3198L38.204 48.3924H37.2946L41.1265 40.947H42.016L43.2113 48.3924H42.1828Z" fill="#D1D1D1"/>
<path d="M46.245 43.1508L45.3238 48.3924H44.3668L45.292 43.1508H44.617L44.7242 42.5591H45.3953L45.5422 41.7371C45.7447 40.5896 46.5667 39.843 47.8334 39.8986L47.7301 40.5022C47.1504 40.5339 46.658 40.8079 46.5111 41.6299L46.3483 42.5591H47.3648L47.2616 43.1508H46.245Z" fill="#D1D1D1"/>
<path d="M50.5967 43.1865C50.144 43.0436 49.596 43.0871 49.2505 43.2937L48.3491 48.3923H47.3961L48.369 42.8728C48.9964 42.5829 49.5722 42.4281 50.9501 42.4598L50.5967 43.1865Z" fill="#D1D1D1"/>
<path d="M52.6504 41.4354C52.3367 41.4354 52.1263 41.1971 52.1779 40.9152C52.2295 40.6213 52.5194 40.3831 52.8331 40.3831C53.1388 40.3831 53.3453 40.6214 53.2937 40.9152C53.242 41.197 52.9522 41.4354 52.6504 41.4354ZM50.9469 48.3924L51.9754 42.5591H52.9284L51.8999 48.3924H50.9469Z" fill="#D1D1D1"/>
<path d="M55.3423 48.4996C54.0637 48.4996 53.3251 47.3519 53.6586 45.4697C53.9922 43.5518 55.1318 42.4519 56.4303 42.4519C57.1451 42.4519 57.4945 42.6781 57.6494 42.841L57.3238 43.389C57.1768 43.2619 56.9426 43.1109 56.5097 43.1109C55.4455 43.1109 54.8658 44.0759 54.6236 45.4379C54.3813 46.8317 54.7069 47.7966 55.648 47.7966C56.0491 47.7966 56.3429 47.6655 56.5891 47.5185L56.7202 48.1102C56.4542 48.3128 55.9896 48.4993 55.3423 48.4993" fill="#D1D1D1"/>
<path d="M61.2434 45.0806C59.7424 45.2673 58.8093 45.577 58.6028 46.7563C58.4519 47.5981 58.9086 47.9476 59.7742 47.9476C60.1435 47.9476 60.5168 47.8801 60.7749 47.7531L61.2434 45.0806ZM59.6035 48.4996C58.0905 48.4996 57.4989 47.8364 57.6895 46.7762C57.9595 45.2315 59.4923 44.7788 61.3308 44.5922L61.3943 44.2348C61.5532 43.3374 61.0568 43.0793 60.3103 43.0793C59.7464 43.0793 59.1905 43.2818 58.8411 43.4446L58.71 42.8807C59.0793 42.698 59.7703 42.4519 60.5724 42.4519C61.6564 42.4519 62.526 42.9165 62.2759 44.346L61.6127 48.0866C61.1243 48.3407 60.4175 48.4996 59.6035 48.4996" fill="#D1D1D1"/>
<path d="M66.139 48.3923L66.8736 44.2031C66.9688 43.663 66.8459 43.0674 65.8531 43.0674C65.3091 43.0674 65.0351 43.1429 64.7094 43.274L63.8081 48.3924H62.859L63.8319 42.865C64.3958 42.6149 65.1065 42.452 66.0357 42.452C67.6598 42.452 67.9775 43.3494 67.8306 44.1833L67.088 48.3924L66.139 48.3923Z" fill="#D1D1D1"/>
<path d="M75.0697 41.4115C74.6765 41.4115 74.3748 41.4672 74.0571 41.5743L73.5885 44.2229H74.073C75.6097 44.2229 76.2173 43.7504 76.384 42.7775C76.5508 41.8642 76.0862 41.4115 75.0697 41.4115V41.4115ZM74.0015 44.7232H73.5012L72.981 47.6895C73.2391 47.8085 73.5409 47.8603 73.9975 47.8603C74.9704 47.8603 75.8003 47.4712 75.9909 46.3871C76.1895 45.2316 75.6097 44.7233 74.0015 44.7233V44.7232ZM73.9261 48.4997C73.0843 48.4997 72.3973 48.3487 71.9684 48.0867L73.1716 41.2488C73.6243 41.0105 74.3669 40.8359 75.1809 40.8359C76.8169 40.8359 77.5515 41.6181 77.3609 42.6982C77.1782 43.7624 76.3007 44.3024 75.6097 44.4335L75.606 44.4537C76.2732 44.5848 77.1984 45.2438 76.9998 46.3795C76.7298 47.8726 75.4631 48.5 73.9264 48.5" fill="#D1D1D1"/>
<path d="M81.3439 45.0806C79.843 45.2673 78.9098 45.577 78.6993 46.7563C78.5524 47.5981 79.0091 47.9476 79.8747 47.9476C80.244 47.9476 80.6093 47.8801 80.8754 47.7531L81.3439 45.0806ZM79.704 48.4996C78.1871 48.4996 77.5994 47.8364 77.786 46.7762C78.064 45.2315 79.5888 44.7788 81.4313 44.5922L81.4909 44.2348C81.6497 43.3374 81.1573 43.0793 80.4108 43.0793C79.8469 43.0793 79.291 43.2818 78.9376 43.4446L78.8105 42.8807C79.1798 42.698 79.8708 42.4519 80.6689 42.4519C81.753 42.4519 82.6266 42.9165 82.3724 44.346L81.7133 48.0866C81.2248 48.3407 80.514 48.4996 79.704 48.4996" fill="#D1D1D1"/>
<path d="M86.3548 48.3923L87.0934 44.2031C87.1848 43.663 87.0657 43.0674 86.0689 43.0674C85.5249 43.0674 85.2548 43.1429 84.9252 43.274L84.0278 48.3924H83.0748L84.0517 42.865C84.6155 42.6149 85.3223 42.452 86.2555 42.452C87.8756 42.452 88.1933 43.3494 88.0503 44.1833L87.3038 48.3924L86.3548 48.3923Z" fill="#D1D1D1"/>
<path d="M91.8383 48.3923L90.1428 45.3863H90.1151L89.587 48.3923H88.6578L90.1549 39.8986H91.084L90.139 45.2672H90.1589L92.7201 42.5591H93.7088L91.0245 45.2871L92.9226 48.3923H91.8383Z" fill="#D1D1D1"/>
</svg>
