<svg width="179" height="49" viewBox="0 0 179 49" fill="none" xmlns="http://www.w3.org/2000/svg">
<path fill-rule="evenodd" clip-rule="evenodd" d="M58.7315 25.5949L59.3365 22.1506C59.3365 22.1506 54.6778 20.6376 50.8862 23.4435V37.2221H54.9126V26.0276C56.5171 24.7347 58.7315 25.5949 58.7315 25.5949Z" fill="#D1D1D1"/>
<mask id="mask0_2178_3335" style="mask-type:alpha" maskUnits="userSpaceOnUse" x="50" y="21" width="10" height="17">
<path d="M50.8862 23.4433C52.7105 22.0935 54.7356 21.7431 56.3459 21.7434C58.0824 21.7434 59.3367 22.1506 59.3367 22.1506L58.7315 25.5949C58.7315 25.5949 56.5171 24.7347 54.9126 26.0274V37.2219H50.8862V23.4433Z" fill="white"/>
</mask>
<g mask="url(#mask0_2178_3335)">
<path fill-rule="evenodd" clip-rule="evenodd" d="M-194.213 79.9268L372.805 79.9268V-723.349H-194.213L-194.213 79.9268Z" fill="#D1D1D1"/>
</g>
<mask id="mask1_2178_3335" style="mask-type:alpha" maskUnits="userSpaceOnUse" x="50" y="21" width="10" height="17">
<path d="M50.8862 23.4433C52.7105 22.0935 54.7354 21.7434 56.3459 21.7434C58.0824 21.7434 59.3367 22.1506 59.3367 22.1506L58.7315 25.5949C58.7315 25.5949 56.5171 24.7347 54.9126 26.0274V37.2219H50.8862V23.4433Z" fill="white"/>
</mask>
<g mask="url(#mask1_2178_3335)">
<path fill-rule="evenodd" clip-rule="evenodd" d="M44.136 43.9723H66.0869V14.9931H44.136V43.9723Z" fill="#D1D1D1"/>
</g>
<path fill-rule="evenodd" clip-rule="evenodd" d="M24.0194 18.2223L28.0439 17.4641V21.9453H32.0264V25.529H28.0439V30.8733C28.0439 31.7837 28.1912 32.5064 28.4922 33.0409C28.7898 33.5836 29.3866 33.8525 30.2828 33.8525C30.7211 33.8525 31.1612 33.8104 31.6255 33.7213C32.0766 33.6306 32.4973 33.5141 32.8758 33.3617L33.4453 36.7184C32.9581 36.9274 32.4197 37.1089 31.8261 37.2626C31.2306 37.4149 30.4995 37.4943 29.6356 37.4943C28.5374 37.4943 27.6299 37.3342 26.9082 37.0166C26.1902 36.699 25.6129 36.2534 25.1825 35.6847C24.7521 35.121 24.4495 34.4293 24.2797 33.6193C24.1067 32.8109 24.0194 31.918 24.0194 30.9332V18.2223Z" fill="#D1D1D1"/>
<mask id="mask2_2178_3335" style="mask-type:alpha" maskUnits="userSpaceOnUse" x="24" y="17" width="10" height="21">
<path d="M24.0194 18.2223L28.0439 17.4641V21.9453H32.0264V25.529H28.0439V30.8733C28.0439 31.784 28.1912 32.5064 28.4919 33.0409C28.7895 33.5838 29.3863 33.8525 30.2826 33.8525C30.7208 33.8525 31.1607 33.8104 31.6252 33.7213C32.0764 33.6306 32.4973 33.5141 32.8758 33.3619L33.445 36.7184C32.9582 36.9277 32.4194 37.1091 31.8258 37.2629C31.2303 37.4151 30.4992 37.4943 29.6353 37.4943C28.5369 37.4943 27.6296 37.3342 26.9082 37.0166C26.1899 36.699 25.6123 36.2534 25.1822 35.685C24.7519 35.121 24.4495 34.4293 24.2797 33.6193C24.1064 32.8109 24.0194 31.9183 24.0194 30.9332V18.2223Z" fill="white"/>
</mask>
<g mask="url(#mask2_2178_3335)">
<path fill-rule="evenodd" clip-rule="evenodd" d="M-194.213 79.9268L372.805 79.9268V-723.349H-194.213L-194.213 79.9268Z" fill="#D1D1D1"/>
<path fill-rule="evenodd" clip-rule="evenodd" d="M17.2687 44.2447H40.1948V10.7138H17.2687L17.2687 44.2447Z" fill="#D1D1D1"/>
</g>
<path fill-rule="evenodd" clip-rule="evenodd" d="M65.2974 34.1364C66.0336 34.1364 66.5544 34.0551 66.8635 33.9029C67.1706 33.7491 67.3194 33.4478 67.3194 33.0072C67.3194 32.6588 67.1254 32.356 66.7273 32.0983C66.3296 31.836 65.731 31.5444 64.9191 31.2121C64.2897 30.961 63.7171 30.702 63.201 30.4347C62.6915 30.1626 62.2548 29.845 61.8941 29.4674C61.5347 29.0917 61.2566 28.6411 61.056 28.1164C60.8554 27.6011 60.7602 26.9775 60.7602 26.2419C60.7602 24.8177 61.2566 23.6885 62.2451 22.8606C63.2349 22.0362 64.5907 21.615 66.3214 21.615C67.1869 21.615 68.0151 21.6975 68.8077 21.8645C69.5988 22.0265 70.2314 22.2113 70.6954 22.3974L69.995 25.7508C69.526 25.5775 69.0165 25.4253 68.4681 25.2925C67.9196 25.1566 67.3018 25.0851 66.619 25.0851C65.359 25.0851 64.728 25.4642 64.728 26.2143C64.728 26.3875 64.7556 26.5416 64.8105 26.6759C64.8655 26.8121 64.9725 26.9417 65.131 27.0663C65.2974 27.1896 65.5143 27.3287 65.7956 27.4715C66.0754 27.6221 66.4313 27.7775 66.8635 27.9542C67.7417 28.3041 68.4712 28.6443 69.0472 28.9879C69.6246 29.3313 70.0775 29.6927 70.4125 30.0942C70.7456 30.4864 70.9819 30.9208 71.1144 31.4032C71.2472 31.8846 71.3166 32.4401 71.3166 33.0737C71.3166 34.5754 70.7892 35.7109 69.7394 36.4788C68.6847 37.2436 67.1932 37.629 65.2667 37.629C64.0081 37.629 62.9599 37.5173 62.1236 37.2825C61.2842 37.0541 60.705 36.8566 60.3816 36.7041L61.056 33.208C61.7372 33.4964 62.4457 33.7199 63.1608 33.8887C63.8854 34.0538 64.5907 34.1364 65.2974 34.1364Z" fill="#D1D1D1"/>
<mask id="mask3_2178_3335" style="mask-type:alpha" maskUnits="userSpaceOnUse" x="60" y="21" width="12" height="17">
<path d="M62.2451 22.8609C63.2352 22.0362 64.5907 21.615 66.3214 21.615C67.1872 21.615 68.0153 21.6975 68.808 21.8645C69.5988 22.0265 70.2314 22.211 70.6956 22.3974L69.9953 25.7508C69.526 25.5775 69.0167 25.4253 68.4681 25.2925C67.9199 25.1563 67.3018 25.0854 66.6193 25.0854C65.359 25.0854 64.7282 25.4639 64.7282 26.2143C64.7282 26.3875 64.7556 26.5416 64.8105 26.6759C64.8657 26.8121 64.9727 26.9417 65.1313 27.0663C65.2974 27.1896 65.5146 27.3287 65.7959 27.4715C66.0756 27.6218 66.4313 27.7777 66.8635 27.9542C67.7419 28.3041 68.4715 28.6443 69.0472 28.9879C69.6248 29.3313 70.0778 29.6925 70.4127 30.0942C70.7459 30.4864 70.9819 30.9205 71.1147 31.4032C71.2475 31.8846 71.3166 32.4401 71.3166 33.0737C71.3166 34.5754 70.7892 35.7111 69.7397 36.4788C68.6849 37.2436 67.1935 37.629 65.2669 37.629C64.0084 37.629 62.9602 37.5173 62.1239 37.2825C61.2842 37.0541 60.7053 36.8566 60.3816 36.7041L61.0562 33.208C61.7374 33.4967 62.4457 33.7199 63.1608 33.8887C63.8854 34.0536 64.5907 34.1364 65.2974 34.1364C66.0336 34.1364 66.5546 34.0554 66.8635 33.9029C67.1709 33.7491 67.3197 33.4478 67.3197 33.0072C67.3197 32.6588 67.1256 32.356 66.7276 32.0983C66.3296 31.836 65.7309 31.5444 64.9191 31.2121C64.2897 30.961 63.7174 30.702 63.201 30.4347C62.6918 30.1626 62.2548 29.845 61.8944 29.4674C61.535 29.0915 61.2568 28.6411 61.0562 28.1164C60.8556 27.6008 60.7602 26.9775 60.7602 26.2419C60.7602 24.818 61.2568 23.6888 62.2451 22.8609Z" fill="white"/>
</mask>
<g mask="url(#mask3_2178_3335)">
<path fill-rule="evenodd" clip-rule="evenodd" d="M-194.213 79.9268L372.805 79.9268V-723.349H-194.213L-194.213 79.9268Z" fill="#D1D1D1"/>
<path fill-rule="evenodd" clip-rule="evenodd" d="M53.6314 44.3795H78.0671V14.8648H53.6314V44.3795Z" fill="#D1D1D1"/>
</g>
<path fill-rule="evenodd" clip-rule="evenodd" d="M83.7209 28.4963C83.3602 29.9609 82.98 31.419 82.5741 32.8608C82.1695 34.3075 81.7391 35.7624 81.2945 37.2268H78.1612C77.836 36.4168 77.4819 35.4546 77.1033 34.3383C76.7213 33.2172 76.3317 32.0005 75.9223 30.6771C75.5177 29.3581 75.1039 27.9618 74.6799 26.4843C74.2545 25.0133 73.842 23.5261 73.4474 22.0209H77.6888C77.8295 22.7126 77.9896 23.4727 78.1626 24.2906C78.3342 25.1103 78.5154 25.9545 78.7046 26.8229C78.8939 27.6881 79.0961 28.5578 79.303 29.4359C79.5118 30.314 79.7255 31.1548 79.9419 31.9634C80.1767 31.1161 80.4064 30.2509 80.6312 29.3646C80.8528 28.4771 81.0713 27.6053 81.2798 26.7485C81.4854 25.893 81.6876 25.0619 81.8719 24.2617C82.0596 23.4627 82.2263 22.7126 82.3735 22.0209H85.2867C85.4355 22.7126 85.5922 23.4627 85.775 24.2617C85.9529 25.0619 86.1425 25.893 86.3431 26.7485C86.5371 27.6053 86.749 28.4771 86.9609 29.3646C87.1791 30.2509 87.4026 31.1161 87.6339 31.9634C87.8522 31.1548 88.069 30.314 88.2873 29.4359C88.5057 28.5578 88.7111 27.6881 88.8988 26.8229C89.0865 25.9545 89.2676 25.1103 89.4425 24.2906C89.6155 23.4727 89.7724 22.7126 89.9162 22.0209H94.1027C93.7049 23.5261 93.2956 25.0133 92.8702 26.4843C92.4414 27.9618 92.0321 29.3581 91.623 30.6771C91.2199 32.0005 90.8222 33.2172 90.4354 34.3383C90.0458 35.4546 89.6865 36.4168 89.3665 37.2268H86.2332C85.7799 35.7624 85.3401 34.3075 84.9066 32.8608C84.4746 31.419 84.0831 29.9609 83.7209 28.4963Z" fill="#D1D1D1"/>
<mask id="mask4_2178_3335" style="mask-type:alpha" maskUnits="userSpaceOnUse" x="73" y="22" width="22" height="16">
<path d="M89.9162 22.0209H94.1027C93.7049 23.5261 93.2956 25.0133 92.8699 26.484C92.4414 27.9618 92.0321 29.3583 91.6227 30.6771C91.2199 32.0005 90.8222 33.2172 90.4352 34.3383C90.0456 35.4546 89.6864 36.4165 89.3662 37.2268H86.2329C85.7799 35.7624 85.3401 34.3072 84.9066 32.8605C84.4746 31.419 84.0831 29.9609 83.7209 28.4963C83.3599 29.9609 82.9797 31.419 82.5741 32.8605C82.1695 34.3072 81.7391 35.7624 81.2943 37.2268H78.161C77.8358 36.4165 77.4816 35.4546 77.103 34.3383C76.7213 33.2172 76.3314 32.0005 75.9223 30.6771C75.5177 29.3583 75.1037 27.9618 74.6798 26.484C74.2545 25.0133 73.842 23.5261 73.4474 22.0209H77.6885C77.8295 22.7126 77.9896 23.4724 78.1626 24.2906C78.3342 25.1103 78.5151 25.9545 78.7046 26.8226C78.8937 27.6878 79.0961 28.5578 79.303 29.4359C79.5118 30.314 79.7255 31.1548 79.9419 31.9634C80.1764 31.1161 80.4062 30.2506 80.6309 29.3646C80.8526 28.4771 81.0713 27.6053 81.2798 26.7485C81.4851 25.8927 81.6873 25.0617 81.8719 24.2617C82.0596 23.4627 82.2263 22.7126 82.3732 22.0209H85.2867C85.4353 22.7126 85.5922 23.4627 85.775 24.2617C85.9529 25.0617 86.1425 25.8927 86.3428 26.7485C86.5371 27.6053 86.7487 28.4771 86.9609 29.3646C87.1791 30.2506 87.4026 31.1161 87.6337 31.9634C87.8522 31.1548 88.0688 30.314 88.2873 29.4359C88.5057 28.5578 88.7111 27.6878 88.8988 26.8226C89.0865 25.9545 89.2676 25.1103 89.4422 24.2906C89.6155 23.4724 89.7724 22.7126 89.9162 22.0209Z" fill="white"/>
</mask>
<g mask="url(#mask4_2178_3335)">
<path fill-rule="evenodd" clip-rule="evenodd" d="M-194.213 79.9266L372.805 79.9266V-723.349H-194.213L-194.213 79.9266Z" fill="#D1D1D1"/>
<path fill-rule="evenodd" clip-rule="evenodd" d="M66.6973 43.9772H100.853V15.2708L66.6973 15.2708V43.9772Z" fill="#D1D1D1"/>
</g>
<path fill-rule="evenodd" clip-rule="evenodd" d="M96.9478 37.2209H100.966V22.0183H96.9478V37.2209Z" fill="#D1D1D1"/>
<mask id="mask5_2178_3335" style="mask-type:alpha" maskUnits="userSpaceOnUse" x="96" y="22" width="5" height="16">
<path d="M96.9478 37.2211V22.0185H100.966V37.2211H96.9478Z" fill="white"/>
</mask>
<g mask="url(#mask5_2178_3335)">
<path fill-rule="evenodd" clip-rule="evenodd" d="M-194.213 79.9266L372.805 79.9266V-723.349H-194.213L-194.213 79.9266Z" fill="#D1D1D1"/>
<path fill-rule="evenodd" clip-rule="evenodd" d="M90.1971 43.9713H107.716V15.268H90.1971V43.9713Z" fill="#D1D1D1"/>
</g>
<path fill-rule="evenodd" clip-rule="evenodd" d="M104.162 18.2269L108.183 17.464V22.0259H112.163V25.603H108.183V30.9525C108.183 31.858 108.332 32.5873 108.628 33.1202C108.924 33.6597 109.524 33.9302 110.422 33.9302C110.857 33.9302 111.304 33.8913 111.76 33.8022C112.221 33.7146 112.638 33.59 113.019 33.4393L113.583 36.793C113.096 37.0064 112.554 37.1881 111.964 37.3435C111.367 37.4957 110.644 37.5735 109.777 37.5735C108.677 37.5735 107.769 37.415 107.05 37.094C106.328 36.7814 105.752 36.3392 105.322 35.7655C104.892 35.2019 104.591 34.5068 104.418 33.7017C104.243 32.8901 104.162 31.9926 104.162 31.0122V18.2269Z" fill="#D1D1D1"/>
<mask id="mask6_2178_3335" style="mask-type:alpha" maskUnits="userSpaceOnUse" x="104" y="17" width="10" height="21">
<path d="M104.162 18.2272L108.183 17.4642V22.0261H112.163V25.6032H108.183V30.9528C108.183 31.8582 108.332 32.5873 108.628 33.1204C108.924 33.6599 109.524 33.9302 110.422 33.9302C110.857 33.9302 111.304 33.8915 111.76 33.8024C112.221 33.7146 112.638 33.5903 113.018 33.4396L113.583 36.7929C113.096 37.0067 112.554 37.1883 111.964 37.3437C111.367 37.496 110.644 37.5738 109.777 37.5738C108.677 37.5738 107.769 37.4152 107.05 37.0942C106.328 36.7814 105.752 36.3394 105.322 35.766C104.892 35.2021 104.591 34.5073 104.418 33.702C104.243 32.8904 104.162 31.9926 104.162 31.0127V18.2272Z" fill="white"/>
</mask>
<g mask="url(#mask6_2178_3335)">
<path fill-rule="evenodd" clip-rule="evenodd" d="M-194.213 79.9268L372.805 79.9268V-723.349H-194.213L-194.213 79.9268Z" fill="#D1D1D1"/>
<path fill-rule="evenodd" clip-rule="evenodd" d="M97.412 44.3242H120.334V10.7139H97.412V44.3242Z" fill="#D1D1D1"/>
</g>
<path fill-rule="evenodd" clip-rule="evenodd" d="M115.005 29.6274C115.005 28.5271 115.172 27.4905 115.505 26.5185C115.838 25.5431 116.318 24.6976 116.948 23.9733C117.578 23.2493 118.342 22.6788 119.244 22.2529C120.142 21.8333 121.168 21.6161 122.32 21.6161C123.075 21.6161 123.769 21.6924 124.4 21.8349C125.031 21.9823 125.646 22.1882 126.236 22.4553L125.401 25.8949C125.021 25.7424 124.609 25.6096 124.156 25.4898C123.706 25.3762 123.2 25.3165 122.643 25.3165C121.456 25.3165 120.568 25.7132 119.987 26.5038C119.396 27.2962 119.109 28.3346 119.109 29.6274C119.109 30.9929 119.382 32.054 119.935 32.8059C120.479 33.5559 121.44 33.9335 122.807 33.9335C123.293 33.9335 123.813 33.883 124.374 33.7875C124.931 33.6903 125.443 33.5381 125.916 33.3243L126.479 36.8527C126.009 37.0649 125.427 37.2432 124.725 37.4001C124.02 37.5529 123.248 37.632 122.404 37.632C121.108 37.632 119.989 37.4214 119.055 37.0081C118.121 36.5951 117.349 36.0312 116.747 35.3184C116.14 34.6041 115.704 33.7618 115.424 32.7896C115.144 31.816 115.005 30.76 115.005 29.6274Z" fill="#D1D1D1"/>
<mask id="mask7_2178_3335" style="mask-type:alpha" maskUnits="userSpaceOnUse" x="115" y="21" width="12" height="17">
<path d="M119.244 22.2531C120.142 21.8335 121.168 21.6164 122.32 21.6164C123.075 21.6164 123.769 21.6924 124.4 21.8348C125.031 21.9826 125.646 22.1882 126.236 22.4556L125.401 25.8949C125.021 25.7427 124.609 25.6099 124.156 25.49C123.706 25.3762 123.2 25.3165 122.643 25.3165C121.456 25.3165 120.568 25.7135 119.987 26.504C119.396 27.2962 119.109 28.3346 119.109 29.6276C119.109 30.9931 119.382 32.0542 119.935 32.8061C120.479 33.5562 121.44 33.9337 122.806 33.9337C123.293 33.9337 123.813 33.8832 124.374 33.7878C124.931 33.6905 125.443 33.5383 125.915 33.3243L126.479 36.853C126.01 37.0651 125.427 37.2431 124.725 37.4003C124.02 37.5529 123.248 37.6322 122.404 37.6322C121.108 37.6322 119.989 37.4214 119.055 37.0081C118.121 36.5951 117.349 36.0314 116.747 35.3189C116.141 34.6044 115.704 33.762 115.424 32.7898C115.144 31.8163 115.005 30.7599 115.005 29.6276C115.005 28.5273 115.172 27.4907 115.505 26.5187C115.838 25.5434 116.318 24.6976 116.948 23.9733C117.578 23.2493 118.342 22.679 119.244 22.2531Z" fill="white"/>
</mask>
<g mask="url(#mask7_2178_3335)">
<path fill-rule="evenodd" clip-rule="evenodd" d="M-194.213 79.9268L372.805 79.9268V-723.349H-194.213L-194.213 79.9268Z" fill="#D1D1D1"/>
<path fill-rule="evenodd" clip-rule="evenodd" d="M108.254 44.3827H133.229V14.8661H108.254V44.3827Z" fill="#D1D1D1"/>
</g>
<path fill-rule="evenodd" clip-rule="evenodd" d="M129.078 37.2214V18.2213L133.101 17.4649V22.082C133.37 21.9863 133.714 21.894 134.142 21.8067C134.562 21.7208 134.975 21.6753 135.369 21.6753C136.519 21.6753 137.475 21.8454 138.242 22.1809C139.006 22.5179 139.622 22.9959 140.078 23.6129C140.541 24.2271 140.861 24.9624 141.054 25.8066C141.24 26.6568 141.333 27.6033 141.333 28.6433V37.2214H137.312V29.1599C137.312 27.7731 137.145 26.7914 136.814 26.2099C136.48 25.6378 135.863 25.3481 134.965 25.3481C134.599 25.3481 134.266 25.3822 133.949 25.4469C133.635 25.515 133.352 25.5894 133.101 25.6657V37.2214H129.078Z" fill="#D1D1D1"/>
<mask id="mask8_2178_3335" style="mask-type:alpha" maskUnits="userSpaceOnUse" x="129" y="17" width="13" height="21">
<path d="M129.078 18.2213L133.101 17.4649V22.0823C133.37 21.9863 133.714 21.894 134.142 21.8067C134.562 21.7208 134.975 21.6756 135.369 21.6756C136.519 21.6756 137.476 21.8457 138.242 22.1809C139.006 22.5182 139.622 22.9959 140.078 23.6132C140.54 24.2271 140.861 24.9624 141.054 25.8068C141.24 26.6571 141.333 27.6033 141.333 28.6436V37.2214H137.312V29.1599C137.312 27.7734 137.145 26.7914 136.814 26.2099C136.48 25.6381 135.863 25.3481 134.965 25.3481C134.599 25.3481 134.266 25.3822 133.949 25.4472C133.635 25.515 133.352 25.5894 133.101 25.6657V37.2214H129.078V18.2213Z" fill="white"/>
</mask>
<g mask="url(#mask8_2178_3335)">
<path fill-rule="evenodd" clip-rule="evenodd" d="M-194.213 79.9266L372.805 79.9266V-723.349H-194.213L-194.213 79.9266Z" fill="#D1D1D1"/>
<path fill-rule="evenodd" clip-rule="evenodd" d="M122.328 43.9718H148.083V10.7145H122.328V43.9718Z" fill="#D1D1D1"/>
</g>
<path fill-rule="evenodd" clip-rule="evenodd" d="M7.79013 37.2263L7.79013 23.4494C7.79013 23.4494 9.81212 21.7208 14.2347 21.7208C18.2592 21.7208 20.4692 23.8739 20.4692 28.6125V37.2263H16.4494V28.6125C16.4494 25.5944 15.0387 25.3854 13.8335 25.3854C12.6284 25.3854 11.8212 26.0269 11.8212 26.0269V37.2263H7.79013Z" fill="#D1D1D1"/>
<mask id="mask9_2178_3335" style="mask-type:alpha" maskUnits="userSpaceOnUse" x="7" y="21" width="14" height="17">
<path d="M7.79013 23.4494C7.79013 23.4494 9.81212 21.7208 14.2347 21.7208C18.2592 21.7208 20.469 23.8737 20.469 28.6128V37.2263H16.4494V28.6128C16.4494 25.5941 15.0387 25.3854 13.8335 25.3854C12.6284 25.3854 11.8212 26.0271 11.8212 26.0271V37.2263H7.79013L7.79013 23.4494Z" fill="white"/>
</mask>
<g mask="url(#mask9_2178_3335)">
<path fill-rule="evenodd" clip-rule="evenodd" d="M-194.213 79.9268L372.805 79.9268V-723.349H-194.213L-194.213 79.9268Z" fill="#D1D1D1"/>
<path fill-rule="evenodd" clip-rule="evenodd" d="M1.03998 43.9767H27.219V14.9707H1.03998L1.03998 43.9767Z" fill="#D1D1D1"/>
</g>
<path fill-rule="evenodd" clip-rule="evenodd" d="M0.216248 37.2266L0.216248 18.2232L4.24081 17.4649L4.24081 37.2266H0.216248Z" fill="#D1D1D1"/>
<mask id="mask10_2178_3335" style="mask-type:alpha" maskUnits="userSpaceOnUse" x="0" y="17" width="5" height="21">
<path d="M0.216248 18.2234L4.24081 17.4649L4.24081 37.2266H0.216248L0.216248 18.2234Z" fill="white"/>
</mask>
<g mask="url(#mask10_2178_3335)">
<path fill-rule="evenodd" clip-rule="evenodd" d="M-194.213 79.9266L372.805 79.9266V-723.349H-194.213L-194.213 79.9266Z" fill="#D1D1D1"/>
<path fill-rule="evenodd" clip-rule="evenodd" d="M-6.53391 43.9767H10.9913L10.9913 10.7147H-6.53391L-6.53391 43.9767Z" fill="#D1D1D1"/>
</g>
<path fill-rule="evenodd" clip-rule="evenodd" d="M47.739 30.7162H38.6867C38.6867 30.7162 38.8889 33.9449 42.9087 33.9449C44.9212 33.9449 46.9335 33.3016 46.9335 33.3016L47.3363 36.7507C47.3363 36.7507 45.3256 37.6046 42.5109 37.6046C38.4846 37.6046 34.8643 35.4546 34.8643 29.4267C34.8643 24.6863 37.679 21.6763 41.7022 21.6763C47.739 21.6763 48.1434 28.1271 47.739 30.7162ZM41.5048 24.6863C38.8889 24.6863 38.6867 27.6994 38.6867 27.6994H44.316C44.316 27.6994 44.1189 24.6863 41.5048 24.6863Z" fill="#D1D1D1"/>
<mask id="mask11_2178_3335" style="mask-type:alpha" maskUnits="userSpaceOnUse" x="34" y="21" width="14" height="17">
<path d="M34.8648 29.4264C34.8648 24.686 37.6795 21.676 41.7025 21.676C47.7393 21.676 48.1436 28.1271 47.7393 30.7159H38.6872C38.6872 30.7159 38.8894 33.9447 42.9089 33.9447C44.9215 33.9447 46.9338 33.3014 46.9338 33.3014L47.3365 36.7504C47.3365 36.7504 45.3258 37.6046 42.5112 37.6046C38.4851 37.6046 34.8648 35.4546 34.8648 29.4264ZM41.505 24.686C38.8894 24.686 38.6872 27.6994 38.6872 27.6994H44.3165C44.3165 27.6994 44.1191 24.686 41.505 24.686Z" fill="white"/>
</mask>
<g mask="url(#mask11_2178_3335)">
<path fill-rule="evenodd" clip-rule="evenodd" d="M-194.213 79.9266L372.805 79.9266V-723.349H-194.213L-194.213 79.9266Z" fill="#D1D1D1"/>
<path fill-rule="evenodd" clip-rule="evenodd" d="M28.1143 44.3548H54.6018V14.9258H28.1143L28.1143 44.3548Z" fill="#D1D1D1"/>
</g>
<mask id="mask12_2178_3335" style="mask-type:alpha" maskUnits="userSpaceOnUse" x="146" y="14" width="28" height="35">
<path d="M146.664 17.4685C146.664 16.55 158.235 14.5677 165.994 14.5677C169.36 14.5677 172.008 14.9405 172.685 15.9342C176.179 20.5482 151.582 49.4953 149.532 48.6172C147.889 48.1781 162.646 29.7533 160.186 22.2931C158.958 18.3482 146.664 18.787 146.664 17.4685Z" fill="white"/>
</mask>
<g mask="url(#mask12_2178_3335)">
<path fill-rule="evenodd" clip-rule="evenodd" d="M139.914 55.3872H179.775V7.81754H139.914V55.3872Z" fill="#D1D1D1"/>
</g>
<mask id="mask13_2178_3335" style="mask-type:alpha" maskUnits="userSpaceOnUse" x="167" y="0" width="12" height="12">
<path d="M167.563 6.06398C167.563 2.91308 169.949 0.36317 172.89 0.36317C175.833 0.36317 178.216 2.91308 178.216 6.06398C178.216 9.21648 175.833 11.7664 172.89 11.7664C169.949 11.7664 167.563 9.21648 167.563 6.06398Z" fill="white"/>
</mask>
<g mask="url(#mask13_2178_3335)">
<path fill-rule="evenodd" clip-rule="evenodd" d="M160.813 18.5168H184.967V-6.38731H160.813V18.5168Z" fill="#D1D1D1"/>
</g>
</svg>
