<svg width="64" height="49" viewBox="0 0 64 49" fill="none" xmlns="http://www.w3.org/2000/svg">
<path fill-rule="evenodd" clip-rule="evenodd" d="M61.8424 48.3306V48.4563H61.9598C61.9818 48.4568 62.0037 48.4512 62.0229 48.4404C62.0384 48.4294 62.0474 48.4112 62.0463 48.3922C62.0472 48.3735 62.0384 48.3557 62.0229 48.3453C62.0039 48.3339 61.982 48.3283 61.9598 48.3292H61.8424V48.3306ZM61.961 48.2414C62.0114 48.2383 62.0612 48.2528 62.1021 48.2824C62.1354 48.3096 62.1537 48.351 62.1517 48.3939C62.1531 48.4306 62.1386 48.4663 62.1119 48.4917C62.0804 48.519 62.0408 48.5356 61.9992 48.5386L62.1566 48.7181H62.0353L61.8906 48.5398H61.8436V48.7181H61.7422V48.2418H61.9627L61.961 48.2414ZM61.9296 48.8824C61.9829 48.883 62.0355 48.8722 62.0843 48.851C62.1313 48.8307 62.1739 48.8018 62.2103 48.7656C62.2464 48.7295 62.2754 48.6868 62.2956 48.6397C62.3368 48.5398 62.3368 48.4278 62.2956 48.3279C62.2752 48.281 62.2462 48.2383 62.2103 48.202C62.1739 48.1658 62.1313 48.1369 62.0843 48.1166C62.0351 48.0966 61.9827 48.0864 61.9296 48.087C61.8757 48.0866 61.8222 48.0966 61.7722 48.1166C61.7242 48.1364 61.6803 48.1654 61.6434 48.202C61.5297 48.3185 61.4966 48.4927 61.5593 48.6429C61.5784 48.6901 61.607 48.733 61.6434 48.7689C61.6805 48.8052 61.7242 48.8342 61.7722 48.8542C61.822 48.8755 61.8755 48.8861 61.9296 48.8857V48.8824ZM61.9296 47.9725C62.068 47.9723 62.2009 48.0266 62.2997 48.1236C62.3473 48.1701 62.385 48.2257 62.4112 48.2871C62.4655 48.4141 62.4655 48.5582 62.4112 48.6854C62.3844 48.7462 62.3466 48.8018 62.2997 48.8487C62.2513 48.895 62.1952 48.9324 62.1337 48.9589C62.0692 48.9863 61.9998 49.0004 61.9296 49C61.8587 49.0004 61.7885 48.9865 61.723 48.9589C61.6609 48.933 61.6042 48.8957 61.5558 48.8487C61.5088 48.8001 61.4715 48.7428 61.446 48.6801C61.3917 48.5529 61.3917 48.4088 61.446 48.2816C61.4719 48.2204 61.5099 48.1648 61.5574 48.1183C61.6052 48.0705 61.6619 48.0331 61.7246 48.008C61.7899 47.9805 61.8604 47.9666 61.9312 47.9672L61.9296 47.9725ZM13.7156 46.1326C13.7156 45.2243 14.3109 44.478 15.2834 44.478C16.2129 44.478 16.8402 45.1921 16.8402 46.1326C16.8402 47.0733 16.2129 47.7874 15.2834 47.7874C14.3109 47.7874 13.7156 47.041 13.7156 46.1326ZM17.8997 46.1326V43.5475H16.7759V44.1773C16.4195 43.7118 15.8789 43.4201 15.1436 43.4201C13.6951 43.4201 12.5585 44.5561 12.5585 46.134C12.5585 47.7118 13.6945 48.8479 15.1436 48.8479C15.8785 48.8479 16.4195 48.5556 16.7759 48.0905V48.7181H17.8985V46.1326H17.8997ZM55.8714 46.1326C55.8714 45.2243 56.4664 44.478 57.4394 44.478C58.3699 44.478 58.9962 45.1921 58.9962 46.1326C58.9962 47.0733 58.3699 47.7874 57.4394 47.7874C56.4669 47.7874 55.8714 47.041 55.8714 46.1326ZM60.0567 46.1326V41.4725H58.9319V44.1773C58.5755 43.7118 58.0349 43.4201 57.2998 43.4201C55.8512 43.4201 54.7145 44.5561 54.7145 46.134C54.7145 47.7118 55.8505 48.8479 57.2998 48.8479C58.0349 48.8479 58.5755 48.5556 58.9319 48.0905V48.7181H60.0567V46.1326ZM31.8475 44.4247C32.5716 44.4247 33.0369 44.8789 33.1555 45.6783H30.4741C30.5941 44.932 31.0471 44.4247 31.8477 44.4247H31.8475ZM31.8702 43.4172C30.3556 43.4172 29.2961 44.5192 29.2961 46.1311C29.2961 47.7745 30.3981 48.845 31.9455 48.845C32.7237 48.845 33.4368 48.6507 34.0639 48.1207L33.5132 47.288C33.08 47.6343 32.5284 47.8286 32.0096 47.8286C31.2855 47.8286 30.6261 47.4932 30.4641 46.5627H34.3014C34.3124 46.4231 34.3236 46.282 34.3236 46.1307C34.3124 44.5196 33.3162 43.4168 31.8696 43.4168L31.8702 43.4172ZM45.4377 46.1307C45.4377 45.2223 46.0328 44.4761 47.0053 44.4761C47.935 44.4761 48.5621 45.1902 48.5621 46.1307C48.5621 47.0712 47.935 47.7855 47.0053 47.7855C46.0328 47.7855 45.4373 47.0392 45.4373 46.1307H45.4377ZM49.6215 46.1307V43.5475H48.4982V44.1773C48.1406 43.7118 47.6012 43.4201 46.8659 43.4201C45.4175 43.4201 44.2808 44.5561 44.2808 46.134C44.2808 47.7118 45.4169 48.8479 46.8659 48.8479C47.6012 48.8479 48.1406 48.5556 48.4982 48.0905V48.7181H49.6217V46.1326L49.6215 46.1307ZM39.0912 46.1307C39.0912 47.6986 40.1826 48.8446 41.8484 48.8446C42.6266 48.8446 43.1454 48.6715 43.7061 48.2285L43.1664 47.3201C42.7444 47.6232 42.3014 47.7855 41.8125 47.7855C40.9153 47.7745 40.2557 47.1257 40.2557 46.1307C40.2557 45.1357 40.9153 44.4873 41.8125 44.4761C42.3002 44.4761 42.7432 44.6382 43.1664 44.9414L43.7061 44.0331C43.1443 43.5899 42.6258 43.4168 41.8484 43.4168C40.1826 43.4168 39.0912 44.5627 39.0912 46.1307ZM53.5788 43.4168C52.9304 43.4168 52.5083 43.72 52.2163 44.1742V43.5475H51.1025V48.7152H52.2276V45.8184C52.2276 44.9632 52.595 44.488 53.3297 44.488C53.5702 44.4845 53.8091 44.5288 54.0324 44.618L54.3789 43.5589C54.1302 43.4609 53.8058 43.4178 53.5782 43.4178L53.5788 43.4168ZM23.4557 43.9584C22.9152 43.602 22.17 43.4178 21.3484 43.4178C20.039 43.4178 19.196 44.0454 19.196 45.0722C19.196 45.9147 19.8236 46.4347 20.9793 46.5968L21.51 46.6723C22.1263 46.7589 22.4173 46.9212 22.4173 47.2129C22.4173 47.6126 22.0079 47.8406 21.2393 47.8406C20.4609 47.8406 19.8991 47.5918 19.5204 47.2999L18.9923 48.1763C19.6086 48.6303 20.387 48.8469 21.2299 48.8469C22.7225 48.8469 23.5874 48.144 23.5874 47.16C23.5874 46.2516 22.9066 45.7765 21.782 45.6144L21.2522 45.5375C20.7657 45.4746 20.376 45.3766 20.376 45.0302C20.376 44.6525 20.7435 44.4251 21.36 44.4251C22.0196 44.4251 22.6581 44.6737 22.9711 44.8681L23.4576 43.9596L23.4557 43.9584ZM37.9562 43.4186C37.3078 43.4186 36.8856 43.722 36.5949 44.176V43.5475H35.4811V48.7152H36.6049V45.8184C36.6049 44.9632 36.9724 44.488 37.7071 44.488C37.9476 44.4845 38.1865 44.5288 38.4098 44.618L38.7562 43.5589C38.5076 43.4609 38.1832 43.4178 37.9556 43.4178L37.9562 43.4186ZM28.3663 43.5475H26.5285V41.9798H25.3925V43.5475H24.3444V44.5747H25.3925V46.9322C25.3925 48.1311 25.8579 48.8452 27.1873 48.8452C27.675 48.8452 28.2368 48.6942 28.5933 48.4457L28.2687 47.4834C27.9333 47.6777 27.5658 47.7757 27.2737 47.7757C26.7119 47.7757 26.5285 47.4293 26.5285 46.9108V44.5755H28.3663V43.5475ZM11.5647 48.7166V45.4734C11.5647 44.252 10.7863 43.4301 9.5316 43.4191C8.87181 43.408 8.19139 43.6134 7.71512 44.3385C7.35868 43.7655 6.79688 43.4191 6.00724 43.4191C5.45523 43.4191 4.91588 43.5812 4.4935 44.1864V43.5475H3.36887V48.7152H4.50228V45.8498C4.50228 44.9528 4.99978 44.4761 5.76819 44.4761C6.51434 44.4761 6.89201 44.9626 6.89201 45.8386V48.7146H8.02807V45.8492C8.02807 44.9522 8.5466 44.4755 9.29255 44.4755C10.0599 44.4755 10.4262 44.962 10.4262 45.838V48.714L11.5647 48.7166Z" fill="#D1D1D1"/>
<path fill-rule="evenodd" clip-rule="evenodd" d="M62.4838 31.5262V30.7704H62.287L62.0594 31.289L61.833 30.7704H61.6356V31.5262H61.7752V30.9568L61.9881 31.448H62.1331L62.3458 30.9556V31.5262H62.4844H62.4838ZM61.2352 31.5262V30.8999H61.4871V30.7723H60.8435V30.8999H61.0954V31.5262H61.2352Z" fill="#D1D1D1"/>
<path fill-rule="evenodd" clip-rule="evenodd" d="M40.1151 34.7672H23.0847V4.16113H40.1155L40.1151 34.7672Z" fill="#D1D1D1"/>
<path fill-rule="evenodd" clip-rule="evenodd" d="M24.1648 19.4649C24.1648 13.2564 27.0718 7.7259 31.5984 4.16173C28.1726 1.46048 23.9331 -0.00651093 19.5705 2.17238e-05C8.82145 2.17238e-05 0.108124 8.71458 0.108124 19.4649C0.108124 30.215 8.82145 38.9295 19.5705 38.9295C23.9331 38.936 28.1728 37.4691 31.5988 34.7678C27.0725 31.2042 24.1648 25.6735 24.1648 19.4649Z" fill="#EEEEEE"/>
<path fill-rule="evenodd" clip-rule="evenodd" d="M63.0914 19.4649C63.0914 30.215 54.3781 38.9295 43.6292 38.9295C39.266 38.9358 35.0259 37.4691 31.5994 34.7678C36.1273 31.2036 39.0343 25.6735 39.0343 19.4649C39.0343 13.256 36.1273 7.7259 31.5994 4.16173C35.0257 1.46048 39.2658 -0.00630811 43.6288 2.03928e-05C54.3779 2.03928e-05 63.0912 8.71458 63.0912 19.4649" fill="#EEEEEE"/>
</svg>
