<svg width="171" height="37" viewBox="0 0 171 37" fill="none" xmlns="http://www.w3.org/2000/svg">
<path fill-rule="evenodd" clip-rule="evenodd" d="M0 0.337097H17.2807L17.2793 17.6178H0V0.337097Z" fill="#D1D1D1"/>
<path fill-rule="evenodd" clip-rule="evenodd" d="M19.0451 0.337097H36.3258C36.3258 6.09733 36.3268 11.8576 36.3248 17.6178C30.5656 17.6168 24.8053 17.6178 19.0461 17.6178C19.0441 11.8576 19.0451 6.09733 19.0451 0.337097Z" fill="#D1D1D1"/>
<path fill-rule="evenodd" clip-rule="evenodd" d="M155.832 6.92156C157.425 5.88482 159.484 5.78796 161.279 6.28203C161.295 7.34927 161.281 8.41718 161.286 9.48476C160.433 9.10934 159.429 8.86432 158.532 9.23269C157.819 9.51526 157.396 10.246 157.285 10.9763C157.151 11.9031 157.238 12.8423 157.215 13.7745C159.038 13.7785 160.861 13.7755 162.683 13.7765C162.697 12.5933 162.669 11.4091 162.699 10.2259C163.938 9.87358 165.163 9.47772 166.397 9.10633C166.407 10.665 166.382 12.2249 166.41 13.7849C167.642 13.7671 168.875 13.7809 170.108 13.7765V16.8117C168.871 16.7604 167.633 16.7976 166.396 16.7936C166.401 18.5386 166.397 20.2832 166.398 22.0285C166.417 22.9949 166.346 23.9663 166.459 24.9296C166.527 25.4974 166.734 26.1266 167.266 26.4202C168.158 26.9193 169.289 26.7014 170.108 26.1534V29.218C169.04 29.6819 167.847 29.8234 166.692 29.7413C165.595 29.6601 164.46 29.2619 163.745 28.3898C162.919 27.405 162.706 26.0713 162.689 24.8237C162.68 22.1462 162.69 19.4684 162.685 16.7895C160.862 16.7882 159.038 16.7875 157.215 16.7905C157.213 20.9928 157.214 25.1954 157.214 29.398H153.477C153.477 25.1961 153.472 20.9962 153.479 16.7949C152.612 16.7781 151.745 16.7989 150.878 16.7812C150.881 15.784 150.885 14.7854 150.876 13.7869C151.739 13.7671 152.602 13.7755 153.467 13.7819C153.53 12.4552 153.328 11.0907 153.724 9.7985C154.059 8.63204 154.805 7.57954 155.832 6.92156ZM75.8137 7.13944C76.5672 7.02514 77.3827 7.28256 77.8821 7.87216C78.4677 8.51773 78.5756 9.54509 78.1416 10.2999C77.6619 11.1506 76.589 11.5462 75.6538 11.342C74.6834 11.1677 73.8749 10.2654 73.9182 9.25984C73.8904 8.20132 74.7756 7.25776 75.8137 7.1391V7.13944ZM47.1711 7.60233H52.6065C54.2982 11.8985 56.0023 16.1895 57.6964 20.4853C58.1291 21.56 58.534 22.6463 58.9875 23.7122C61.1639 18.3445 63.3714 12.9902 65.5311 7.61474C67.2741 7.58658 69.0174 7.60837 70.761 7.60434C70.757 14.8686 70.759 22.1325 70.7604 29.3967C69.5024 29.3937 68.2454 29.4074 66.9885 29.3893C67.0019 24.029 66.9875 18.6683 66.9948 13.3066C66.9969 13.0656 66.9885 12.8246 66.9717 12.5843C66.898 12.6962 66.833 12.8125 66.776 12.9332C64.6157 18.4199 62.4145 23.8915 60.2673 29.3839C59.3726 29.4165 58.477 29.3863 57.5811 29.4004C55.3531 23.9137 53.1525 18.4139 50.9356 12.9225C50.8773 12.8082 50.8153 12.6972 50.7476 12.5906C50.702 14.939 50.7405 17.2896 50.7281 19.6386C50.7288 22.8913 50.7261 26.144 50.7288 29.3967C49.5429 29.3997 48.3566 29.3967 47.1711 29.398C47.1701 22.1325 47.1691 14.8672 47.1711 7.60233ZM86.0993 13.7621C87.9026 13.2483 89.8481 13.269 91.6507 13.7785C92.0224 13.8824 92.3821 14.0266 92.7169 14.223C92.6958 15.4132 92.7169 16.6048 92.7052 17.7964C91.4999 16.8757 89.9714 16.2925 88.4396 16.4855C87.2228 16.5955 86.0628 17.2266 85.3354 18.2094C84.3999 19.4278 84.184 21.0458 84.3452 22.5364C84.4656 23.7028 84.9479 24.8686 85.8553 25.6419C86.7975 26.4792 88.1185 26.7758 89.3516 26.6826C90.5704 26.5425 91.7204 26.0263 92.7052 25.306C92.7156 26.4343 92.6998 27.5625 92.7136 28.6908C91.1855 29.6001 89.354 29.8344 87.605 29.749C85.8157 29.6541 84.0315 28.9763 82.7363 27.7184C81.3289 26.3619 80.565 24.4272 80.4745 22.4898C80.3833 20.4749 80.7932 18.3733 81.9527 16.691C82.924 15.2554 84.4438 14.2394 86.0993 13.7621ZM126.924 13.5245C128.652 13.2201 130.461 13.4433 132.097 14.0631C132.099 15.2091 132.097 16.3535 132.098 17.4985C130.955 16.7128 129.559 16.2901 128.172 16.339C127.474 16.3662 126.706 16.6622 126.387 17.3262C126.134 17.9831 126.31 18.8446 126.929 19.2381C127.989 19.947 129.253 20.248 130.351 20.8829C131.215 21.3689 132.054 22.0037 132.493 22.9195C133.315 24.634 132.967 26.8999 131.519 28.1786C130.138 29.4694 128.149 29.8264 126.319 29.758C125.019 29.6739 123.714 29.4175 122.519 28.8858C122.525 27.6812 122.512 26.4772 122.525 25.2732C123.53 26.0029 124.689 26.5248 125.916 26.7366C126.77 26.8754 127.7 26.8821 128.495 26.5C129.257 26.1212 129.394 25.0385 128.942 24.3762C128.518 23.8657 127.896 23.5848 127.31 23.3086C126.209 22.8136 125.052 22.3993 124.085 21.6575C123.405 21.1269 122.89 20.3797 122.689 19.5367C122.39 18.2945 122.483 16.8945 123.205 15.8088C124.03 14.5434 125.464 13.7849 126.924 13.5245ZM101.074 14.0165C102.105 13.3968 103.416 13.3448 104.542 13.7239C104.537 14.9705 104.542 16.2164 104.539 17.4629C103.802 16.986 102.883 16.7812 102.013 16.8696C100.952 16.99 100.111 17.8045 99.6758 18.739C99.2022 19.7278 99.113 20.8463 99.1429 21.928C99.1429 24.4178 99.1442 26.9079 99.1429 29.398H95.4585C95.4554 24.1939 95.4628 18.989 95.4554 13.7849C96.6852 13.7691 97.9154 13.7755 99.1452 13.7815C99.1402 14.6755 99.1452 15.5688 99.1422 16.4637C99.5417 15.4913 100.136 14.5468 101.074 14.0162V14.0165ZM74.2577 13.7815C75.4969 13.7765 76.7375 13.7645 77.9763 13.7879C77.9619 18.9914 77.9756 24.1949 77.9703 29.398H74.2597C74.2567 24.1929 74.2611 18.9877 74.2577 13.7819V13.7815ZM111.42 13.4933C113.214 13.265 115.106 13.3669 116.77 14.1244C118.215 14.7761 119.386 15.9811 120.035 17.4241C120.726 18.9592 120.895 20.6848 120.778 22.3507C120.662 23.9767 120.152 25.6064 119.135 26.8985C118.094 28.2708 116.525 29.2006 114.844 29.5462C113.408 29.8452 111.905 29.8438 110.468 29.5422C108.75 29.1744 107.159 28.1773 106.151 26.7262C104.968 25.0449 104.632 22.9071 104.782 20.8923C104.883 19.1828 105.415 17.4599 106.507 16.1192C107.703 14.6172 109.537 13.7309 111.42 13.4933ZM112.535 16.4597C111.641 16.5093 110.738 16.8117 110.076 17.4297C109.163 18.2573 108.745 19.4902 108.632 20.6888C108.508 22.0071 108.598 23.3968 109.2 24.5984C109.668 25.5316 110.529 26.2647 111.543 26.5311C112.539 26.7896 113.623 26.7678 114.589 26.3971C115.414 26.0756 116.068 25.3965 116.425 24.5934C116.964 23.4018 117.017 22.0621 116.951 20.7763C116.859 19.6008 116.525 18.3693 115.661 17.5203C114.854 16.7034 113.658 16.386 112.535 16.4597ZM141.208 13.4879C143.073 13.257 145.054 13.382 146.756 14.2418C148.24 14.9839 149.391 16.325 149.966 17.8752C150.415 19.0614 150.573 20.3422 150.547 21.6052C150.55 23.492 150.041 25.4287 148.856 26.9253C147.748 28.3743 146.052 29.3159 144.262 29.6115C142.511 29.8948 140.661 29.8214 138.998 29.1664C137.312 28.5034 135.911 27.1496 135.201 25.4827C134.461 23.7839 134.383 21.872 134.614 20.057C134.855 18.2412 135.677 16.4668 137.079 15.2597C138.227 14.2522 139.704 13.6813 141.208 13.4879ZM142.217 16.4627C141.183 16.5207 140.158 16.9662 139.49 17.7713C138.757 18.6341 138.442 19.7724 138.357 20.8819C138.269 22.0275 138.357 23.2141 138.8 24.285C139.169 25.184 139.869 25.9653 140.771 26.3475C141.608 26.7078 142.551 26.7718 143.445 26.6381C144.278 26.5154 145.086 26.1172 145.629 25.4632C146.167 24.8126 146.451 23.9924 146.595 23.1705C146.776 22.0671 146.778 20.9308 146.564 19.8327C146.374 18.8965 145.96 17.9667 145.211 17.346C144.4 16.633 143.273 16.3893 142.217 16.4627Z" fill="#D1D1D1"/>
<path fill-rule="evenodd" clip-rule="evenodd" d="M0 19.3812C5.76023 19.3832 11.5205 19.3806 17.2807 19.3832C17.2817 25.1435 17.2807 30.9027 17.2807 36.6629H0V19.3812Z" fill="#D1D1D1"/>
<path fill-rule="evenodd" clip-rule="evenodd" d="M19.0459 19.3832C24.8052 19.3812 30.5654 19.3822 36.3256 19.3822V36.6629H19.0449C19.0459 30.9027 19.0439 25.1424 19.0459 19.3832Z" fill="#D1D1D1"/>
</svg>
