<svg width="161" height="41" viewBox="0 0 161 41" fill="none" xmlns="http://www.w3.org/2000/svg">
<path d="M26.4473 28.0835C23.3293 29.1579 20.1692 29.9796 16.8405 30.0638C15.4711 30.0849 14.1228 29.9796 12.8588 29.4318C10.9838 28.6312 10.2043 27.1565 10.6677 25.1551C11.1734 22.9641 12.4585 21.2155 13.8911 19.5512C16.8616 16.0961 20.5062 13.4205 24.3616 11.0188C24.6776 10.8292 25.3096 10.6818 25.0357 10.1761C24.7619 9.67052 24.2984 10.134 23.9824 10.3236C21.6439 11.7773 19.2633 13.1677 17.009 14.7267C12.0371 18.1186 7.29695 21.7632 3.48374 26.5034C2.4725 27.7464 1.58767 29.0947 1.10311 30.6537C0.344685 33.0554 1.31379 34.6987 3.75761 35.2254C5.02166 35.4992 6.28571 35.5203 7.54976 35.3518C14.4177 34.488 20.6537 31.7914 26.8054 28.8208C27.0793 28.6944 27.5217 28.5891 27.311 28.1467C27.1214 27.7253 26.7422 27.9781 26.4473 28.0835Z" fill="#D1D1D1"/>
<path d="M50.4006 10.1761C49.8107 11.5876 48.947 12.8306 47.9779 14.0104C47.7883 14.2421 47.5776 14.495 47.8515 14.7688C48.1464 15.0638 48.3781 14.7688 48.5677 14.5792C49.7897 13.4205 51.0326 12.2829 52.1914 11.061C53.8135 9.35449 55.2883 7.52162 56.0888 5.28847C57.0369 2.63397 55.9203 0.843232 53.1394 0.400816C50.9905 0.0637363 48.8838 0.358683 46.777 0.801099C40.541 2.12835 34.7686 4.67751 29.1225 7.54269C28.6801 7.77443 27.711 7.8587 28.0691 8.55393C28.3641 9.14382 29.0171 8.44859 29.4385 8.23791C34.1576 6.02583 38.9821 4.27723 44.2489 3.96122C45.2391 3.91908 46.2293 3.96122 47.1984 4.17189C50.5692 4.84605 51.7068 7.016 50.4006 10.1761Z" fill="#D1D1D1"/>
<path d="M112.992 33.1397H110.212V40.6818H109.242V33.1397H106.483V32.2127H112.992V33.1397Z" fill="#D1D1D1"/>
<path d="M120.85 40.6818H119.86L117.985 35.4992L116.11 40.6818H115.12L112.739 34.2983H113.73L115.626 39.7127L117.48 34.2983H118.47L120.345 39.7127L122.22 34.2983H123.21L120.85 40.6818Z" fill="#D1D1D1"/>
<path d="M128.309 40.6818V39.7127C127.803 40.4079 127.023 40.745 125.97 40.745C125.317 40.745 124.79 40.5554 124.39 40.1972C123.99 39.8391 123.8 39.3545 123.8 38.8068C123.8 38.259 124.011 37.8166 124.432 37.4795C124.853 37.1424 125.443 36.995 126.181 36.9739H128.287V36.5947C128.287 36.1101 128.14 35.752 127.845 35.4992C127.55 35.2464 127.129 35.12 126.581 35.12C125.928 35.12 125.254 35.3728 124.558 35.8573L124.158 35.1621C124.601 34.8672 125.022 34.6354 125.422 34.509C125.801 34.3615 126.265 34.2983 126.771 34.2983C127.55 34.2983 128.161 34.488 128.582 34.8882C129.004 35.2674 129.214 35.8152 129.235 36.5104L129.257 40.7239H128.309V40.6818ZM126.16 39.9234C126.707 39.9234 127.171 39.797 127.55 39.5441C127.929 39.2913 128.182 38.9332 128.309 38.4908V37.7323H126.328C125.254 37.7323 124.706 38.0694 124.706 38.7646C124.706 39.1228 124.832 39.3967 125.106 39.6073C125.359 39.818 125.717 39.9234 126.16 39.9234Z" fill="#D1D1D1"/>
<path d="M138.252 40.6818H137.262L135.387 35.4992L133.512 40.6818H132.543L130.162 34.2983H131.152L133.049 39.7127L134.902 34.2983H135.893L137.768 39.7127L139.643 34.2983H140.633L138.252 40.6818Z" fill="#D1D1D1"/>
<path d="M144.235 34.2773C145.247 34.2773 146.005 34.5933 146.511 35.2253C147.016 35.8784 147.248 36.7422 147.206 37.8588H142.002C142.087 38.4908 142.339 38.9754 142.761 39.3335C143.182 39.6917 143.709 39.8813 144.32 39.8813C145.12 39.8813 145.794 39.6074 146.3 39.0807L146.827 39.6284C146.195 40.3447 145.331 40.7029 144.257 40.7029C143.309 40.7029 142.55 40.4079 141.96 39.797C141.37 39.2071 141.075 38.4276 141.075 37.4796C141.075 36.5315 141.37 35.752 141.96 35.1621C142.529 34.5723 143.309 34.2773 144.235 34.2773ZM142.002 37.1004H146.363C146.321 36.4894 146.132 36.0048 145.731 35.6467C145.352 35.2886 144.846 35.0989 144.214 35.0989C143.603 35.0989 143.098 35.2886 142.698 35.6467C142.318 36.0048 142.066 36.4894 142.002 37.1004Z" fill="#D1D1D1"/>
<path d="M153.547 35.0357L149.545 39.8812L153.632 39.9023V40.7239L148.386 40.7029V39.9866L152.389 35.141L148.491 35.12V34.2983L153.526 34.3194V35.0357H153.547Z" fill="#D1D1D1"/>
<path d="M159.278 40.6818V39.7127C158.773 40.4079 157.993 40.745 156.94 40.745C156.287 40.745 155.76 40.5554 155.36 40.1972C154.959 39.8391 154.77 39.3545 154.77 38.8068C154.77 38.259 154.98 37.8166 155.402 37.4795C155.823 37.1424 156.413 36.995 157.15 36.9739H159.257V36.5947C159.257 36.1101 159.11 35.752 158.815 35.4992C158.52 35.2464 158.098 35.12 157.551 35.12C156.898 35.12 156.223 35.3728 155.528 35.8573L155.128 35.1621C155.57 34.8672 155.992 34.6354 156.392 34.509C156.771 34.3615 157.235 34.2983 157.74 34.2983C158.52 34.2983 159.131 34.488 159.552 34.8882C159.973 35.2885 160.184 35.8152 160.205 36.5104L160.226 40.7239H159.278V40.6818ZM157.108 39.9234C157.656 39.9234 158.119 39.797 158.499 39.5441C158.878 39.2913 159.131 38.9332 159.257 38.4908V37.7323H157.277C156.202 37.7323 155.655 38.0694 155.655 38.7646C155.655 39.1228 155.781 39.3967 156.055 39.6073C156.308 39.818 156.666 39.9234 157.108 39.9234Z" fill="#D1D1D1"/>
<path d="M83.73 16.8124H88.2595V29.7267H83.73V28.0624C82.9084 29.4107 81.6022 30.0849 79.7904 30.0849C78.0418 30.0849 76.5882 29.4528 75.4716 28.1677C74.355 26.9037 73.7862 25.2604 73.7862 23.2801C73.7862 21.3419 74.355 19.7407 75.4927 18.4346C76.6303 17.1284 78.0629 16.4753 79.7694 16.4753C81.1598 16.4753 82.3185 16.9177 83.2244 17.8236L83.73 18.561V16.8124ZM78.421 23.3222C78.421 24.3334 78.6738 25.1551 79.1584 25.7871C79.6429 26.4402 80.296 26.7562 81.0966 26.7562C81.8761 26.7562 82.5081 26.4402 82.9927 25.7871C83.4772 25.134 83.73 24.3124 83.73 23.3222C83.73 22.3531 83.4772 21.5315 82.9505 20.8784C82.4239 20.2253 81.7918 19.8882 81.0123 19.8882C80.275 19.8882 79.664 20.2042 79.1584 20.8573C78.6738 21.5104 78.421 22.332 78.421 23.3222Z" fill="#D1D1D1"/>
<path d="M57.522 16.8124H62.0515V29.7267H57.522V28.0624C56.7004 29.4107 55.3942 30.0849 53.5824 30.0849C51.8338 30.0849 50.3802 29.4528 49.2636 28.1677C48.147 26.9037 47.5782 25.2604 47.5782 23.2801C47.5782 21.3419 48.147 19.7407 49.2846 18.4346C50.4223 17.1284 51.8549 16.4753 53.5613 16.4753C54.9518 16.4753 56.1105 16.9177 57.0164 17.8236L57.522 18.561V16.8124ZM52.2341 23.3222C52.2341 24.3334 52.4869 25.1551 52.9715 25.7871C53.456 26.4402 54.1091 26.7562 54.9097 26.7562C55.6892 26.7562 56.3212 26.4402 56.8057 25.7871C57.2903 25.134 57.5431 24.3124 57.5431 23.3222C57.5431 22.3531 57.2903 21.5315 56.7636 20.8784C56.2369 20.2253 55.6049 19.8882 54.8254 19.8882C54.088 19.8882 53.4771 20.2042 52.9715 20.8573C52.4658 21.5104 52.2341 22.332 52.2341 23.3222Z" fill="#D1D1D1"/>
<path d="M100.647 16.6017V20.752C99.3409 20.3517 98.3929 20.3517 98.3929 20.3517C96.4126 20.2042 95.6752 22.016 95.6752 22.016C95.5699 22.3531 95.5067 22.8377 95.5067 23.4276V29.7057H91.251V16.7913H95.5067V18.9823C95.7595 18.1818 96.244 17.5497 96.9182 17.1073C97.6134 16.6649 98.4772 16.4542 99.5516 16.4542C99.8044 16.4542 100.036 16.4542 100.226 16.4753L100.584 16.5174C100.626 16.5596 100.647 16.5806 100.647 16.6017Z" fill="#D1D1D1"/>
<path d="M129.698 16.4753C131.742 16.4753 133.427 17.1073 134.755 18.3924C136.082 19.6775 136.756 21.3208 136.756 23.3011C136.756 25.3025 136.082 26.9458 134.755 28.2099C133.427 29.495 131.742 30.127 129.698 30.127C127.634 30.127 125.948 29.495 124.6 28.2099C123.273 26.9247 122.599 25.2815 122.599 23.3011C122.599 21.2997 123.273 19.6565 124.6 18.3924C125.927 17.1284 127.634 16.4753 129.698 16.4753ZM126.981 23.3222C126.981 24.3756 127.234 25.2393 127.739 25.9346C128.245 26.6087 128.877 26.9669 129.635 26.9669C130.373 26.9669 131.005 26.6298 131.51 25.9346C132.016 25.2604 132.269 24.3756 132.269 23.3222C132.269 22.2899 132.016 21.4261 131.51 20.7098C131.005 20.0146 130.373 19.6565 129.635 19.6565C128.877 19.6565 128.245 19.9935 127.739 20.6888C127.234 21.3629 126.981 22.2478 126.981 23.3222Z" fill="#D1D1D1"/>
<path d="M106.862 16.7913H102.248V29.7267H106.862V16.7913Z" fill="#D1D1D1"/>
<path d="M106.862 10.3236H102.248V14.2632H106.862V10.3236Z" fill="#D1D1D1"/>
<path d="M119.692 25.766C119.06 26.3981 118.238 26.7351 117.269 26.7351C116.279 26.7351 115.478 26.4191 114.825 25.766C114.193 25.134 113.877 24.3124 113.877 23.3011C113.877 22.2899 114.193 21.4683 114.825 20.8362C115.457 20.2042 116.279 19.8671 117.269 19.8671C118.238 19.8671 119.06 20.1832 119.692 20.8362C119.86 21.0048 119.987 21.1733 120.113 21.3419L121.419 18.0553C120.092 17.002 118.47 16.4753 116.531 16.4753C114.383 16.4753 112.613 17.1073 111.222 18.3924C109.832 19.6775 109.137 21.3208 109.137 23.3011C109.137 25.2815 109.832 26.9458 111.222 28.2099C112.613 29.495 114.383 30.127 116.531 30.127C118.533 30.127 120.197 29.5582 121.546 28.4416L120.176 25.1129C120.029 25.3658 119.881 25.5764 119.692 25.766Z" fill="#D1D1D1"/>
<path d="M138.947 29.7267V16.9598H143.119L143.414 18.5188C143.414 18.5188 144.657 16.3489 147.48 16.4753C147.48 16.4753 149.966 16.4753 151.356 18.6663C152.452 17.3601 154.095 16.4753 155.78 16.4753C157.36 16.4753 158.372 16.8966 159.004 17.5497C159.699 18.2239 159.931 18.8138 159.994 19.2351C160.057 19.6565 160.141 20.3938 160.141 21.4893V29.7478H155.591V22.3952V21.2576C155.506 19.7618 153.969 19.825 153.969 19.825C152.978 19.8461 152.473 20.457 152.199 21.0259C152.009 21.4261 151.925 21.8896 151.925 22.332V22.7534V29.7689H151.44H147.374V22.4163V21.2787C147.29 19.7829 145.752 19.8461 145.752 19.8461C144.762 19.8671 144.256 20.4781 143.983 21.0469C143.793 21.4472 143.709 21.9107 143.709 22.3531V22.7745V29.7899H138.947V29.7267Z" fill="#D1D1D1"/>
<path d="M71.7628 14.3264C71.7628 14.3264 72.4581 14.3264 72.9426 14.6635V11.1452C72.9426 11.1452 71.4679 10.745 69.8036 10.745C67.5072 10.9135 66.3274 12.0933 65.7165 13.1677C65.2951 13.9051 65.1055 14.7689 65.1055 15.6115V29.7267H69.8036V20.2253H72.3106V16.7703H69.8036V15.9276C69.8246 15.9486 69.93 14.2843 71.7628 14.3264Z" fill="#D1D1D1"/>
<path d="M38.1396 22.7534C39.1508 23.0273 41.1944 23.6172 41.0258 24.9023C41.0258 24.9023 41.089 26.9248 36.4542 26.377C36.4542 26.377 33.1255 25.7661 31.9668 24.6074L30.5342 28.1467C30.5342 28.1467 34.2842 31.1593 40.773 29.7267C40.773 29.7267 46.1241 28.4627 45.6607 24.1017C45.6607 24.1017 45.9767 20.1621 40.0356 19.0666C39.7828 19.0245 39.53 18.9613 39.2772 18.8981L38.898 18.7927C38.6873 18.7295 38.4977 18.6874 38.287 18.6453C37.5076 18.4767 35.148 17.8658 35.3376 16.4332C35.3376 16.4332 35.2744 14.4107 39.5722 14.9585C39.5722 14.9585 42.648 15.5694 43.7435 16.7281L45.0708 13.1888C45.0708 13.1888 41.5946 10.1761 35.5483 11.6087C35.5483 11.6087 30.5764 12.8728 30.9977 17.2337C30.9977 17.2337 30.6817 21.1523 36.1171 22.2689C36.3488 22.311 36.6016 22.3742 36.8334 22.4163C37.2126 22.5217 37.7604 22.6481 38.1396 22.7534Z" fill="#D1D1D1"/>
</svg>
