<svg width="136" height="19" viewBox="0 0 136 19" fill="none" xmlns="http://www.w3.org/2000/svg">
<path d="M10.544 10.824V8.064H4.016V3.288H11.792V0.456H0.944V18H4.016V10.824H10.544ZM18.5191 18.312C21.6151 18.312 23.7751 16.752 24.2791 14.16H21.5671C21.2311 15.288 20.1751 15.912 18.5671 15.912C16.6231 15.912 15.5191 14.856 15.3031 12.768L24.2311 12.744V11.856C24.2311 8.16 21.9751 5.784 18.4231 5.784C14.9431 5.784 12.5191 8.352 12.5191 12.072C12.5191 15.744 14.9911 18.312 18.5191 18.312ZM18.4471 8.184C20.1991 8.184 21.3271 9.264 21.3271 10.896H15.3751C15.6631 9.12 16.7191 8.184 18.4471 8.184ZM29.9853 18.312C31.8333 18.312 33.4413 17.472 33.9453 16.248L34.1613 18H36.7293V10.8C36.7293 7.512 34.7613 5.784 31.5693 5.784C28.3533 5.784 26.2413 7.464 26.2413 10.032H28.7373C28.7373 8.784 29.6973 8.064 31.4253 8.064C32.9133 8.064 33.8733 8.712 33.8733 10.32V10.584L30.3213 10.848C27.5133 11.064 25.9293 12.432 25.9293 14.616C25.9293 16.848 27.4653 18.312 29.9853 18.312ZM30.9453 16.104C29.6253 16.104 28.9053 15.576 28.9053 14.496C28.9053 13.536 29.6013 12.936 31.4253 12.768L33.8973 12.576V13.2C33.8973 15.024 32.7453 16.104 30.9453 16.104ZM43.4737 18V8.592H45.7777V6.144H43.4737V2.448H40.5457V6.144H38.2657V8.592H40.5457V18H43.4737ZM55.6379 6.144V12.36C55.6379 14.616 54.7499 15.696 52.9019 15.696C51.2699 15.696 50.3819 14.784 50.3819 12.528V6.144H47.4539V13.56C47.4539 16.464 49.0619 18.312 51.7979 18.312C53.3819 18.312 54.9179 17.544 55.6379 16.416L55.8539 18H58.5659V6.144H55.6379ZM69.0301 6.096C68.5501 5.976 68.1421 5.928 67.7341 5.928C66.1501 5.928 65.0221 6.72 64.5181 7.896L64.3501 6.168H61.5901V18H64.5181V12.24C64.5181 9.936 65.8381 8.808 67.9501 8.808H69.0301V6.096ZM75.9176 18.312C79.0136 18.312 81.1736 16.752 81.6776 14.16H78.9656C78.6296 15.288 77.5736 15.912 75.9656 15.912C74.0216 15.912 72.9176 14.856 72.7016 12.768L81.6296 12.744V11.856C81.6296 8.16 79.3736 5.784 75.8216 5.784C72.3416 5.784 69.9176 8.352 69.9176 12.072C69.9176 15.744 72.3896 18.312 75.9176 18.312ZM75.8456 8.184C77.5976 8.184 78.7256 9.264 78.7256 10.896H72.7736C73.0616 9.12 74.1176 8.184 75.8456 8.184ZM88.8449 18.312C90.6449 18.312 92.1809 17.52 92.9009 16.152L93.0929 18H95.7809V0.144H92.8769V7.656C92.1329 6.48 90.6689 5.784 89.0129 5.784C85.4369 5.784 83.2769 8.424 83.2769 12.12C83.2769 15.792 85.4129 18.312 88.8449 18.312ZM89.4929 15.624C87.4529 15.624 86.2049 14.136 86.2049 12.024C86.2049 9.912 87.4529 8.4 89.4929 8.4C91.5329 8.4 92.8529 9.888 92.8529 12.024C92.8529 14.16 91.5329 15.624 89.4929 15.624ZM121.741 9.216C121.741 3.864 118.237 0.144 113.221 0.144C108.205 0.144 104.725 3.888 104.725 9.216C104.725 14.568 108.181 18.288 113.197 18.288C118.237 18.288 121.741 14.544 121.741 9.216ZM118.501 9.216C118.501 12.912 116.437 15.336 113.221 15.336C110.005 15.336 107.941 12.96 107.941 9.216C107.941 5.472 110.005 3.096 113.221 3.096C116.437 3.096 118.501 5.472 118.501 9.216ZM127.096 18V11.616C127.096 9.696 128.2 8.448 130 8.448C131.512 8.448 132.496 9.408 132.496 11.4V18H135.424V10.704C135.424 7.632 133.888 5.784 130.912 5.784C129.304 5.784 127.864 6.48 127.12 7.68L126.88 6.144H124.168V18H127.096Z" fill="black"/>
</svg>
