<svg width="56" height="36" viewBox="0 0 56 36" fill="none" xmlns="http://www.w3.org/2000/svg">
<path d="M53.043 0.990471L53.27 0.544967L53.043 0.990471C53.8897 1.4219 54.5781 2.11031 55.0095 2.95704C55.2401 3.40959 55.3679 3.95389 55.4335 4.75673C55.4996 5.5654 55.5 6.59162 55.5 8V29.6C55.5 30.7284 55.4996 31.5446 55.4472 32.1865C55.3952 32.8226 55.2946 33.2434 55.1185 33.589C54.783 34.2475 54.2475 34.783 53.589 35.1185C53.2434 35.2946 52.8226 35.3952 52.1865 35.4472C51.5446 35.4996 50.7284 35.5 49.6 35.5H6.4C5.27165 35.5 4.45545 35.4996 3.81352 35.4472C3.17744 35.3952 2.75662 35.2946 2.41103 35.1185C1.75247 34.783 1.21703 34.2475 0.881477 33.589C0.705391 33.2434 0.604807 32.8226 0.552836 32.1865C0.500389 31.5446 0.5 30.7284 0.5 29.6V8C0.5 6.59162 0.500389 5.5654 0.56646 4.75673C0.632055 3.95389 0.759887 3.40959 0.990471 2.95704C1.4219 2.11031 2.11031 1.4219 2.95704 0.990471C3.40959 0.759887 3.95389 0.632055 4.75673 0.56646C5.5654 0.500389 6.59162 0.5 8 0.5H48C49.4084 0.5 50.4346 0.500389 51.2433 0.56646C52.0461 0.632055 52.5904 0.759887 53.043 0.990471Z" fill="#73D0FA"/>
<path d="M53.043 0.990471L53.27 0.544967L53.043 0.990471C53.8897 1.4219 54.5781 2.11031 55.0095 2.95704C55.2401 3.40959 55.3679 3.95389 55.4335 4.75673C55.4996 5.5654 55.5 6.59162 55.5 8V29.6C55.5 30.7284 55.4996 31.5446 55.4472 32.1865C55.3952 32.8226 55.2946 33.2434 55.1185 33.589C54.783 34.2475 54.2475 34.783 53.589 35.1185C53.2434 35.2946 52.8226 35.3952 52.1865 35.4472C51.5446 35.4996 50.7284 35.5 49.6 35.5H6.4C5.27165 35.5 4.45545 35.4996 3.81352 35.4472C3.17744 35.3952 2.75662 35.2946 2.41103 35.1185C1.75247 34.783 1.21703 34.2475 0.881477 33.589C0.705391 33.2434 0.604807 32.8226 0.552836 32.1865C0.500389 31.5446 0.5 30.7284 0.5 29.6V8C0.5 6.59162 0.500389 5.5654 0.56646 4.75673C0.632055 3.95389 0.759887 3.40959 0.990471 2.95704C1.4219 2.11031 2.11031 1.4219 2.95704 0.990471C3.40959 0.759887 3.95389 0.632055 4.75673 0.56646C5.5654 0.500389 6.59162 0.5 8 0.5H48C49.4084 0.5 50.4346 0.500389 51.2433 0.56646C52.0461 0.632055 52.5904 0.759887 53.043 0.990471Z" fill="url(#paint0_radial_2053_310)" fill-opacity="0.55"/>
<path d="M53.043 0.990471L53.27 0.544967L53.043 0.990471C53.8897 1.4219 54.5781 2.11031 55.0095 2.95704C55.2401 3.40959 55.3679 3.95389 55.4335 4.75673C55.4996 5.5654 55.5 6.59162 55.5 8V29.6C55.5 30.7284 55.4996 31.5446 55.4472 32.1865C55.3952 32.8226 55.2946 33.2434 55.1185 33.589C54.783 34.2475 54.2475 34.783 53.589 35.1185C53.2434 35.2946 52.8226 35.3952 52.1865 35.4472C51.5446 35.4996 50.7284 35.5 49.6 35.5H6.4C5.27165 35.5 4.45545 35.4996 3.81352 35.4472C3.17744 35.3952 2.75662 35.2946 2.41103 35.1185C1.75247 34.783 1.21703 34.2475 0.881477 33.589C0.705391 33.2434 0.604807 32.8226 0.552836 32.1865C0.500389 31.5446 0.5 30.7284 0.5 29.6V8C0.5 6.59162 0.500389 5.5654 0.56646 4.75673C0.632055 3.95389 0.759887 3.40959 0.990471 2.95704C1.4219 2.11031 2.11031 1.4219 2.95704 0.990471C3.40959 0.759887 3.95389 0.632055 4.75673 0.56646C5.5654 0.500389 6.59162 0.5 8 0.5H48C49.4084 0.5 50.4346 0.500389 51.2433 0.56646C52.0461 0.632055 52.5904 0.759887 53.043 0.990471Z" stroke="url(#paint1_linear_2053_310)"/>
<defs>
<radialGradient id="paint0_radial_2053_310" cx="0" cy="0" r="1" gradientUnits="userSpaceOnUse" gradientTransform="translate(28 8.21739) rotate(90) scale(27.7826 43.2174)">
<stop stop-color="white" stop-opacity="0.278354"/>
<stop offset="1" stop-color="white" stop-opacity="0.01"/>
</radialGradient>
<linearGradient id="paint1_linear_2053_310" x1="0" y1="0" x2="0" y2="36" gradientUnits="userSpaceOnUse">
<stop stop-color="#E8F7FF" stop-opacity="0.25112"/>
<stop offset="0.999894" stop-color="#CCECFF" stop-opacity="0.01"/>
</linearGradient>
</defs>
</svg>
