<svg width="121" height="39" viewBox="0 0 121 39" fill="none" xmlns="http://www.w3.org/2000/svg">
<path fill-rule="evenodd" clip-rule="evenodd" d="M30.0656 38.0812H19.6581L11.8537 8.30712C11.4833 6.93751 10.6968 5.72669 9.5398 5.15602C6.65249 3.7219 3.47086 2.58056 0 2.00493V0.858626H16.7657C19.0796 0.858626 20.815 2.58056 21.1043 4.58039L25.1536 26.0575L35.5561 0.858626H45.6743L30.0656 38.0812ZM51.4592 38.0812H41.6301L49.7237 0.858626H59.5528L51.4592 38.0812ZM72.2691 11.1703C72.5584 9.16546 74.2938 8.01916 76.3185 8.01916C79.5001 7.73134 82.9659 8.30698 85.8583 9.73614L87.5937 1.72194C84.7013 0.575633 81.5197 0 78.6324 0C69.0926 0 62.1509 5.15588 62.1509 12.3116C62.1509 17.7553 67.0679 20.6136 70.5388 22.3355C74.2938 24.0525 75.74 25.1988 75.4508 26.9158C75.4508 29.4913 72.5584 30.6376 69.6711 30.6376C66.2002 30.6376 62.7293 29.7791 59.5528 28.345L57.8173 36.3641C61.2882 37.7933 65.0432 38.3689 68.5141 38.3689C79.2109 38.6518 85.8583 33.5008 85.8583 25.7695C85.8583 16.0334 72.2691 15.4627 72.2691 11.1703ZM120.257 38.0812L112.453 0.858626H104.07C102.335 0.858626 100.599 2.00493 100.021 3.7219L85.569 38.0812H95.6873L97.7069 32.6425H110.139L111.296 38.0812H120.257ZM105.516 10.8823L108.404 24.9108H100.31L105.516 10.8823Z" fill="#172B85"/>
</svg>
