<svg width="6" height="8" viewBox="0 0 6 8" fill="none" xmlns="http://www.w3.org/2000/svg">
<path d="M4.11972 7.55654C4.35156 7.79222 4.72757 7.79222 4.95949 7.55654C5.19133 7.32078 5.19133 6.93862 4.95949 6.70294L2.30036 3.99998L4.9594 1.29702C5.19124 1.06134 5.19124 0.679182 4.9594 0.443423C4.72748 0.207743 4.35156 0.207743 4.11964 0.443423L1.0494 3.56438C1.04644 3.56718 1.04356 3.57014 1.04068 3.57302C0.964604 3.65038 0.913484 3.7435 0.887324 3.84206C0.886684 3.84446 0.886045 3.84686 0.885405 3.84934C0.834925 4.04926 0.886603 4.27038 1.0406 4.42686C1.04444 4.43078 1.04828 4.43462 1.05212 4.4383L4.11972 7.55654Z" fill="#CEDADD"/>
</svg>
