<svg width="6" height="8" viewBox="0 0 6 8" fill="none" xmlns="http://www.w3.org/2000/svg">
<path d="M1.88032 7.55654C1.64848 7.79222 1.27248 7.79222 1.04064 7.55654C0.808719 7.32078 0.808719 6.93862 1.04064 6.70294L3.69968 3.99998L1.04064 1.29702C0.808799 1.06134 0.808799 0.679182 1.04064 0.443423C1.27256 0.207743 1.64856 0.207743 1.8804 0.443423L4.95064 3.56438C4.9536 3.56718 4.95648 3.57014 4.95936 3.57302C5.03544 3.65038 5.08656 3.7435 5.11272 3.84206C5.11336 3.84446 5.114 3.84686 5.11464 3.84934C5.1652 4.04926 5.11344 4.27038 4.95944 4.42686C4.95568 4.43078 4.95176 4.43462 4.94792 4.4383L1.88032 7.55654Z" fill="#093749"/>
</svg>
