<svg width="15" height="14" viewBox="0 0 15 14" fill="none" xmlns="http://www.w3.org/2000/svg">
<path d="M7.32107 3.41058C5.3027 3.41058 3.67467 5.01317 3.67467 7C3.67467 8.98683 5.3027 10.5894 7.32107 10.5894C9.33945 10.5894 10.9675 8.98683 10.9675 7C10.9675 5.01317 9.33945 3.41058 7.32107 3.41058ZM7.32107 9.33359C6.01675 9.33359 4.95044 8.28707 4.95044 7C4.95044 5.71293 6.01357 4.66641 7.32107 4.66641C8.62857 4.66641 9.69171 5.71293 9.69171 7C9.69171 8.28707 8.6254 9.33359 7.32107 9.33359ZM11.9671 3.26375C11.9671 3.72922 11.5863 4.10097 11.1166 4.10097C10.6438 4.10097 10.2661 3.7261 10.2661 3.26375C10.2661 2.80141 10.6469 2.42653 11.1166 2.42653C11.5863 2.42653 11.9671 2.80141 11.9671 3.26375ZM14.3822 4.11347C14.3283 2.99197 14.068 1.99855 13.2334 1.18007C12.4019 0.361598 11.3927 0.105433 10.2534 0.0492023C9.07922 -0.0164008 5.55976 -0.0164008 4.38555 0.0492023C3.24942 0.102309 2.24023 0.358474 1.40559 1.17695C0.570951 1.99543 0.313894 2.98884 0.25677 4.11034C0.190126 5.26621 0.190126 8.73067 0.25677 9.88653C0.310721 11.008 0.570951 12.0015 1.40559 12.8199C2.24023 13.6384 3.24625 13.8946 4.38555 13.9508C5.55976 14.0164 9.07922 14.0164 10.2534 13.9508C11.3927 13.8977 12.4019 13.6415 13.2334 12.8199C14.0648 12.0015 14.3251 11.008 14.3822 9.88653C14.4488 8.73067 14.4488 5.26933 14.3822 4.11347ZM12.8652 11.1267C12.6177 11.739 12.1385 12.2108 11.5133 12.4575C10.5771 12.8231 8.35565 12.7387 7.32107 12.7387C6.2865 12.7387 4.06185 12.8199 3.12883 12.4575C2.50681 12.2139 2.02761 11.7422 1.7769 11.1267C1.40559 10.2052 1.49128 8.01841 1.49128 7C1.49128 5.98159 1.40877 3.7917 1.7769 2.87326C2.02443 2.26096 2.50364 1.78924 3.12883 1.54245C4.06502 1.17695 6.2865 1.2613 7.32107 1.2613C8.35565 1.2613 10.5803 1.18007 11.5133 1.54245C12.1353 1.78612 12.6145 2.25784 12.8652 2.87326C13.2366 3.79482 13.1509 5.98159 13.1509 7C13.1509 8.01841 13.2366 10.2083 12.8652 11.1267Z" fill="#818181"/>
</svg>
