<svg width="16" height="16" viewBox="0 0 16 16" fill="none" xmlns="http://www.w3.org/2000/svg">
<path d="M3.58143 16H0.264286V5.36392H3.58143V16ZM1.92107 3.91305C0.860357 3.91305 0 3.03827 0 1.98213C7.59214e-09 1.47482 0.202398 0.988297 0.562669 0.629579C0.92294 0.270862 1.41157 0.0693359 1.92107 0.0693359C2.43057 0.0693359 2.9192 0.270862 3.27947 0.629579C3.63974 0.988297 3.84214 1.47482 3.84214 1.98213C3.84214 3.03827 2.98143 3.91305 1.92107 3.91305ZM15.9964 16H12.6864V10.8224C12.6864 9.58848 12.6614 8.00605 10.9618 8.00605C9.23714 8.00605 8.97286 9.34667 8.97286 10.7335V16H5.65929V5.36392H8.84071V6.81478H8.88714C9.33 5.97911 10.4118 5.09721 12.0257 5.09721C15.3829 5.09721 16 7.2984 16 10.1575V16H15.9964Z" fill="#818181"/>
</svg>
