<svg width="133" height="48" viewBox="0 0 133 48" fill="none" xmlns="http://www.w3.org/2000/svg">
<path d="M128.724 3.69918C126.052 1.23306 122.502 0 118.073 0H104.853C104.625 0 103.076 0 103.076 1.72764V46.1607C103.076 48.0464 104.625 47.938 104.853 47.938H118.073C122.502 47.938 126.052 46.7049 128.721 44.2388C131.393 41.7727 132.728 38.4868 132.728 34.3766V13.5591C132.728 9.4512 131.393 6.16304 128.721 3.69918H128.724ZM112.375 39.0017C111.19 37.6557 110.551 35.8174 110.458 33.4891V14.4489C110.458 12.1206 111.063 10.271 112.274 8.90242C112.68 8.44397 113.134 8.06683 113.631 7.76195V40.0722C113.175 39.7808 112.755 39.4285 112.378 38.9995L112.375 39.0017ZM124.785 33.4891C124.693 35.8174 124.053 37.6557 122.868 39.0017C122.479 39.4421 122.046 39.8034 121.574 40.0993V7.73711C122.086 8.0465 122.554 8.43042 122.969 8.90242C124.178 10.2732 124.785 12.1206 124.785 14.4489V33.4868V33.4891Z" fill="#EE3F4F"/>
<path d="M57.9334 10.3297C61.3345 10.3297 62.9402 12.3532 62.9402 15.8943C62.9402 19.4354 61.3097 21.5153 57.9334 21.5153H53.8526V10.3297H57.9334ZM56.0658 19.7041H57.6399C59.5007 19.7041 60.6548 18.7624 60.6548 15.9349C60.6548 13.6246 59.8508 12.1409 57.6399 12.1409H56.0658V19.7041V19.7041Z" fill="white"/>
<path d="M63.3061 21.5176L67.0595 10.332H69.6566L73.3851 21.5176H71.0342L70.1579 18.6404H66.4294L65.5441 21.5176H63.3061V21.5176ZM68.2564 12.4706L66.8878 16.9941H69.7153L68.3557 12.4706H68.2564Z" fill="white"/>
<path d="M75.8647 21.5176V12.1816H72.685V10.3297H81.2577V12.1816H78.0779V21.5153H75.8647V21.5176Z" fill="white"/>
<path d="M80.5486 21.5176L84.3019 10.332H86.899L90.6276 21.5176H88.2766L87.4004 18.6404H83.6719L82.7866 21.5176H80.5486V21.5176ZM85.4989 12.4706L84.1303 16.9941H86.9578L85.5982 12.4706H85.4989Z" fill="white"/>
<path d="M0 37.396V26.2104H2.21318V37.396H0Z" fill="white"/>
<path d="M4.42184 37.396V26.2104H6.26466L11.2217 33.6517H11.2963V26.2104H13.3604V37.396H11.5244L6.54921 29.9141H6.48372V37.396H4.41959H4.42184Z" fill="white"/>
<path d="M17.6851 37.396V28.0623H14.5054V26.2104H23.0781V28.0623H19.8983V37.396H17.6851Z" fill="white"/>
<path d="M31.4249 37.396H24.2208V26.2104H31.4249V28.0216H26.4182V30.8897H31.1223V32.5858H26.4182V35.5849H31.4249V37.396Z" fill="white"/>
<path d="M39.8779 29.7899C39.7379 28.6337 38.9114 27.8568 37.5835 27.8568C35.9778 27.8568 35.0677 29.004 35.0677 31.0027V32.4706C35.0677 34.4467 35.8468 35.7565 37.649 35.7565C39.0672 35.7565 39.9434 34.8712 39.9434 33.733V33.0194H37.6399V31.373H42.0482V33.602C42.0482 35.7565 40.4742 37.6083 37.606 37.6083C34.3518 37.6083 32.8364 35.5261 32.8364 32.4774V30.9869C32.8364 27.9787 34.5573 25.9959 37.5902 25.9959C40.3522 25.9959 41.9421 27.7077 42.0324 29.7899H39.8779V29.7899Z" fill="white"/>
<path d="M52.2018 29.7493C52.2018 31.5853 51.0139 32.5519 50.1602 32.8884L52.414 37.396H49.9389L47.9809 33.2249H45.989V37.396H43.8097V26.2104H48.2767C50.9326 26.2104 52.2018 27.7755 52.2018 29.7515V29.7493ZM47.9244 31.5605C49.1711 31.5605 49.9163 30.9462 49.9163 29.7899C49.9163 28.5614 49.0965 27.9449 47.9583 27.9449H45.9913V31.5582H47.9244V31.5605Z" fill="white"/>
<path d="M52.9018 37.396L56.6552 26.2104H59.2523L62.9809 37.396H60.6299L59.7537 34.5189H56.0251L55.1399 37.396H52.9018ZM57.8522 28.3491L56.4836 32.8726H59.311L57.9515 28.3491H57.8522Z" fill="white"/>
<path d="M65.4628 37.396V28.0623H62.283V26.2104H70.8557V28.0623H67.676V37.396H65.4628Z" fill="white"/>
<path d="M79.2003 37.396H71.9962V26.2104H79.2003V28.0216H74.1936V30.8897H78.8977V32.5858H74.1936V35.5849H79.2003V37.396Z" fill="white"/>
<path d="M85.1466 26.2082C88.5476 26.2082 90.1533 28.2317 90.1533 31.7728C90.1533 35.3139 88.5228 37.3938 85.1466 37.3938H81.0657V26.2082H85.1466V26.2082ZM83.2789 35.5826H84.853C86.7139 35.5826 87.8679 34.6409 87.8679 31.8134C87.8679 29.5031 87.0639 28.0194 84.853 28.0194H83.2789V35.5826Z" fill="white"/>
</svg>
