<svg width="16" height="16" viewBox="0 0 16 16" fill="none" xmlns="http://www.w3.org/2000/svg">
<path d="M15.7821 8C15.7821 12.4194 12.2708 16 7.93696 16C7.12713 16 6.34894 15.8742 5.61504 15.6419C5.93454 15.1097 6.41221 14.2387 6.58936 13.5452C6.68426 13.171 7.07652 11.6419 7.07652 11.6419C7.33275 12.1387 8.07931 12.5613 8.87331 12.5613C11.2395 12.5613 12.9446 10.3419 12.9446 7.58387C12.9446 4.94194 10.8283 2.96452 8.10778 2.96452C4.72297 2.96452 2.92301 5.28064 2.92301 7.80645C2.92301 8.98065 3.53671 10.4419 4.51419 10.9065C4.66287 10.9774 4.74195 10.9452 4.77675 10.8C4.80206 10.6903 4.93492 10.1452 4.99502 9.89355C5.014 9.8129 5.00451 9.74194 4.94124 9.66452C4.62174 9.26129 4.36235 8.52581 4.36235 7.83871C4.36235 6.07419 5.67198 4.36774 7.90532 4.36774C9.83182 4.36774 11.1826 5.70645 11.1826 7.62258C11.1826 9.7871 10.1102 11.2871 8.71515 11.2871C7.94645 11.2871 7.36755 10.6387 7.55419 9.84194C7.77562 8.89032 8.20268 7.86452 8.20268 7.17742C8.20268 6.56452 7.88002 6.05161 7.20938 6.05161C6.4217 6.05161 5.78903 6.88065 5.78903 7.99355C5.78903 8.70323 6.02312 9.18064 6.02312 9.18064C6.02312 9.18064 5.24809 12.529 5.10574 13.1548C4.94757 13.8452 5.01084 14.8194 5.07727 15.4516C2.16064 14.2871 0.0917969 11.3903 0.0917969 8C0.0917969 3.58065 3.60314 0 7.93696 0C12.2708 0 15.7821 3.58065 15.7821 8Z" fill="#818181"/>
</svg>
