<svg width="19" height="15" viewBox="0 0 19 15" fill="none" xmlns="http://www.w3.org/2000/svg">
<path d="M16.3566 4.40069C16.368 4.5551 16.368 4.70954 16.368 4.86394C16.368 9.57348 12.6561 15 5.87178 15C3.78166 15 1.84005 14.4154 0.206787 13.4007C0.503753 13.4338 0.789258 13.4448 1.09765 13.4448C2.82225 13.4448 4.40984 12.8823 5.67761 11.9228C4.05578 11.8897 2.69663 10.8639 2.22835 9.45218C2.4568 9.48524 2.68521 9.50731 2.92508 9.50731C3.25629 9.50731 3.58753 9.46317 3.89589 9.38601C2.20553 9.0551 0.937724 7.62129 0.937724 5.88967V5.84557C1.42882 6.11028 1.99994 6.27572 2.60523 6.29775C1.61157 5.65803 0.960575 4.56613 0.960575 3.33083C0.960575 2.66908 1.14328 2.06246 1.4631 1.53304C3.2791 3.69481 6.00882 5.10655 9.06971 5.26099C9.01262 4.99628 8.97834 4.72057 8.97834 4.44483C8.97834 2.48157 10.623 0.882324 12.6674 0.882324C13.7296 0.882324 14.689 1.31247 15.3629 2.00732C16.1966 1.85292 16.9961 1.55511 17.7043 1.14703C17.4301 1.97426 16.8476 2.66911 16.0824 3.11026C16.8248 3.03309 17.5444 2.83451 18.2068 2.55881C17.7043 3.26466 17.0761 3.89331 16.3566 4.40069Z" fill="#818181"/>
</svg>
