<svg width="21" height="14" viewBox="0 0 21 14" fill="none" xmlns="http://www.w3.org/2000/svg">
<path d="M19.7846 2.19053C19.5522 1.32829 18.8675 0.649214 17.9981 0.41876C16.4223 0 10.1034 0 10.1034 0C10.1034 0 3.78459 0 2.20874 0.41876C1.33935 0.64925 0.654637 1.32829 0.422241 2.19053C0 3.75339 0 7.01415 0 7.01415C0 7.01415 0 10.2749 0.422241 11.8378C0.654637 12.7 1.33935 13.3508 2.20874 13.5812C3.78459 14 10.1034 14 10.1034 14C10.1034 14 16.4222 14 17.9981 13.5812C18.8675 13.3508 19.5522 12.7 19.7846 11.8378C20.2068 10.2749 20.2068 7.01415 20.2068 7.01415C20.2068 7.01415 20.2068 3.75339 19.7846 2.19053ZM8.03679 9.97467V4.05362L13.3181 7.01422L8.03679 9.97467Z" fill="#818181"/>
</svg>
