<svg width="87" height="28" viewBox="0 0 87 28" fill="none" xmlns="http://www.w3.org/2000/svg">
<circle cx="14" cy="14" r="14" fill="#FEC9D1"/>
<path d="M10 10H18C18.55 10 19 10.45 19 11V17C19 17.55 18.55 18 18 18H10C9.45 18 9 17.55 9 17V11C9 10.45 9.45 10 10 10Z" fill="#FEC9D1" stroke="#EE3F4F" stroke-linecap="round" stroke-linejoin="round"/>
<path d="M19 11L14 14.5L9 11" fill="#FEC9D1"/>
<path d="M19 11L14 14.5L9 11" stroke="#EE3F4F" stroke-linecap="round" stroke-linejoin="round"/>
<path d="M44.4721 19H50.0881C50.5361 19 50.8721 18.664 50.8721 18.232C50.8721 17.8 50.5361 17.48 50.0881 17.48H45.3521V14.136H48.6321C49.0641 14.136 49.3841 13.816 49.3841 13.4C49.3841 12.984 49.0641 12.664 48.6321 12.664H45.3521V9.96H49.8961C50.3441 9.96 50.6801 9.64 50.6801 9.208C50.6801 8.776 50.3441 8.44 49.8961 8.44H44.4721C44.0081 8.44 43.6561 8.792 43.6561 9.256V18.184C43.6561 18.648 44.0081 19 44.4721 19ZM61.5335 10.968C60.4295 10.968 59.4695 11.432 58.8775 12.2C58.3975 11.4 57.5655 10.968 56.4935 10.968C55.6135 10.968 54.8615 11.272 54.3175 11.784C54.3015 11.32 53.9495 10.968 53.5015 10.968C53.0055 10.968 52.6535 11.336 52.6535 11.832V18.312C52.6535 18.808 53.0215 19.176 53.5015 19.176C53.9815 19.176 54.3335 18.824 54.3335 18.312V14.328C54.3335 13.24 55.0375 12.504 56.0615 12.504C57.0535 12.504 57.7095 13.224 57.7095 14.328V18.312C57.7095 18.808 58.0615 19.176 58.5575 19.176C59.0215 19.176 59.3895 18.824 59.3895 18.312V14.248C59.3895 13.24 60.1255 12.504 61.1175 12.504C62.1255 12.504 62.7495 13.208 62.7495 14.328V18.312C62.7495 18.808 63.1175 19.176 63.5975 19.176C64.0775 19.176 64.4455 18.824 64.4455 18.312V14.088C64.4455 12.168 63.3255 10.968 61.5335 10.968ZM69.7865 10.968C68.6345 10.968 67.5945 11.368 66.9225 12.072C66.6985 12.296 66.5865 12.52 66.5865 12.76C66.5865 13.128 66.9225 13.464 67.3225 13.464C67.5145 13.464 67.6905 13.384 67.8985 13.208C68.3945 12.712 68.9865 12.472 69.6425 12.472C70.7145 12.472 71.3225 13.08 71.3225 14.152V14.664H69.0985C67.3225 14.664 66.2025 15.528 66.2025 16.904C66.2025 18.264 67.3065 19.176 68.9385 19.176C69.9465 19.176 70.7785 18.84 71.3545 18.232V18.328C71.3545 18.808 71.7065 19.176 72.1865 19.176C72.6665 19.176 73.0185 18.824 73.0185 18.328V14.248C73.0185 12.184 71.8185 10.968 69.7865 10.968ZM69.2905 17.88C68.4585 17.88 67.9145 17.48 67.9145 16.84C67.9145 16.216 68.3945 15.88 69.3065 15.88H71.3225V16.024C71.3225 17.064 70.4265 17.88 69.2905 17.88ZM76.2046 7.128C75.5806 7.128 75.0846 7.608 75.0846 8.216C75.0846 8.824 75.5806 9.304 76.2046 9.304C76.8126 9.304 77.3246 8.824 77.3246 8.216C77.3246 7.608 76.8126 7.128 76.2046 7.128ZM76.1886 19.176C76.6686 19.176 77.0366 18.808 77.0366 18.312V11.832C77.0366 11.336 76.6846 10.968 76.2046 10.968C75.7086 10.968 75.3566 11.336 75.3566 11.832V18.312C75.3566 18.808 75.7086 19.176 76.1886 19.176ZM80.314 19.176C80.794 19.176 81.146 18.808 81.146 18.312V7.688C81.146 7.192 80.794 6.824 80.314 6.824C79.818 6.824 79.466 7.192 79.466 7.688V18.312C79.466 18.808 79.834 19.176 80.314 19.176ZM84.5354 13.512C85.2234 13.512 85.7674 12.968 85.7674 12.28C85.7674 11.592 85.2234 11.032 84.5354 11.032C83.8314 11.032 83.2714 11.592 83.2714 12.28C83.2714 12.968 83.8314 13.512 84.5354 13.512ZM84.5354 19.176C85.2234 19.176 85.7674 18.632 85.7674 17.944C85.7674 17.256 85.2234 16.696 84.5354 16.696C83.8314 16.696 83.2714 17.256 83.2714 17.944C83.2714 18.632 83.8314 19.176 84.5354 19.176Z" fill="black"/>
</svg>
