<svg width="34" height="28" viewBox="0 0 34 28" fill="none" xmlns="http://www.w3.org/2000/svg">
<g clip-path="url(#clip0_1655_2397)">
<path opacity="0.3" d="M1.69704 16.3248C0.34742 14.0641 -0.129934 11.3882 0.354714 8.80018C0.839362 6.21218 2.25263 3.89034 4.32886 2.27111C6.40508 0.651879 9.00125 -0.153211 11.6293 0.00718196C14.2574 0.167575 16.7364 1.2824 18.6003 3.1421C20.4643 5.00179 21.5847 7.47827 21.751 10.106C21.9173 12.7337 21.1181 15.3317 19.5036 17.4116C17.8891 19.4915 15.5704 20.91 12.9835 21.4005C10.3966 21.891 7.71965 21.4197 5.45583 20.0752L0.449769 21.7467C0.110375 21.857 -0.0847764 21.6703 0.0255267 21.3224L1.70553 16.3164L1.69704 16.3248Z" fill="#3B748D"/>
<path opacity="0.6" d="M14.1952 9.10424C16.0593 7.25794 18.5317 6.15324 21.1507 5.99643C23.7696 5.83963 26.3561 6.64145 28.4272 8.25215C30.4982 9.86285 31.9122 12.1723 32.4051 14.7493C32.898 17.3262 32.436 19.9945 31.1055 22.2558L32.7771 27.2618C32.8874 27.6097 32.7007 27.7964 32.3528 27.6861L27.3468 26.0145C25.0855 27.345 22.4172 27.807 19.8403 27.3141C17.2633 26.8212 14.9539 25.4072 13.3431 23.3362C11.7324 21.2651 10.9306 18.6786 11.0874 16.0597C11.2442 13.4407 12.3489 10.9683 14.1952 9.10424ZM21.6365 19.8545C20.8474 19.8545 20.211 20.5333 20.211 21.3818C20.211 22.2303 20.8474 22.9091 21.6365 22.9091C22.4255 22.9091 23.0704 22.2303 23.0704 21.3818C23.0704 20.5333 22.4255 19.8545 21.6365 19.8545ZM18.9213 11.2848C18.5456 11.6791 18.254 12.1457 18.0644 12.6563C17.8747 13.1668 17.791 13.7106 17.8183 14.2545H20.0752C20.0752 12.7782 20.8558 12.1588 21.6704 12.1588C22.0098 12.0994 22.3746 12.2097 22.6292 12.4727C22.8837 12.7273 23.011 13.1091 22.9686 13.4824C22.9686 14.4582 22.8328 14.6448 21.9928 15.3321C21.5112 15.6651 21.1211 16.1141 20.8586 16.6375C20.5962 17.161 20.4697 17.7421 20.491 18.3273H22.5952C22.714 17.5636 23.1468 16.9103 23.7662 16.537C24.2788 16.239 24.7044 15.812 25.0006 15.2984C25.2969 14.7848 25.4534 14.2026 25.4546 13.6097C25.4546 12.4303 24.6401 10.1903 21.7383 10.1903C21.2154 10.1497 20.6901 10.227 20.2011 10.4164C19.7121 10.6058 19.2719 10.9026 18.9128 11.2848H18.9213Z" fill="#F32233"/>
<g opacity="0.2">
<path d="M14.1952 9.10424C16.0593 7.25794 18.5317 6.15324 21.1507 5.99643C23.7696 5.83963 26.3561 6.64145 28.4272 8.25215C30.4982 9.86285 31.9122 12.1723 32.4051 14.7493C32.898 17.3262 32.436 19.9945 31.1055 22.2558L32.7771 27.2618C32.8874 27.6097 32.7007 27.7964 32.3528 27.6861L27.3468 26.0145C25.0855 27.345 22.4172 27.807 19.8403 27.3141C17.2633 26.8212 14.9539 25.4072 13.3431 23.3362C11.7324 21.2651 10.9306 18.6786 11.0874 16.0597C11.2442 13.4407 12.3489 10.9683 14.1952 9.10424ZM21.6365 19.8545C20.8474 19.8545 20.211 20.5333 20.211 21.3818C20.211 22.2303 20.8474 22.9091 21.6365 22.9091C22.4255 22.9091 23.0704 22.2303 23.0704 21.3818C23.0704 20.5333 22.4255 19.8545 21.6365 19.8545ZM18.9213 11.2848C18.5456 11.6791 18.254 12.1457 18.0644 12.6563C17.8747 13.1668 17.791 13.7106 17.8183 14.2545H20.0752C20.0752 12.7782 20.8558 12.1588 21.6704 12.1588C22.0098 12.0994 22.3746 12.2097 22.6292 12.4727C22.8837 12.7273 23.011 13.1091 22.9686 13.4824C22.9686 14.4582 22.8328 14.6448 21.9928 15.3321C21.5112 15.6651 21.1211 16.1141 20.8586 16.6375C20.5962 17.161 20.4697 17.7421 20.491 18.3273H22.5952C22.714 17.5636 23.1468 16.9103 23.7662 16.537C24.2788 16.239 24.7044 15.812 25.0006 15.2984C25.2969 14.7848 25.4534 14.2026 25.4546 13.6097C25.4546 12.4303 24.6401 10.1903 21.7383 10.1903C21.2154 10.1497 20.6901 10.227 20.2011 10.4164C19.7121 10.6058 19.2719 10.9026 18.9128 11.2848H18.9213Z" fill="#F32233"/>
</g>
</g>
<defs>
<clipPath id="clip0_1655_2397">
<rect width="33.0909" height="28" fill="white"/>
</clipPath>
</defs>
</svg>
