<svg width="28" height="28" viewBox="0 0 28 28" fill="none" xmlns="http://www.w3.org/2000/svg">
<circle cx="14" cy="14" r="14" fill="#FEC9D1"/>
<path d="M18.6364 12.7913C18.6364 16.5178 13.3182 19.712 13.3182 19.712C13.3182 19.712 8 16.5178 8 12.7913C8 11.5206 8.56031 10.3019 9.55766 9.40334C10.555 8.50479 11.9077 8 13.3182 8C14.7286 8 16.0813 8.50479 17.0787 9.40334C18.076 10.3019 18.6364 11.5206 18.6364 12.7913Z" fill="#FEC9D1" stroke="#EE3F4F" stroke-linecap="round" stroke-linejoin="round"/>
<path d="M13.3181 14.3884C14.2972 14.3884 15.0908 13.6734 15.0908 12.7913C15.0908 11.9093 14.2972 11.1942 13.3181 11.1942C12.3391 11.1942 11.5454 11.9093 11.5454 12.7913C11.5454 13.6734 12.3391 14.3884 13.3181 14.3884Z" fill="#FEC9D1" stroke="#EE3F4F" stroke-linecap="round" stroke-linejoin="round"/>
</svg>
