<svg width="158" height="28" viewBox="0 0 158 28" fill="none" xmlns="http://www.w3.org/2000/svg">
<circle cx="14" cy="14" r="14" fill="#FEC9D1"/>
<path d="M19.1115 16.5017V18.0101C19.1121 18.1501 19.0834 18.2887 19.0273 18.417C18.9712 18.5453 18.8889 18.6605 18.7857 18.7551C18.6825 18.8498 18.5607 18.9219 18.4281 18.9667C18.2954 19.0116 18.1549 19.0283 18.0154 19.0156C16.4682 18.8475 14.982 18.3188 13.6763 17.4721C12.4614 16.7001 11.4314 15.6701 10.6595 14.4553C9.80975 13.1436 9.28094 11.6502 9.1159 10.096C9.10333 9.95698 9.11986 9.81685 9.16442 9.68455C9.20898 9.55224 9.2806 9.43067 9.37472 9.32756C9.46884 9.22445 9.5834 9.14207 9.7111 9.08566C9.83881 9.02926 9.97686 9.00006 10.1165 8.99993H11.6249C11.8689 8.99753 12.1054 9.08393 12.2904 9.24305C12.4755 9.40216 12.5963 9.62312 12.6305 9.86474C12.6941 10.3475 12.8122 10.8214 12.9824 11.2776C13.0501 11.4576 13.0647 11.6531 13.0246 11.8412C12.9845 12.0292 12.8913 12.2018 12.7561 12.3385L12.1176 12.9771C12.8334 14.2358 13.8756 15.2781 15.1344 15.9938L15.7729 15.3553C15.9096 15.2201 16.0822 15.1269 16.2703 15.0868C16.4583 15.0467 16.6539 15.0614 16.8338 15.129C17.29 15.2992 17.764 15.4173 18.2467 15.481C18.4909 15.5154 18.714 15.6385 18.8734 15.8267C19.0329 16.0148 19.1176 16.2551 19.1115 16.5017Z" fill="#FEC9D1" stroke="#EE3F4F" stroke-linecap="round" stroke-linejoin="round"/>
<path d="M44.5979 19.176C45.0779 19.176 45.4459 18.808 45.4459 18.312V14.92H47.5899C49.7179 14.92 51.1739 13.592 51.1739 11.672C51.1739 9.736 49.7339 8.44 47.5899 8.44H44.6299C44.1179 8.44 43.7499 8.808 43.7499 9.32V18.312C43.7499 18.808 44.1179 19.176 44.5979 19.176ZM45.4459 13.416V9.944H47.5739C48.7259 9.944 49.4299 10.616 49.4299 11.688C49.4299 12.76 48.7259 13.416 47.5739 13.416H45.4459ZM56.918 10.968C55.974 10.968 55.19 11.32 54.646 11.928V7.688C54.646 7.176 54.294 6.824 53.814 6.824C53.334 6.824 52.966 7.192 52.966 7.688V18.312C52.966 18.808 53.334 19.176 53.814 19.176C54.294 19.176 54.646 18.824 54.646 18.312V14.328C54.646 13.256 55.398 12.504 56.438 12.504C57.462 12.504 58.15 13.224 58.15 14.328V18.312C58.15 18.808 58.502 19.176 58.998 19.176C59.462 19.176 59.83 18.824 59.83 18.312V14.088C59.83 12.2 58.678 10.968 56.918 10.968ZM65.8171 10.968C63.4971 10.968 61.6731 12.76 61.6731 15.064C61.6731 17.352 63.4971 19.16 65.8171 19.176C68.1531 19.176 69.9931 17.352 69.9931 15.064C69.9931 12.776 68.1531 10.968 65.8171 10.968ZM65.8331 12.504C67.2091 12.52 68.2651 13.608 68.2651 15.08C68.2651 16.52 67.2091 17.624 65.8171 17.624C64.4251 17.624 63.3851 16.536 63.3851 15.08C63.3851 13.608 64.4251 12.52 65.8331 12.504ZM75.8391 10.968C74.9271 10.968 74.1431 11.288 73.5831 11.832C73.5831 11.336 73.2311 10.968 72.7671 10.968C72.2711 10.968 71.9191 11.336 71.9191 11.832V18.312C71.9191 18.808 72.2871 19.176 72.7671 19.176C73.2471 19.176 73.5991 18.824 73.5991 18.312V14.312C73.5991 13.256 74.3511 12.488 75.3911 12.488C76.4151 12.488 77.1031 13.224 77.1031 14.312V18.312C77.1031 18.808 77.4551 19.176 77.9511 19.176C78.4151 19.176 78.7831 18.824 78.7831 18.312V14.088C78.7831 12.184 77.6311 10.968 75.8391 10.968ZM84.6743 10.968C82.3863 10.968 80.6263 12.76 80.6263 15.08C80.6263 17.432 82.4183 19.176 84.8503 19.176C85.8263 19.176 86.7063 18.888 87.4583 18.328C87.7623 18.104 87.8743 17.912 87.8743 17.624C87.8743 17.224 87.5703 16.92 87.1703 16.92C87.0263 16.92 86.8823 16.984 86.7383 17.08C86.2103 17.48 85.5703 17.688 84.8983 17.688C83.5063 17.688 82.5623 16.888 82.3383 15.624H87.3623C87.9543 15.624 88.3223 15.272 88.3223 14.696V14.616C88.3223 12.504 86.7703 10.968 84.6743 10.968ZM84.6263 12.392C85.8103 12.392 86.6103 13.176 86.6423 14.312H82.3703C82.6263 13.16 83.4903 12.392 84.6263 12.392ZM102.7 8.264C102.22 8.264 101.852 8.632 101.852 9.128L101.868 15.816L96.5236 8.824C96.2516 8.456 96.0596 8.264 95.6756 8.264C95.2116 8.264 94.8436 8.632 94.8436 9.096V18.312C94.8436 18.808 95.2116 19.176 95.6916 19.176C96.1716 19.176 96.5396 18.808 96.5396 18.312V11.608L101.916 18.696C102.14 18.984 102.364 19.176 102.716 19.176C103.196 19.176 103.548 18.808 103.548 18.344V9.128C103.548 8.632 103.18 8.264 102.7 8.264ZM109.373 19.176C111.373 19.176 112.781 17.752 112.781 15.704V11.832C112.781 11.336 112.429 10.968 111.949 10.968C111.453 10.968 111.101 11.336 111.101 11.832V15.832C111.101 16.872 110.381 17.624 109.373 17.624C108.333 17.624 107.597 16.872 107.597 15.832V11.832C107.597 11.336 107.245 10.968 106.765 10.968C106.285 10.968 105.933 11.336 105.933 11.832V15.704C105.933 17.752 107.341 19.176 109.373 19.176ZM124.018 10.968C122.914 10.968 121.954 11.432 121.362 12.2C120.882 11.4 120.05 10.968 118.978 10.968C118.098 10.968 117.346 11.272 116.802 11.784C116.786 11.32 116.434 10.968 115.986 10.968C115.49 10.968 115.138 11.336 115.138 11.832V18.312C115.138 18.808 115.506 19.176 115.986 19.176C116.466 19.176 116.818 18.824 116.818 18.312V14.328C116.818 13.24 117.522 12.504 118.546 12.504C119.538 12.504 120.194 13.224 120.194 14.328V18.312C120.194 18.808 120.546 19.176 121.042 19.176C121.506 19.176 121.874 18.824 121.874 18.312V14.248C121.874 13.24 122.61 12.504 123.602 12.504C124.61 12.504 125.234 13.208 125.234 14.328V18.312C125.234 18.808 125.602 19.176 126.082 19.176C126.562 19.176 126.93 18.824 126.93 18.312V14.088C126.93 12.168 125.81 10.968 124.018 10.968ZM133.567 10.968C132.463 10.968 131.535 11.4 130.943 12.12V7.688C130.943 7.176 130.591 6.824 130.111 6.824C129.631 6.824 129.263 7.192 129.263 7.688V18.312C129.263 18.808 129.615 19.176 130.111 19.176C130.575 19.176 130.927 18.824 130.927 18.312V18.024C131.519 18.744 132.463 19.176 133.583 19.176C135.791 19.176 137.423 17.448 137.423 15.08C137.423 12.712 135.791 10.968 133.567 10.968ZM133.295 17.64C131.887 17.64 130.927 16.6 130.927 15.08C130.927 13.544 131.871 12.504 133.295 12.504C134.687 12.504 135.695 13.592 135.695 15.064C135.695 16.552 134.687 17.64 133.295 17.64ZM142.909 10.968C140.621 10.968 138.861 12.76 138.861 15.08C138.861 17.432 140.653 19.176 143.085 19.176C144.061 19.176 144.941 18.888 145.693 18.328C145.997 18.104 146.109 17.912 146.109 17.624C146.109 17.224 145.805 16.92 145.405 16.92C145.261 16.92 145.117 16.984 144.973 17.08C144.445 17.48 143.805 17.688 143.133 17.688C141.741 17.688 140.797 16.888 140.573 15.624H145.597C146.189 15.624 146.557 15.272 146.557 14.696V14.616C146.557 12.504 145.005 10.968 142.909 10.968ZM142.861 12.392C144.045 12.392 144.845 13.176 144.877 14.312H140.605C140.861 13.16 141.725 12.392 142.861 12.392ZM152.338 11.064C151.458 11.064 150.674 11.448 150.146 12.072V11.832C150.146 11.336 149.794 10.968 149.33 10.968C148.834 10.968 148.482 11.336 148.482 11.832V18.312C148.482 18.808 148.85 19.176 149.33 19.176C149.81 19.176 150.162 18.824 150.162 18.312V14.808C150.162 13.544 151.042 12.68 152.322 12.648C152.802 12.616 153.138 12.296 153.138 11.832C153.138 11.384 152.802 11.064 152.338 11.064ZM155.442 13.512C156.13 13.512 156.674 12.968 156.674 12.28C156.674 11.592 156.13 11.032 155.442 11.032C154.738 11.032 154.178 11.592 154.178 12.28C154.178 12.968 154.738 13.512 155.442 13.512ZM155.442 19.176C156.13 19.176 156.674 18.632 156.674 17.944C156.674 17.256 156.13 16.696 155.442 16.696C154.738 16.696 154.178 17.256 154.178 17.944C154.178 18.632 154.738 19.176 155.442 19.176Z" fill="black"/>
</svg>
