<svg width="28" height="28" viewBox="0 0 28 28" fill="none" xmlns="http://www.w3.org/2000/svg">
<circle cx="14" cy="14" r="14" fill="#FEC9D1"/>
<path d="M19.1115 16.5017V18.0101C19.1121 18.1501 19.0834 18.2887 19.0273 18.417C18.9712 18.5453 18.8889 18.6605 18.7857 18.7551C18.6825 18.8498 18.5607 18.9219 18.4281 18.9667C18.2954 19.0116 18.1549 19.0283 18.0154 19.0156C16.4682 18.8475 14.982 18.3188 13.6763 17.4721C12.4614 16.7001 11.4314 15.6701 10.6595 14.4553C9.80975 13.1436 9.28094 11.6502 9.1159 10.096C9.10333 9.95698 9.11986 9.81685 9.16442 9.68455C9.20898 9.55224 9.2806 9.43067 9.37472 9.32756C9.46884 9.22445 9.5834 9.14207 9.7111 9.08566C9.83881 9.02926 9.97686 9.00006 10.1165 8.99993H11.6249C11.8689 8.99753 12.1054 9.08393 12.2904 9.24305C12.4755 9.40216 12.5963 9.62312 12.6305 9.86474C12.6941 10.3475 12.8122 10.8214 12.9824 11.2776C13.0501 11.4576 13.0647 11.6531 13.0246 11.8412C12.9845 12.0292 12.8913 12.2018 12.7561 12.3385L12.1176 12.9771C12.8334 14.2358 13.8756 15.2781 15.1344 15.9938L15.7729 15.3553C15.9096 15.2201 16.0822 15.1269 16.2703 15.0868C16.4583 15.0467 16.6539 15.0614 16.8338 15.129C17.29 15.2992 17.764 15.4173 18.2467 15.481C18.4909 15.5154 18.714 15.6385 18.8734 15.8267C19.0329 16.0148 19.1176 16.2551 19.1115 16.5017Z" fill="#FEC9D1" stroke="#EE3F4F" stroke-linecap="round" stroke-linejoin="round"/>
</svg>
