<svg width="237" height="92" viewBox="0 0 237 92" fill="none" xmlns="http://www.w3.org/2000/svg">
<path d="M113.668 62.359C112.857 62.9314 111.197 63.4216 109.392 63.4216C106.08 63.4216 104.591 60.8788 104.652 57.9208C104.705 55.4692 106.232 52.6912 110.369 52.6912L113.669 52.6894V62.359H113.668ZM110.263 35.17C106.333 35.17 102.796 36.2812 99.1612 38.086L98.2336 38.5642L100.446 43.5022L101.694 42.9124C104.268 41.7604 107.01 40.9882 109.475 41.0914C112.46 41.2156 113.681 42.5836 113.681 45.439V47.1142H108.801C100.957 47.1142 96.076 51.2722 95.935 57.7282C95.935 63.8632 101.05 69.1444 108.161 69.1444C113.9 69.1444 118.761 67.2826 122.037 64.0012V46.495C122.037 37.9702 115.952 35.17 110.263 35.17ZM226.761 63.4V68.5774C226.761 68.5774 225.023 68.9092 223.615 68.9092C217.04 68.9092 213.115 65.812 213.115 58.579V28.0744L221.371 26.668V59.1136C221.371 61.6204 222.091 63.1204 225.52 63.3874C225.988 63.4216 226.762 63.3994 226.762 63.3994L226.761 63.4ZM190.55 47.9974C190.689 44.8204 192.011 41.5546 195.263 41.5546C198.923 41.5546 199.463 45.5248 199.463 47.9974H190.55ZM197.043 63.3622C194.786 63.3622 193.263 62.6218 192.264 61.5442C190.782 59.944 190.125 56.6536 190.304 53.1556H208.06V52.3396C207.902 40.7164 203.939 35.4214 195.264 35.4214C185.582 35.4214 181.811 44.3284 181.74 52.6972C181.68 57.9916 183.677 63.322 187.328 66.3586C189.551 68.2054 192.635 69.229 196.208 69.229C198.155 69.229 200.19 68.9392 202.046 68.365C205.608 67.261 208.237 65.3542 208.237 65.3542L205.915 60.5752C205.497 60.8908 201.941 63.3622 197.044 63.3622H197.043ZM178.844 63.43V68.533C178.844 68.533 177.321 68.8354 175.705 68.8354C168.98 68.8354 164.967 65.5882 164.967 58.723V28.069L173.409 26.713V35.77H178.842V41.8234H173.409V59.0716C173.409 61.33 174.107 63.2812 177.647 63.4054C178.126 63.4222 178.755 63.4222 178.844 63.4306V63.43ZM128.204 37.096L136.44 35.752V68.5504H128.204V37.096ZM132.406 22.6462C133.839 22.6462 135.164 23.2042 136.138 24.2158C136.612 24.7052 136.983 25.2851 137.228 25.9208C137.473 26.5565 137.588 27.235 137.565 27.916C137.565 30.8332 135.267 33.1276 132.333 33.1276C129.404 33.1276 127.102 30.8266 127.102 27.8818C127.102 24.997 129.482 22.6462 132.406 22.6462ZM162.748 36.25L160.424 41.4604C160.424 41.4604 159.097 41.0356 157.053 41.1184C154.843 41.2066 152.518 42.142 151.424 43.2094V68.5738H143.02L143.026 41.6296C148.029 36.3112 153.581 35.2516 157.198 35.2516C159.695 35.2516 161.845 35.8048 162.748 36.25V36.25ZM57.6658 10V10.0912H56.9368V10.1824H56.116V10.2736H55.387V10.3648H54.7486V10.4554H54.2926V10.5466H53.8372V10.6378H53.3812V10.729H52.9258V10.8202H52.4698V10.9114H52.0144V11.0026H51.7414V11.0938H51.3766V11.185H51.0118V11.2762H50.6476V11.3668H50.374V11.458H50.0098V11.5492H49.645V11.6404H49.2802V11.7316H49.0072V11.8228H48.7336V11.914H48.46V12.0052H48.187V12.0964H47.9134V12.1876H47.6398V12.2782H47.3662V12.3694H47.0932V12.4606H46.8196V12.5518H46.546V12.643H46.273V12.7342H46V12.8254H45.7264V12.9166H45.4534V13.0078H45.271V13.099H44.9974V13.1896H44.815V13.2808H44.542V13.372H44.3596V13.4632H44.086V13.5544H43.8124V13.6456H43.6306V13.7368H43.357V13.828H43.1746V13.9192H42.901V14.0104H42.7192V14.101H42.4456V14.1922H42.2632V14.2834H42.0808V14.3746H41.899V14.4658H41.6254V14.557H41.443V14.6482H41.2606V14.7394H41.0782V14.8306H40.8964V14.9218H40.6228V15.0124H40.4404V15.1036H40.258V15.1948H40.0762V15.286H39.8938V15.3772H39.6202V15.4684H39.4378V15.5596H39.2554V15.6508H39.0736V15.742H38.8912V15.8332H38.7088V15.9238H38.5264V16.015H38.3446V16.1062H38.1622V16.1974H37.9798V16.2886H37.7974V16.3798H37.615V16.471H37.4332V16.5622H37.2508V16.6534H37.0684V16.7446H36.886V16.8352H36.7036V16.9264H36.6124V17.0176H36.4306V17.1088H36.2482V17.2H36.0658V17.2912H35.8834V17.3824H35.701V17.4736H35.5192V17.5648H35.428V17.6554H35.2456V17.7466H35.0632V17.8378H34.8808V17.929H34.7896V18.0202H34.6078V18.1114H34.4254V18.2026H34.243V18.2938H34.1518V18.385H33.9694V18.4762H33.7876V18.5668H33.6052V18.658H33.4228V18.7492H33.3316V18.8404H33.1492V18.9316H32.9668V19.0228H32.785V19.114H32.6938V19.2052H32.5114V19.2964H32.4202V19.3876H32.2378V19.4782H32.1466V19.5694H31.9648V19.6606H31.7824V19.7518H31.6912V19.843H31.5088V19.9342H31.4176V20.0254H31.2352V20.1166H31.0534V20.2078H30.9622V20.299H30.7798V20.3896H30.6886V20.4808H30.5062V20.572H30.415V20.6632H30.2332V20.7544H30.0508V20.8456H29.9596V20.9368H29.7772V21.028H29.686V21.1192H29.5036V21.2104H29.4124V21.301H29.2306V21.3922H29.1394V21.4834H29.0482V21.5746H28.8658V21.6658H28.7746V21.757H28.5922V21.8482H28.501V21.9394H28.3192V22.0306H28.228V22.1218H28.1368V22.2124H27.9544V22.3036H27.8632V22.3948H27.6808V22.486H27.5896V22.5772H27.4078V22.6684H27.3166V22.7596H27.2254V22.8508H27.043V22.942H26.9518V23.0332H26.7694V23.1238H26.6782V23.215H26.5876V23.3062H26.4052V23.3974H26.314V23.4886H26.2228V23.5798H26.0404V23.671H25.9492V23.7622H25.858V23.8534H25.7668V23.9446H25.585V24.0352H25.4938V24.1264H25.4026V24.2176H25.2202V24.3088H25.129V24.4H25.0378V24.4912H24.9466V24.5824H24.7648V24.6736H24.6736V24.7648H24.5824V24.8554H24.4V24.9466H24.3088V25.0378H24.2176V25.129H24.0352V25.2202H23.9446V25.3114H23.8534V25.4026H23.7622V25.4938H23.671V25.585H23.5798V25.6762H23.3974V25.7668H23.3062V25.858H23.215V25.9492H23.1238V26.0404H23.0332V26.1316H22.942V26.2228H22.7596V26.314H22.6684V26.4052H22.5772V26.4964H22.486V26.5876H22.3948V26.6782H22.3036V26.7694H22.1218V26.8606H22.0306V26.9518H21.9394V27.043H21.8482V27.1342H21.757V27.2254H21.6658V27.3166H21.4834V27.4078H21.3922V27.499H21.301V27.5896H21.2104V27.6808H21.1192V27.772H21.028V27.8632H20.9368V27.9544H20.8456V28.0456H20.7544V28.1368H20.6632V28.228H20.572V28.3192H20.4808V28.4104H20.3896V28.501H20.299V28.5922H20.2078V28.6834H20.1166V28.7746H20.0254V28.8658H19.9342V28.957H19.843V29.0482H19.7518V29.1394H19.6606V29.2306H19.4782V29.3218H19.3876V29.4124H19.2964V29.5036H19.2052V29.5948H19.114V29.686H19.0228V29.7772H18.9316V29.8684H18.8404V29.9596H18.7492V30.0508H18.658V30.142H18.5668V30.3238H18.4762V30.415H18.385V30.5062H18.2938V30.5974H18.2026V30.6886H18.1114V30.7798H18.0202V30.871H17.929V30.9622H17.8378V31.0534H17.7466V31.1446H17.6554V31.3264H17.5648V31.4176H17.4736V31.5088H17.3824V31.6H17.2912V31.6912H17.2V31.7824H17.1088V31.8736H17.0176V31.9648H16.9264V32.0554H16.8352V32.2378H16.7446V32.329H16.6534V32.4202H16.5622V32.5114H16.471V32.6026H16.3798V32.6938H16.2886V32.8762H16.1974V32.9668H16.1062V33.058H16.015V33.2404H15.9238V33.3316H15.8332V33.4228H15.742V33.514H15.6508V33.6964H15.5596V33.7876H15.4684V33.8782H15.3772V34.0606H15.286V34.1518H15.1948V34.243H15.1036V34.3342H15.0124V34.5166H14.9218V34.6078H14.83V34.699H14.7388V34.8808H14.6476V34.972H14.5564V35.0632H14.4652V35.2456H14.374V35.3368H14.284V35.5192H14.1928V35.6104H14.1016V35.701H14.011V35.8834H13.9198V35.9746H13.828V36.157H13.7368V36.2482H13.6456V36.4306H13.5544V36.6124H13.4632V36.7036H13.372V36.886H13.2808V36.9772H13.1896V37.1596H13.099V37.342H13.0078V37.4332H12.916V37.615H12.8248V37.7062H12.7336V37.8886H12.6424V38.071H12.5512V38.2534H12.46V38.4352H12.37V38.5264H12.2788V38.7088H12.1882V38.8912H12.097V39.0736H12.0058V39.2554H11.914V39.4378H11.8228V39.6202H11.7316V39.8026H11.6404V39.985H11.5492V40.1668H11.458V40.4404H11.3668V40.6228H11.2762V40.8052H11.185V41.0782H11.0938V41.2606H11.002V41.5342H10.9108V41.8078H10.8196V41.9896H10.7284V42.3544H10.6372V42.628H10.5466V42.901H10.456V43.2658H10.3648V43.7218H10.2736V44.086H10.1824V44.7238H10.0912V45.8176H10V46.8202H10.0912V47.7322H10.1824V48.1876H10.2736V48.5518H10.3648V48.9166H10.4554V49.1896H10.5466V49.4632H10.6378V49.7368H10.729V49.9192H10.8202V50.101H10.9114V50.2834H11.0026V50.4658H11.0938V50.6482H11.185V50.8306H11.2762V51.0124H11.3668V51.1036H11.458V51.286H11.5492V51.3772H11.6404V51.5596H11.7316V51.6508H11.8228V51.8332H11.914V51.9238H12.0052V52.015H12.0964V52.1062H12.1876V52.1974H12.2782V52.2886H12.3694V52.3798H12.4606V52.471H12.5518V52.5622H12.643V52.6534H12.7342V52.7446H12.8254V52.8352H12.9166V52.9264H13.0078V53.0176H13.099V53.1088H13.1896V53.2H13.2808V53.2912H13.372V53.3824H13.4632V53.4736H13.5544V53.5648H13.7368V53.6554H13.828V53.7466H14.0104V53.8378H14.101V53.929H14.2834V54.0202H14.3746V54.1114H14.557V54.2026H14.6482V54.2938H14.8306V54.385H14.9218V54.4762H15.1036V54.5668H15.1948V54.658H15.3772V54.7492H15.5596V54.8404H15.8332V54.9316H16.015V55.0228H16.1974V55.114H16.471V55.2052H16.6534V55.2964H16.8352V55.3876H17.2V55.4782H17.656V55.5694H18.1114V55.6606H18.5674V55.7518H20.8456V55.6606H21.4834V55.5694H22.0306V55.4782H22.3948V55.3876H22.7596V55.2964H23.0332V55.2052H23.3062V55.114H23.671V55.0228H23.9446V54.9316H24.1264V54.8404H24.4V54.7492H24.5824V54.658H24.7648V54.5668H25.0378V54.4762H25.2202V54.385H25.4026V54.2938H25.585V54.2026H25.7668V54.1114H25.9492V54.0202H26.1316V53.929H26.314V53.8378H26.4964V53.7466H26.6782V53.6554H26.8606V53.5648H27.043V53.4736H27.2254V53.3824H27.3166V53.2912H27.499V53.2H27.5896V53.1088H27.772V53.0176H27.9544V52.9264H28.0456V52.8352H28.228V52.7446H28.4104V52.6534H28.501V52.5622H28.6834V52.471H28.7746V52.3798H28.957V52.2886H29.0482V52.1974H29.2306V52.1062H29.3218V52.015H29.5036V51.9238H29.5948V51.8332H29.7772V51.742H29.8684V51.6508H30.0508V51.5596H30.142V51.4684H30.3238V51.3772H30.415V51.286H30.5062V51.1948H30.6886V51.1036H30.7798V51.0124H30.871V50.9218H31.0534V50.8306H31.1446V50.7394H31.3264V50.6482H31.4176V50.557H31.5088V50.4658H31.6912V50.3746H31.7824V50.2834H31.8736V50.1922H32.0554V50.101H32.1466V50.0104H32.2378V49.9192H32.4202V49.828H32.5114V49.7368H32.6026V49.6456H32.785V49.5544H32.8762V49.4632H32.9668V49.372H33.1492V49.2808H33.2404V49.1896H33.3316V49.099H33.4228V49.0078H33.6052V48.9166H33.6964V48.8254H33.7876V48.7342H33.9694V48.643H34.0606V48.5518H34.1518V48.4606H34.3342V48.3694H34.4254V48.2782H34.5166V48.1876H34.6078V48.0964H34.7896V48.0052H34.8808V47.914H34.972V47.8228H35.1544V47.7316H35.2456V47.6404H35.3368V47.5492H35.5192V47.458H35.6104V47.3668H35.701V47.2762H35.8834V47.185H35.9746V47.0938H36.0658V47.0026H36.2482V46.9114H36.3394V46.8202H36.4306V46.729H36.6124V46.6378H36.7036V46.5466H36.886V46.4554H36.9772V46.3648H37.0684V46.2736H37.2508V46.1824H37.342V46.0912H37.5238V46H37.615V45.9088H37.7974V45.8176H37.8886V45.7264H38.071V45.6352H38.1622V45.5446H38.3446V45.4534H38.4352V45.3622H38.5264V45.271H38.7088V45.1798H38.8V45.0886H38.9824V44.9974H39.0736V44.9062H39.2554V44.815H39.3466V44.7238H39.529V44.6332H39.6202V44.542H39.8026V44.4508H39.8938V44.3596H40.0762V44.2684H40.1668V44.1772H40.3492V44.086H40.4404V43.9948H40.6228V43.9036H40.714V43.8124H40.8964V43.7218H40.9876V43.6306H41.0782V43.5394H41.2606V43.4482H41.3518V43.357H41.5342V43.2658H41.6254V43.1746H41.8078V43.0834H41.899V42.9922H42.0808V42.901H42.172V42.8104H42.3544V42.7192H42.4456V42.628H42.628V42.5368H42.7192V42.4456H42.901V42.3544H42.9922V42.2632H43.1746V42.172H43.2658V42.0808H43.4482V41.9896H43.5394V41.899H43.7218V41.8078H43.8124V41.7166H43.9948V41.6254H44.086V41.5342H44.2684V41.443H44.3596V41.3518H44.542V41.2606H44.6332V41.1694H44.815V41.0782H44.9062V40.9876H45.0886V40.8964H45.1798V40.8052H45.3622V40.714H45.4534V40.6228H45.6352V40.5316H45.7264V40.4404H45.9088V40.3492H46V40.258H46.1824V40.1668H46.3648V40.0762H46.4554V39.985H46.6378V39.8938H46.729V39.8026H46.9114V39.7114H47.0026V39.6202H47.185V39.529H47.2762V39.4378H47.458V39.3466H47.5492V39.2554H47.7316V39.1648H47.914V39.0736H48.0052V38.9824H48.1876V38.8912H48.2782V38.8H48.4606V38.7088H48.643V38.6176H48.7342V38.5264H48.9166V38.4352H49.0078V38.3446H49.1896V38.2534H49.2808V38.1622H49.4632V38.071H49.6456V37.9798H49.7368V37.8886H49.9192V37.7974H50.101V37.7062H50.1922V37.615H50.3746V37.5238H50.557V37.4332H50.6482V37.342H50.8306V37.2508H51.0124V37.1596H51.1036V37.0684H51.286V36.9772H51.4684V36.886H51.5596V36.7948H51.742V36.7036H51.9238V36.6124H52.015V36.5218H52.1974V36.4306H52.3798V36.3394H52.5622V36.2482H52.6534V36.157H52.8352V36.0658H53.0176V35.9746H53.2V35.8834H53.2912V35.7922H53.4736V35.701H53.6554V35.6104H53.8378V35.5192H54.0202V35.428H54.1114V35.3368H54.2938V35.2456H54.4762V35.1544H54.658V35.0632H54.8404V34.972H55.0228V34.8808H55.2052V34.7896H55.3876V34.699H55.5694V34.6078H55.7518V34.5166H55.9342V34.4254H56.1166V34.3342H56.299V34.243H56.3896V34.1518H56.6632V34.0606H56.8456V33.9694H57.028V33.8782H57.2104V33.7876H57.3922V33.6964H57.6658V33.6052H57.8482V33.514H58.0306V33.4228H58.2124V33.3316H58.3948V33.2404H58.6684V33.1492H58.8508V33.058H59.1238V32.9668H59.3062V32.8762H59.5798V32.785H59.8534V32.6938H60.0352V32.6026H60.3088V32.5114H60.4912V32.4202H60.7648V32.329H61.129V32.2378H61.4026V32.1466H61.7668V32.0554H62.0404V31.9648H62.4052V31.8736H62.7694V31.7824H63.2254V31.6912H63.772V31.6H64.228V31.5088H65.7772V31.4176H65.9596V31.5088H66.7798V31.6H67.5088V31.6912H67.7824V31.7824H68.0554V31.8736H68.329V31.9648H68.5114V32.0554H68.785V32.1466H68.9668V32.2378H69.1492V32.329H69.2404V32.4202H69.4228V32.5114H69.6052V32.6026H69.6964V32.6938H69.8782V32.785H69.9694V32.8762H70.1518V32.9668H70.243V33.058H70.3342V33.1492H70.4254V33.2404H70.5166V33.3316H70.6078V33.4228H70.699V33.514H70.7896V33.6052H70.8808V33.6964H70.972V33.7876H71.0632V33.8782H71.1544V34.0606H71.2456V34.1518H71.3368V34.243H71.428V34.4254H71.5192V34.5166H71.6104V34.699H71.701V34.7896H71.7922V34.972H71.8834V35.1544H71.9746V35.2456H72.0658V35.428H72.157V35.6104H72.2482V35.7922H72.3394V35.9746H72.4306V36.2482H72.5218V36.4306H72.6124V36.7036H72.7036V36.886H72.7948V37.1596H72.886V37.4332H72.9772V37.7974H73.0684V38.071H73.1596V38.4352H73.2508V38.9824H73.342V39.4384H73.4332V40.4404H73.5238V42.7192H73.4332V43.4482H73.342V44.2684H73.2508V44.7244H73.1596V45.1798H73.0684V45.5446H72.9772V46H72.886V46.3648H72.7948V46.729H72.7036V47.0026H72.6124V47.2762H72.5218V47.5492H72.4306V47.914H72.3394V48.1876H72.2482V48.4606H72.157V48.7342H72.0658V48.9166H71.9746V49.1896H71.8834V49.372H71.7922V49.6456H71.701V49.828H71.6104V50.101H71.5192V50.2834H71.428V50.557H71.3368V50.7394H71.2456V50.9218H71.1544V51.1036H71.0632V51.286H70.972V51.5596H70.8808V51.742H70.7896V51.9238H70.699V52.1062H70.6078V52.2886H70.5166V52.3798H70.4254V52.5622H70.3342V52.7446H70.243V52.9264H70.1518V53.1088H70.0606V53.2H69.9694V53.3824H69.8782V53.5648H69.7876V53.6554H69.6964V53.8378H69.6052V54.0202H69.514V54.1114H69.4228V54.2938H69.3316V54.4762H69.2404V54.5668H69.1492V54.7492H69.058V54.8404H68.9668V55.0228H68.8762V55.114H68.785V55.2964H68.6938V55.3876H68.6026V55.5694H68.5114V55.6606H68.4202V55.843H68.329V55.9342H68.2378V56.1166H68.1466V56.2078H68.0554V56.299H67.9648V56.4808H67.8736V56.572H67.7824V56.6632H67.6912V56.8456H67.6V56.9368H67.5088V57.028H67.4176V57.2104H67.3264V57.301H67.2352V57.4834H67.1446V57.5746H67.0534V57.6658H66.9622V57.757H66.871V57.9394H66.7798V58.0306H66.6886V58.1218H66.5974V58.2124H66.5062V58.3948H66.415V58.486H66.3238V58.5772H66.2332V58.6684H66.142V58.8508H66.0508V58.942H65.9596V59.0332H65.8684V59.1238H65.7772V59.215H65.686V59.3974H65.5948V59.4886H65.5036V59.5798H65.4124V59.671H65.3218V59.7622H65.2306V59.9446H65.1394V60.0352H65.0482V60.1264H64.957V60.2176H64.8658V60.3088H64.7746V60.4H64.6834V60.4912H64.5922V60.5824H64.501V60.7648H64.4104V60.8554H64.3192V60.9466H64.228V61.0378H64.1368V61.129H64.0456V61.2202H63.9544V61.3114H63.8632V61.4026H63.772V61.4938H63.6808V61.6762H63.5896V61.7668H63.499V61.858H63.4078V61.9492H63.3166V62.0404H63.2254V62.1316H63.1342V62.2228H63.043V62.314H62.9518V62.4052H62.8606V62.4964H62.7694V62.5876H62.6782V62.6782H62.5876V62.7694H62.4964V62.8606H62.4052V62.9518H62.314V63.043H62.2228V63.1342H62.1316V63.2254H62.0404V63.3166H61.9492V63.4078H61.858V63.499H61.7668V63.5896H61.6762V63.6808H61.585V63.772H61.4938V63.8632H61.4026V63.9544H61.3114V64.0456H61.2202V64.1368H61.129V64.228H61.0378V64.3192H60.9466V64.4104H60.8554V64.501H60.7648V64.5922H60.6736V64.6834H60.5824V64.7746H60.4912V64.8658H60.4V64.957H60.3088V65.0482H60.2176V65.1394H60.1264V65.2306H60.0352V65.3218H59.9446V65.4124H59.8534V65.5036H59.671V65.5948H59.5798V65.686H59.4886V65.7772H59.3974V65.8684H59.3062V65.9596H59.215V66.0508H59.1238V66.142H59.0332V66.2332H58.942V66.3238H58.8508V66.415H58.6684V66.5062H58.5772V66.5974H58.486V66.6886H58.3948V66.7798H58.3036V66.871H58.2124V66.9622H58.1218V67.0534H58.0306V67.1446H57.8482V67.2352H57.757V67.3264H57.6658V67.4176H57.5746V67.5088H57.4834V67.6H57.3922V67.6912H57.301V67.7824H57.1192V67.8736H57.028V67.9648H56.9368V68.0554H56.8456V68.1466H56.7544V68.2378H56.572V68.329H56.4808V68.4202H56.3896V68.5114H56.299V68.6026H56.2078V68.6938H56.0254V68.785H55.9342V68.8762H55.843V68.9668H55.7518V69.058H55.6606V69.1492H55.4782V69.2404H55.3876V69.3316H55.2964V69.4228H55.2052V69.514H55.0228V69.6052H54.9316V69.6964H54.8404V69.7876H54.7492V69.8782H54.5668V69.9694H54.4762V70.0606H54.385V70.1518H54.2938V70.243H54.1114V70.3342H54.0202V70.4254H53.929V70.5166H53.8378V70.6078H53.6554V70.699H53.5648V70.7896H53.4736V70.8808H53.2912V70.972H53.2V71.0632H53.1088V71.1544H52.9264V71.2456H52.8352V71.3368H52.7446V71.428H52.5622V71.5192H52.471V71.6104H52.3798V71.701H52.1974V71.7922H52.1062V71.8834H52.015V71.9746H51.8332V72.0658H51.742V72.157H51.6508V72.2482H51.4684V72.3394H51.3772V72.4306H51.1948V72.5218H51.1036V72.6124H51.0124V72.7036H50.8306V72.7948H50.7394V72.886H50.557V72.9772H50.4658V73.0684H50.2834V73.1596H50.1922V73.2508H50.101V73.342H49.9192V73.4332H49.828V73.5238H49.6456V73.615H49.5544V73.7062H49.372V73.7974H49.2808V73.8886H49.099V73.9798H49.0078V74.071H48.8254V74.1622H48.7342V74.2534H48.5518V74.3446H48.4606V74.4352H48.2782V74.5264H48.1876V74.6176H48.0052V74.7088H47.8228V74.8H47.7316V74.8912H47.5492V74.9824H47.458V75.0736H47.2762V75.1648H47.0938V75.2554H47.0026V75.3466H46.8202V75.4378H46.729V75.529H46.5466V75.6202H46.3648V75.7114H46.1824V75.8026H46.0912V75.8938H45.9088V75.985H45.7264V76.0762H45.6352V76.1668H45.4534V76.258H45.271V76.3492H45.0886V76.4404H44.9974V76.5316H44.815V76.6228H44.6332V76.714H44.4508V76.8052H44.2684V76.8964H44.086V76.9876H43.9948V77.0782H43.8124V77.1694H43.6306V77.2606H43.4482V77.3518H43.2658V77.443H43.0834V77.5342H42.901V77.6254H42.7192V77.7166H42.5368V77.8078H42.2632V77.899H42.0808V77.9896H41.899V78.0808H41.7166V78.172H41.5342V78.2632H41.2606V78.3544H41.0782V78.4456H40.8052V78.5368H40.6228V78.628H40.3492V78.7192H40.0762V78.8104H39.8938V78.901H39.529V78.9922H39.2554V79.0834H38.9824V79.1746H38.6176V79.2658H38.1616V79.357H37.5238V79.4482H36.6124V79.357H36.2482V79.2658H35.9746V79.1746H35.7922V79.0834H35.6104V78.9922H35.5192V78.901H35.428V78.8104H35.3368V78.7192H35.2456V78.5368H35.1544V78.3544H35.0632V78.172H34.972V77.899H34.8808V76.987H34.972V76.5316H35.0632V76.258H35.1544V75.985H35.2456V75.8026H35.3368V75.6202H35.428V75.4378H35.5192V75.2554H35.6104V75.0736H35.701V74.8912H35.7922V74.8H35.8834V74.6176H35.9746V74.4352H36.0658V74.3446H36.157V74.1622H36.2482V74.071H36.3394V73.8886H36.4306V73.7974H36.5218V73.615H36.6124V73.5238H36.7036V73.4332H36.7948V73.2508H36.886V73.1596H36.9772V73.0684H37.0684V72.886H37.1596V72.7948H37.2508V72.7036H37.342V72.5218H37.4332V72.4306H37.5238V72.3394H37.615V72.2482H37.7062V72.157H37.7974V71.9746H37.8886V71.8834H37.9798V71.7922H38.071V71.701H38.1622V71.6104H38.2534V71.5192H38.3446V71.3368H38.4352V71.2456H38.5264V71.1544H38.6176V71.0632H38.7088V70.972H38.8V70.8808H38.8912V70.7896H38.9824V70.699H39.0736V70.6078H39.1648V70.5166H39.2554V70.3342H39.3466V70.243H39.4378V70.1518H39.529V70.0606H39.6202V69.9694H39.7114V69.8782H39.8026V69.7876H39.8938V69.6964H39.985V69.6052H40.0762V69.514H40.1668V69.4228H40.258V69.3316H40.3492V69.2404H40.4404V69.1492H40.5316V69.058H40.6228V68.9668H40.714V68.8762H40.8052V68.785H40.8964V68.6938H40.9876V68.6026H41.0782V68.5114H41.1694V68.4202H41.2606V68.329H41.3518V68.2378H41.443V68.1466H41.5342V68.0554H41.6254V67.9648H41.7166V67.8736H41.8078V67.7824H41.899V67.6912H41.9896V67.6H42.0808V67.5088H42.172V67.4176H42.2632V67.3264H42.3544V67.2352H42.4456V67.1446H42.5368V67.0534H42.628V66.9622H42.7192V66.871H42.8104V66.7798H42.901V66.6886H42.9922V66.5974H43.0834V66.5062H43.1746V66.415H43.2658V66.3238H43.357V66.2332H43.4482V66.142H43.5394V66.0508H43.6306V65.9596H43.7218V65.8684H43.8124V65.7772H43.9036V65.686H43.9948V65.5948H44.086V65.5036H44.2684V65.4124H44.3596V65.2306H44.4508V65.1394H44.542V65.0482H44.6332V64.957H44.7238V64.8658H44.815V64.7746H44.9062V64.6834H44.9974V64.5922H45.0886V64.501H45.1798V64.4104H45.271V64.3192H45.3622V64.1368H45.4534V64.0456H45.5446V63.9544H45.6352V63.8632H45.7264V63.772H45.8176V63.6808H45.9088V63.499H46V63.4078H46.0912V63.3166H46.1824V63.1342H46.2736V63.043H46.3648V62.9518H46.4554V62.8606H46.5466V62.6782H46.6378V62.5876H46.729V62.4052H46.8202V62.314H46.9114V62.1316H47.0026V61.9492H47.0938V61.858H47.185V61.6762H47.2762V61.4938H47.3668V61.4026H47.458V61.129H47.5492V60.8554H47.6404V60.5824H47.7316V60.4H47.8228V59.0332H47.7316V58.6684H47.6404V58.3948H47.5492V58.3036H47.458V58.1218H47.3668V58.0306H47.2762V57.8482H47.185V57.757H47.0938V57.6658H47.0026V57.5746H46.9114V57.4834H46.8202V57.3922H46.729V57.301H46.6378V57.2104H46.5466V57.1192H46.3648V57.028H46.2736V56.9368H46.0912V56.8456H46V56.7544H45.8176V56.6632H45.6352V56.572H45.4534V56.4808H45.271V56.3896H44.9974V56.299H44.7238V56.2078H44.542V56.1166H44.2684V56.0254H43.8124V55.9342H43.4482V55.843H42.901V55.7518H42.0808V55.6606H41.9896V55.7518H40.3492V55.843H39.8026V55.9342H39.3466V56.0254H39.0736V56.1166H38.8V56.2078H38.4352V56.299H38.1622V56.3896H37.9798V56.4808H37.7974V56.572H37.615V56.6632H37.342V56.7544H37.1596V56.8456H36.9772V56.9368H36.7948V57.028H36.6124V57.1192H36.5218V57.2104H36.3394V57.301H36.2482V57.3922H36.0658V57.4834H35.9746V57.5746H35.7922V57.6658H35.701V57.757H35.6104V57.8482H35.428V57.9394H35.3368V58.0306H35.1544V58.1218H35.0632V58.2124H34.972V58.3036H34.8808V58.3948H34.7896V58.486H34.699V58.5772H34.5166V58.6684H34.4254V58.7596H34.3342V58.8508H34.243V58.942H34.1518V59.0332H34.0606V59.1238H33.9694V59.215H33.8782V59.3062H33.7876V59.3974H33.6964V59.4886H33.6052V59.5798H33.514V59.671H33.4228V59.7622H33.3316V59.8534H33.2404V59.9446H33.1492V60.1264H33.058V60.2176H32.9668V60.3088H32.8762V60.4H32.785V60.4912H32.6938V60.6736H32.6026V60.7648H32.5114V60.8554H32.4202V60.9466H32.329V61.0378H32.2378V61.129H32.1466V61.3114H32.0554V61.4026H31.9648V61.585H31.8736V61.6762H31.7824V61.858H31.6912V61.9492H31.6V62.1316H31.5088V62.2228H31.4176V62.4052H31.3264V62.4964H31.2352V62.6782H31.1446V62.7694H31.0534V62.9518H30.9622V63.043H30.871V63.2254H30.7798V63.3166H30.6886V63.499H30.5974V63.6808H30.5062V63.8632H30.415V64.0456H30.3238V64.228H30.2332V64.4104H30.142V64.5922H30.0508V64.6834H29.9596V64.8658H29.8684V65.0482H29.7772V65.2306H29.686V65.4124H29.5948V65.5948H29.5036V65.7772H29.4124V65.9596H29.3218V66.142H29.2306V66.3238H29.1394V66.5974H29.0482V66.7798H28.957V66.9622H28.8658V67.2352H28.7746V67.4176H28.6834V67.6H28.5922V67.8736H28.501V68.0554H28.4104V68.2378H28.3192V68.5114H28.228V68.6938H28.1368V68.9668H28.0456V69.2404H27.9544V69.514H27.8632V69.7876H27.772V70.1518H27.6808V70.4254H27.5896V70.699H27.499V71.0632H27.4078V71.701H27.3166V72.3394H27.2254V73.0684H27.1342V73.1596H27.2254V74.9824H27.3166V75.3466H27.4078V75.7114H27.499V76.1674H27.5896V76.5316H27.6808V76.714H27.772V76.8964H27.8632V77.1694H27.9544V77.3518H28.0456V77.5342H28.1368V77.7166H28.228V77.899H28.3192V78.0808H28.4104V78.172H28.501V78.3544H28.5922V78.4456H28.6834V78.628H28.7746V78.7192H28.8658V78.8104H28.957V78.9922H29.0482V79.0834H29.1394V79.1746H29.2306V79.357H29.4124V79.4482H29.5036V79.5394H29.5948V79.6306H29.686V79.7218H29.7772V79.8124H29.8684V79.9036H29.9596V79.9948H30.0508V80.086H30.142V80.1772H30.2332V80.2684H30.3238V80.3596H30.5062V80.4508H30.5974V80.542H30.7798V80.6332H30.871V80.7238H31.0534V80.815H31.1446V80.9062H31.3264V80.9974H31.4176V81.0886H31.6V81.1798H31.7824V81.271H31.9648V81.3622H32.1466V81.4534H32.4202V81.5446H32.6938V81.6352H32.9668V81.7264H33.4228V81.8176H33.9694V81.9088H34.8814V82H36.3394V81.9088H37.4332V81.8176H38.071V81.7264H38.6176V81.6352H39.0736V81.5446H39.5296V81.4534H39.8938V81.3622H40.258V81.271H40.6228V81.1798H40.8964V81.0886H41.1694V80.9974H41.5342V80.9062H41.8078V80.815H42.0808V80.7238H42.3544V80.6332H42.628V80.542H42.8104V80.4508H43.0834V80.3596H43.357V80.2684H43.5394V80.1772H43.8124V80.086H43.9948V79.9948H44.2684V79.9036H44.4508V79.8124H44.7238V79.7218H44.9062V79.6306H45.0886V79.5394H45.271V79.4482H45.5446V79.357H45.7264V79.2658H45.9088V79.1746H46.0912V79.0834H46.2736V78.9922H46.4554V78.901H46.6378V78.8104H46.9114V78.7192H47.0938V78.628H47.2762V78.5368H47.458V78.4456H47.6404V78.3544H47.7316V78.2632H47.914V78.172H48.0964V78.0808H48.2782V77.9896H48.4606V77.899H48.643V77.8078H48.8254V77.7166H49.0078V77.6254H49.099V77.5342H49.2808V77.443H49.4632V77.3518H49.6456V77.2606H49.828V77.1694H49.9192V77.0782H50.101V76.9876H50.2834V76.8964H50.4658V76.8052H50.557V76.714H50.7394V76.6228H50.9218V76.5316H51.0124V76.4404H51.1948V76.3492H51.3772V76.258H51.4684V76.1668H51.6508V76.0762H51.8332V75.985H51.9238V75.8938H52.1062V75.8026H52.1974V75.7114H52.3798V75.6202H52.5622V75.529H52.6534V75.4378H52.8352V75.3466H52.9264V75.2554H53.1088V75.1648H53.2912V75.0736H53.3824V74.9824H53.5648V74.8912H53.6554V74.8H53.8378V74.7088H53.929V74.6176H54.1114V74.5264H54.2026V74.4352H54.385V74.3446H54.4762V74.2534H54.658V74.1622H54.7492V74.071H54.9316V73.9798H55.0228V73.8886H55.2052V73.7974H55.2964V73.7062H55.3876V73.615H55.5694V73.5238H55.6606V73.4332H55.843V73.342H55.9342V73.2508H56.1166V73.1596H56.2078V73.0684H56.3896V72.9772H56.4808V72.886H56.572V72.7948H56.7544V72.7036H56.8456V72.6124H56.9368V72.5218H57.1192V72.4306H57.2104V72.3394H57.3922V72.2482H57.4834V72.157H57.5746V72.0658H57.757V71.9746H57.8482V71.8834H57.9394V71.7922H58.1218V71.701H58.2124V71.6104H58.3948V71.5192H58.486V71.428H58.5772V71.3368H58.7596V71.2456H58.8508V71.1544H58.942V71.0632H59.1238V70.972H59.215V70.8808H59.3062V70.7896H59.3974V70.699H59.5798V70.6078H59.671V70.5166H59.7622V70.4254H59.9446V70.3342H60.0352V70.243H60.1264V70.1518H60.3088V70.0606H60.4V69.9694H60.4912V69.8782H60.5824V69.7876H60.7648V69.6964H60.8554V69.6052H60.9466V69.514H61.129V69.4228H61.2202V69.3316H61.3114V69.2404H61.4026V69.1492H61.585V69.058H61.6762V68.9668H61.7668V68.8762H61.858V68.785H62.0404V68.6938H62.1316V68.6026H62.2228V68.5114H62.314V68.4202H62.4964V68.329H62.5876V68.2378H62.6782V68.1466H62.7694V68.0554H62.8606V67.9648H63.043V67.8736H63.1342V67.7824H63.2254V67.6912H63.3166V67.6H63.499V67.5088H63.5896V67.4176H63.6808V67.3264H63.772V67.2352H63.8632V67.1446H64.0456V67.0534H64.1368V66.9622H64.228V66.871H64.3192V66.7798H64.4104V66.6886H64.5922V66.5974H64.6834V66.5062H64.7746V66.415H64.8658V66.3238H64.957V66.2332H65.0482V66.142H65.2306V66.0508H65.3218V65.9596H65.4124V65.8684H65.5036V65.7772H65.5948V65.686H65.686V65.5948H65.8684V65.5036H65.9596V65.4124H66.0508V65.3218H66.142V65.2306H66.2332V65.1394H66.3238V65.0482H66.415V64.957H66.5974V64.8658H66.6886V64.7746H66.7798V64.6834H66.871V64.5922H66.9622V64.501H67.0534V64.4104H67.1446V64.3192H67.2352V64.228H67.3264V64.1368H67.5088V64.0456H67.6V63.9544H67.6912V63.8632H67.7824V63.772H67.8736V63.6808H67.9648V63.5896H68.0554V63.499H68.1466V63.4078H68.2378V63.3166H68.329V63.2254H68.4202V63.1342H68.5114V63.043H68.6026V62.9518H68.6938V62.8606H68.785V62.7694H68.8762V62.6782H68.9668V62.5876H69.058V62.4964H69.1492V62.4052H69.2404V62.314H69.3316V62.2228H69.4228V62.1316H69.514V62.0404H69.6052V61.9492H69.6964V61.858H69.7876V61.7668H69.8782V61.6762H69.9694V61.585H70.0606V61.4938H70.1518V61.4026H70.243V61.3114H70.3342V61.2202H70.4254V61.129H70.5166V61.0378H70.6078V60.9466H70.699V60.8554H70.7896V60.6736H70.8808V60.5824H70.972V60.4912H71.0632V60.4H71.1544V60.3088H71.2456V60.2176H71.3368V60.1264H71.428V60.0352H71.5192V59.9446H71.6104V59.8534H71.701V59.671H71.7922V59.5798H71.8834V59.4886H71.9746V59.3974H72.0658V59.3062H72.157V59.215H72.2482V59.0332H72.3394V58.942H72.4306V58.8508H72.5218V58.7596H72.6124V58.6684H72.7036V58.5772H72.7948V58.3948H72.886V58.3036H72.9772V58.2124H73.0684V58.1218H73.1596V58.0306H73.2508V57.8482H73.342V57.757H73.4332V57.6658H73.5238V57.4834H73.615V57.3922H73.7062V57.301H73.7974V57.2104H73.8886V57.028H73.9798V56.9368H74.071V56.8456H74.1622V56.7544H74.2534V56.572H74.3446V56.4808H74.4352V56.3896H74.5264V56.2078H74.6176V56.1166H74.7088V56.0254H74.8V55.843H74.8912V55.7518H74.9824V55.6606H75.0736V55.4782H75.1648V55.3876H75.2554V55.2052H75.3466V55.114H75.4378V55.0228H75.529V54.8404H75.6202V54.7492H75.7114V54.5668H75.8026V54.4762H75.8938V54.385H75.985V54.2026H76.0762V54.1114H76.1668V53.929H76.258V53.8378H76.3492V53.6554H76.4404V53.5648H76.5316V53.3824H76.6228V53.2912H76.714V53.1088H76.8052V53.0176H76.8964V52.8352H76.9876V52.7446H77.0782V52.5622H77.1694V52.3798H77.2606V52.2886H77.3518V52.1062H77.443V52.015H77.5342V51.8332H77.6254V51.6508H77.7166V51.5596H77.8078V51.3772H77.899V51.1948H77.9896V51.1036H78.0808V50.9218H78.172V50.7394H78.2632V50.6482H78.3544V50.4658H78.4456V50.2834H78.5368V50.101H78.628V50.0104H78.7192V49.828H78.8104V49.6456H78.901V49.4632H78.9922V49.2808H79.0834V49.099H79.1746V48.9166H79.2658V48.8254H79.357V48.643H79.4482V48.4606H79.5394V48.2782H79.6306V48.0964H79.7218V47.914H79.8124V47.7316H79.9036V47.5492H79.9948V47.3668H80.086V47.185H80.1772V46.9114H80.2684V46.729H80.3596V46.5466H80.4508V46.3648H80.542V46.1824H80.6332V46H80.7238V45.8176H80.815V45.5446H80.9062V45.3622H80.9974V45.0886H81.0886V44.9062H81.1798V44.6332H81.271V44.4508H81.3622V44.1772H81.4534V43.9948H81.5446V43.7218H81.6352V43.5394H81.7264V43.2658H81.8176V42.9922H81.9088V42.7192H82V42.4456H82.0912V42.172H82.1824V41.899H82.2736V41.6254H82.3648V41.3518H82.4554V41.0782H82.5466V40.714H82.6378V40.3492H82.729V40.0762H82.8202V39.7114H82.9114V39.3466H83.0026V38.9824H83.0938V38.5264H83.185V38.0704H83.2762V37.615H83.3668V37.159H83.458V36.613H83.5492V35.8834H83.6404V35.1544H83.7316V33.9694H83.8228V31.1446H83.7316V29.4124H83.6404V28.684H83.5492V28.1374H83.458V27.5902H83.3668V27.0442H83.2762V26.497H83.185V26.041H83.0938V25.7674H83.0026V25.4944H82.9114V25.1296H82.8202V24.856H82.729V24.583H82.6378V24.2182H82.5466V23.9452H82.4554V23.6716H82.3648V23.398H82.2736V23.2156H82.1824V23.0338H82.0912V22.7602H82V22.5778H81.9088V22.3954H81.8176V22.213H81.7264V21.94H81.6352V21.7576H81.5446V21.5752H81.4534V21.3928H81.3622V21.211H81.271V21.0286H81.1798V20.8462H81.0886V20.755H80.9974V20.5726H80.9062V20.4814H80.815V20.2996H80.7238V20.1172H80.6332V20.026H80.542V19.8436H80.4508V19.6612H80.3596V19.57H80.2684V19.3882H80.1772V19.297H80.086V19.1146H79.9948V19.0234H79.9036V18.9322H79.8124V18.7498H79.7218V18.6586H79.6306V18.5674H79.5394V18.4768H79.4482V18.2944H79.357V18.2032H79.2658V18.112H79.1746V18.0208H79.0834V17.8384H78.9922V17.7472H78.901V17.656H78.8104V17.5654H78.7192V17.4742H78.628V17.2918H78.5368V17.2H78.4456V17.1088H78.3544V17.0176H78.2632V16.9264H78.172V16.8352H78.0808V16.7446H77.899V16.6534H77.8078V16.5622H77.7166V16.471H77.6254V16.3798H77.5342V16.2886H77.443V16.1974H77.3518V16.1062H77.2606V16.015H77.1694V15.9238H77.0782V15.8332H76.9876V15.742H76.8964V15.6508H76.8052V15.5596H76.6228V15.4684H76.5316V15.3772H76.4404V15.286H76.258V15.1948H76.1668V15.1036H76.0762V15.0124H75.8938V14.9218H75.8026V14.83H75.7114V14.7388H75.529V14.6476H75.4378V14.5564H75.3466V14.4652H75.2554V14.374H75.0736V14.284H74.8912V14.1928H74.8V14.1016H74.6176V14.011H74.4352V13.9198H74.3446V13.828H74.1622V13.7368H74.071V13.6456H73.8886V13.5544H73.7062V13.4632H73.615V13.372H73.4332V13.2808H73.2508V13.1896H73.0684V13.099H72.886V13.0078H72.7036V12.916H72.5218V12.8248H72.3394V12.7336H72.157V12.6424H71.9746V12.5512H71.7922V12.46H71.6104V12.37H71.428V12.2788H71.1544V12.1882H70.972V12.097H70.699V12.0058H70.5166V11.914H70.243V11.8228H69.9694V11.7316H69.7876V11.6404H69.514V11.5492H69.2404V11.458H68.9668V11.3668H68.6938V11.2762H68.329V11.185H68.0554V11.0938H67.7824V11.002H67.4176V10.9108H67.0534V10.8196H66.6886V10.7284H66.2326V10.6372H65.8684V10.5466H65.4124V10.456H64.8658V10.3648H64.3192V10.2736H63.772V10.1824H62.9518V10.0912H62.1316V10H57.6658V10Z" fill="#E20010"/>
</svg>
