<svg width="161" height="92" viewBox="0 0 161 92" fill="none" xmlns="http://www.w3.org/2000/svg">
<path d="M54.1798 36.268C54.1798 37.7318 54.3381 38.9186 54.615 39.7889C54.9315 40.6592 55.3271 41.6087 55.8809 42.6373C56.0787 42.9537 56.1579 43.2702 56.1579 43.5471C56.1579 43.9428 55.9205 44.3384 55.4062 44.734L52.9139 46.3955C52.5579 46.6329 52.2018 46.7515 51.8853 46.7515C51.4897 46.7515 51.0941 46.5537 50.6985 46.1977C50.1447 45.6043 49.6699 44.9713 49.2743 44.3384C48.8787 43.6658 48.4831 42.9142 48.048 42.0043C44.9623 45.6439 41.0853 47.4636 36.4172 47.4636C33.0941 47.4636 30.4436 46.5142 28.5051 44.6153C26.5666 42.7164 25.5776 40.1845 25.5776 37.0197C25.5776 33.657 26.7645 30.9274 29.1776 28.8702C31.5908 26.8131 34.7952 25.7845 38.8699 25.7845C40.215 25.7845 41.5996 25.9032 43.0634 26.101C44.5271 26.2988 46.0304 26.6153 47.6128 26.9713V24.0834C47.6128 21.0768 46.9798 18.9801 45.7535 17.7537C44.4875 16.5274 42.3513 15.934 39.3051 15.934C37.9205 15.934 36.4963 16.0922 35.0326 16.4482C33.5688 16.8043 32.1447 17.2395 30.7601 17.7933C30.1271 18.0702 29.6524 18.2285 29.3754 18.3076C29.0985 18.3867 28.9007 18.4263 28.7425 18.4263C28.1886 18.4263 27.9117 18.0307 27.9117 17.1999V15.2614C27.9117 14.6285 27.9908 14.1537 28.1886 13.8768C28.3864 13.5999 28.7425 13.323 29.2963 13.046C30.6809 12.334 32.3425 11.7406 34.2809 11.2658C36.2194 10.7515 38.2765 10.5142 40.4524 10.5142C45.1601 10.5142 48.6018 11.5823 50.8172 13.7186C52.993 15.8548 54.1007 19.0988 54.1007 23.4504V36.268H54.1798ZM38.1183 42.2812C39.4238 42.2812 40.7688 42.0439 42.193 41.5691C43.6172 41.0944 44.8831 40.2241 45.9513 39.0373C46.5842 38.2856 47.059 37.4548 47.2963 36.5054C47.5337 35.5559 47.6919 34.4087 47.6919 33.0636V31.4021C46.5447 31.1252 45.3183 30.8878 44.0524 30.7296C42.7864 30.5713 41.5601 30.4922 40.3337 30.4922C37.6831 30.4922 35.7447 31.0065 34.4392 32.0746C33.1337 33.1428 32.5007 34.646 32.5007 36.6241C32.5007 38.4834 32.9754 39.868 33.9645 40.8175C34.9139 41.8065 36.2985 42.2812 38.1183 42.2812ZM69.8853 46.5537C69.1732 46.5537 68.6985 46.4351 68.382 46.1581C68.0656 45.9208 67.7886 45.3669 67.5513 44.6153L58.2546 14.0351C58.0172 13.2438 57.8985 12.7296 57.8985 12.4526C57.8985 11.8197 58.215 11.4636 58.848 11.4636H62.7249C63.4765 11.4636 63.9908 11.5823 64.2678 11.8592C64.5842 12.0966 64.8216 12.6504 65.059 13.4021L71.7051 39.5911L77.8765 13.4021C78.0743 12.6109 78.3117 12.0966 78.6282 11.8592C78.9447 11.6219 79.4985 11.4636 80.2106 11.4636H83.3754C84.1271 11.4636 84.6414 11.5823 84.9579 11.8592C85.2743 12.0966 85.5513 12.6504 85.7095 13.4021L91.9601 39.9076L98.804 13.4021C99.0414 12.6109 99.3183 12.0966 99.5952 11.8592C99.9117 11.6219 100.426 11.4636 101.138 11.4636H104.817C105.45 11.4636 105.806 11.7801 105.806 12.4526C105.806 12.6504 105.767 12.8482 105.727 13.0856C105.688 13.323 105.608 13.6395 105.45 14.0746L95.9161 44.6548C95.6787 45.446 95.4018 45.9603 95.0853 46.1977C94.7689 46.4351 94.2546 46.5933 93.582 46.5933H90.1798C89.4282 46.5933 88.9139 46.4746 88.5974 46.1977C88.2809 45.9208 88.004 45.4065 87.8458 44.6153L81.7139 19.0988L75.6216 44.5757C75.4238 45.3669 75.1864 45.8812 74.8699 46.1581C74.5535 46.4351 73.9996 46.5537 73.2875 46.5537H69.8853ZM120.721 47.6219C118.663 47.6219 116.606 47.3845 114.628 46.9098C112.65 46.4351 111.107 45.9208 110.079 45.3274C109.446 44.9713 109.011 44.5757 108.852 44.2197C108.694 43.8636 108.615 43.468 108.615 43.112V41.0944C108.615 40.2636 108.931 39.868 109.525 39.868C109.762 39.868 110 39.9076 110.237 39.9867C110.474 40.0658 110.83 40.2241 111.226 40.3823C112.571 40.9757 114.035 41.4504 115.578 41.7669C117.16 42.0834 118.703 42.2417 120.285 42.2417C122.778 42.2417 124.716 41.8065 126.061 40.9362C127.406 40.0658 128.118 38.7999 128.118 37.1779C128.118 36.0702 127.762 35.1603 127.05 34.4087C126.338 33.657 124.993 32.9845 123.055 32.3515L117.318 30.5713C114.43 29.6614 112.294 28.3164 110.989 26.5362C109.683 24.7955 109.011 22.857 109.011 20.7999C109.011 19.1384 109.367 17.6746 110.079 16.4087C110.791 15.1428 111.74 14.0351 112.927 13.1647C114.114 12.2548 115.459 11.5823 117.041 11.1076C118.624 10.6329 120.285 10.4351 122.026 10.4351C122.896 10.4351 123.806 10.4746 124.677 10.5933C125.586 10.712 126.417 10.8702 127.248 11.0285C128.039 11.2263 128.791 11.4241 129.503 11.6614C130.215 11.8988 130.769 12.1362 131.164 12.3735C131.718 12.69 132.114 13.0065 132.351 13.3625C132.589 13.679 132.707 14.1142 132.707 14.668V16.5274C132.707 17.3581 132.391 17.7933 131.797 17.7933C131.481 17.7933 130.967 17.6351 130.294 17.3186C128.039 16.29 125.507 15.7757 122.699 15.7757C120.444 15.7757 118.663 16.1318 117.437 16.8834C116.211 17.6351 115.578 18.7823 115.578 20.4043C115.578 21.512 115.973 22.4614 116.764 23.2131C117.556 23.9647 119.019 24.7164 121.116 25.3889L126.734 27.1691C129.582 28.079 131.639 29.3449 132.866 30.9669C134.092 32.5889 134.685 34.4482 134.685 36.5054C134.685 38.2065 134.329 39.7493 133.657 41.0944C132.945 42.4395 131.995 43.6263 130.769 44.5757C129.542 45.5647 128.079 46.2768 126.378 46.7911C124.597 47.3449 122.738 47.6219 120.721 47.6219Z" fill="#252F3E"/>
<path fill-rule="evenodd" clip-rule="evenodd" d="M128.198 66.8482C115.182 76.4614 96.2723 81.5647 80.013 81.5647C57.2262 81.5647 36.6943 73.1383 21.1866 59.1339C19.9602 58.0262 21.0679 56.5229 22.5317 57.3932C39.3053 67.1251 59.9954 73.0196 81.3976 73.0196C95.8372 73.0196 111.701 70.013 126.299 63.8416C128.475 62.8526 130.334 65.2658 128.198 66.8482Z" fill="#FF9900"/>
<path fill-rule="evenodd" clip-rule="evenodd" d="M133.617 60.6769C131.956 58.5406 122.619 59.6483 118.386 60.1626C117.12 60.3208 116.923 59.2131 118.07 58.3824C125.507 53.1604 137.731 54.6637 139.156 56.4043C140.58 58.1846 138.76 70.4087 131.797 76.2637C130.729 77.1736 129.701 76.6988 130.175 75.512C131.758 71.5956 135.279 62.7736 133.617 60.6769Z" fill="#FF9900"/>
</svg>
