<svg width="22" height="23" viewBox="0 0 22 23" fill="none" xmlns="http://www.w3.org/2000/svg">
<path d="M7.3335 2.33337V5.08337" stroke="#697077" stroke-width="1.5" stroke-miterlimit="10" stroke-linecap="round" stroke-linejoin="round"/>
<path d="M14.6665 2.33337V5.08337" stroke="#697077" stroke-width="1.5" stroke-miterlimit="10" stroke-linecap="round" stroke-linejoin="round"/>
<path d="M3.2085 8.83252H18.7918" stroke="#697077" stroke-width="1.5" stroke-miterlimit="10" stroke-linecap="round" stroke-linejoin="round"/>
<path d="M20.1668 17.9167C20.1668 18.6042 19.9743 19.255 19.6352 19.805C19.0027 20.8683 17.8385 21.5833 16.5002 21.5833C15.5743 21.5833 14.731 21.2442 14.0893 20.6667C13.8052 20.4283 13.5577 20.135 13.3652 19.805C13.026 19.255 12.8335 18.6042 12.8335 17.9167C12.8335 15.8908 14.4743 14.25 16.5002 14.25C17.6002 14.25 18.581 14.7358 19.2502 15.4967C19.8185 16.1475 20.1668 16.9908 20.1668 17.9167Z" stroke="#697077" stroke-width="1.5" stroke-miterlimit="10" stroke-linecap="round" stroke-linejoin="round"/>
<path d="M15.0698 17.9165L15.9773 18.824L17.9298 17.0182" stroke="#697077" stroke-linecap="round" stroke-linejoin="round"/>
<path d="M19.25 8.29171V15.4967C18.5808 14.7359 17.6 14.25 16.5 14.25C14.4742 14.25 12.8333 15.8909 12.8333 17.9167C12.8333 18.6042 13.0258 19.255 13.365 19.805C13.5575 20.135 13.805 20.4284 14.0892 20.6667H7.33333C4.125 20.6667 2.75 18.8334 2.75 16.0834V8.29171C2.75 5.54171 4.125 3.70837 7.33333 3.70837H14.6667C17.875 3.70837 19.25 5.54171 19.25 8.29171Z" stroke="#697077" stroke-width="1.5" stroke-miterlimit="10" stroke-linecap="round" stroke-linejoin="round"/>
<path d="M10.9958 13.0583H11.004" stroke="#697077" stroke-width="1.5" stroke-linecap="round" stroke-linejoin="round"/>
<path d="M7.6032 13.0583H7.61144" stroke="#697077" stroke-width="1.5" stroke-linecap="round" stroke-linejoin="round"/>
<path d="M7.6032 15.8083H7.61144" stroke="#697077" stroke-width="1.5" stroke-linecap="round" stroke-linejoin="round"/>
</svg>
