<svg width="187" height="92" viewBox="0 0 187 92" fill="none" xmlns="http://www.w3.org/2000/svg">
<g clip-path="url(#clip0_2413_2509)">
<path d="M42.8364 27.6777L43.3606 24.7292H30.6438V24.7337C29.3096 24.7337 28.0409 25.7999 27.7788 27.1282L22.8708 54.9621H22.8769C22.6267 56.3083 23.5083 57.4042 24.8603 57.4102H38.7386L39.2568 54.4677H27.3322L29.5361 41.9713H39.227L39.7333 39.0766H30.0423L32.0556 27.6762L42.8364 27.6777Z" fill="#00577A"/>
<path d="M49.1024 57.8941C43.4975 57.8941 40.2513 52.861 41.7047 44.5936C43.1878 36.1833 48.1792 31.3408 53.8794 31.3408C57.0124 31.3408 58.5492 32.3415 59.2342 33.0503L57.8106 35.4745C57.1494 34.9027 56.1249 34.2415 54.2249 34.2415C49.567 34.2415 47.0177 38.4646 45.9635 44.4507C44.8794 50.5798 46.3208 54.8087 50.4545 54.8087C52.2116 54.8087 53.5042 54.237 54.5703 53.5758L55.1541 56.1847C53.9985 57.09 51.9555 57.8941 49.1024 57.8941" fill="#00577A"/>
<path d="M70.9503 34.0033C66.0602 34.0033 64.1422 39.4652 63.2249 44.6413C62.3196 49.8173 62.4506 54.9993 67.2455 54.9993C72.1416 54.9993 73.9642 49.7697 74.8636 44.6413C75.7749 39.5129 75.8404 34.0033 70.9503 34.0033M66.7392 57.8941C59.7524 57.8941 57.7273 52.1463 59.0496 44.6413C60.3957 36.9934 64.4817 31.3408 71.3732 31.3408C78.4017 31.3408 80.397 36.9934 79.0449 44.6413C77.7226 52.1463 73.6723 57.8941 66.7392 57.8941" fill="#00577A"/>
<path d="M117.815 42.8842C111.215 43.6883 107.123 45.0642 106.212 50.2462C105.556 53.951 107.564 55.4699 111.37 55.4699C112.978 55.4699 114.604 55.1898 115.748 54.6181L117.815 42.8842ZM110.607 57.8941C103.96 57.8941 101.381 54.9994 102.203 50.3415C103.4 43.5454 110.113 41.5559 118.196 40.7458L118.47 39.1793C119.167 35.2363 116.993 34.0986 113.711 34.0986C111.245 34.0986 108.803 34.998 107.254 35.7128L106.688 33.2409C108.302 32.4308 111.346 31.3408 114.86 31.3408C119.613 31.3408 123.437 33.3838 122.329 39.6499L119.429 56.0894C117.29 57.1853 114.169 57.8941 110.607 57.8941" fill="#00577A"/>
<path d="M137.059 57.4176L140.3 39.0364C140.723 36.6598 140.181 34.051 135.815 34.051C133.438 34.051 132.235 34.3786 130.811 34.9504L126.844 57.4176H122.669L126.946 33.1456C129.423 32.0556 132.539 31.3408 136.619 31.3408C143.748 31.3408 145.142 35.2839 144.499 38.9411L141.241 57.4176H137.059Z" fill="#00577A"/>
<path d="M162.541 63.3025H21.4058L21.5367 62.4626H162.66L162.541 63.3025Z" fill="#BDCF00"/>
<path d="M97.3192 44.3077C96.1756 50.7703 93.3106 55.1899 88.0393 55.1899C86.7051 55.1899 85.4066 55.0469 84.537 54.5705L87.9976 34.9503C89.302 34.2892 90.4516 33.9556 92.3517 33.9556C97.1942 33.9556 98.308 38.7087 97.3192 44.3077ZM93.8288 31.4837C91.3153 31.4837 89.7964 32.0019 88.3967 32.6691L90.6005 20.1846L85.9963 22.8471L80.1353 56.0893C81.4814 57.09 83.995 57.8941 87.4675 57.8941C95.0678 57.8941 100.077 52.3845 101.524 44.1648C102.888 36.4215 99.7197 31.4837 93.8288 31.4837Z" fill="#00577A"/>
<path d="M166.639 31.8173H162.273L151.057 43.6882H150.962L153.821 27.5109C156.662 11.4884 139.371 8.10514 121.317 10.8689C109.047 12.7511 98.2065 17.6412 98.2065 17.6412C98.2065 17.6412 112.359 12.6915 124.813 11.9827C140.538 11.0893 152.862 13.4718 149.264 30.1317L144.451 57.4235H148.537L150.866 44.2124H150.962L158.419 57.4235H163.172L154.839 43.7835L166.639 31.8173Z" fill="#00577A"/>
<path d="M23.7167 71.677L21.9239 81.8385H20.4289L22.2217 71.677H20L20.1787 70.6704H26.1172L25.9385 71.677H23.7167Z" fill="#00577A"/>
<path d="M30.7036 81.8385L31.7936 75.638C31.9544 74.7326 31.7102 73.9166 30.3164 73.9166C29.6672 73.9166 29.1252 74.0298 28.5355 74.3514L27.2132 81.8385H25.7837L28.0352 69.0979H29.4587L28.6785 73.5473C29.4706 73.1721 30.1378 73.0112 30.781 73.0112C33.0087 73.0112 33.4495 74.3514 33.235 75.5843L32.1331 81.8385H30.7036Z" fill="#00577A"/>
<path d="M38.4409 73.851C37.1723 73.851 36.0525 74.8755 35.6653 77.2461L39.9658 76.6087C40.3112 74.6253 39.6858 73.851 38.4409 73.851ZM35.5819 78.0085C35.3913 79.986 36.1478 80.9629 37.7202 80.9629C38.709 80.9629 39.4654 80.7186 39.9658 80.4565L40.1742 81.3976C39.5846 81.7192 38.6077 81.9993 37.4224 81.9993C35.1352 81.9993 33.7831 80.5518 34.3311 77.4367C34.8612 74.4645 36.5885 72.9277 38.6494 72.9277C40.746 72.9277 41.7705 74.2917 41.2225 77.2103L35.5819 78.0085Z" fill="#00577A"/>
<path d="M52.0392 71.403C51.4376 71.403 50.979 71.5162 50.7348 71.6113L49.9128 76.287L50.3893 76.3346C52.7063 76.5671 53.7487 75.4887 54.0405 73.8687C54.3265 72.2485 53.7427 71.4027 52.0392 71.4027M50.2463 77.2459L49.752 77.1983L48.93 81.8383H47.4707L49.3589 71.1229C50.0438 70.7654 51.0743 70.5034 52.2596 70.5034C54.8923 70.5034 55.8274 71.921 55.482 73.8807C55.1305 75.8641 53.4866 77.5736 50.2463 77.246" fill="#00577A"/>
<path d="M60.7415 76.8708C58.49 77.1509 57.0903 77.6154 56.7805 79.3844C56.5542 80.6471 57.2451 81.1713 58.5436 81.1713C59.0916 81.1713 59.6455 81.0701 60.0386 80.8795L60.7415 76.8708ZM58.2815 81.9993C56.0122 81.9993 55.1306 81.0045 55.4106 79.4142C55.8215 77.0972 58.1147 76.4181 60.8725 76.1382L60.9678 75.6021C61.2061 74.256 60.4615 73.8688 59.3418 73.8688C58.5019 73.8688 57.668 74.1727 57.1379 74.4168L56.9413 73.571C57.4953 73.297 58.5376 72.9277 59.7349 72.9277C61.3609 72.9277 62.6654 73.6246 62.2842 75.7689L61.2954 81.3798C60.5628 81.761 59.5026 81.9993 58.2815 81.9993" fill="#00577A"/>
<path d="M68.0796 81.8384L69.1875 75.5545C69.3303 74.7445 69.146 73.851 67.6507 73.851C66.8407 73.851 66.4297 73.9643 65.9413 74.1609L64.5892 81.8386H63.1597L64.6249 73.5474C65.4707 73.1722 66.531 72.928 67.9307 72.928C70.3668 72.928 70.8433 74.2741 70.623 75.5249L69.5091 81.8386L68.0796 81.8384Z" fill="#00577A"/>
<path d="M82.035 73.3627C81.9159 72.4871 81.9516 72.0165 81.9516 72.0165H81.9157C81.9157 72.0165 81.7728 72.4871 81.3379 73.3627L79.2592 77.6035H82.5888L82.035 73.3627ZM83.1369 81.8385L82.6723 78.4911H78.8424L77.1687 81.8385H75.8047L81.5525 70.6704H82.8868L84.6796 81.8385H83.1369Z" fill="#00577A"/>
<path d="M89.2304 73.9761L87.8486 81.8385H86.4131L87.8009 73.9761H86.7883L86.9492 73.0886H87.9558L88.1762 71.8556C88.48 70.1343 89.7129 69.0145 91.613 69.0979L91.4581 70.0033C90.5885 70.0508 89.8499 70.4618 89.6295 71.6948L89.3853 73.0886H90.9101L90.7553 73.9761H89.2304Z" fill="#00577A"/>
<path d="M95.7583 74.0298C95.0793 73.8154 94.2573 73.8806 93.7391 74.1906L92.387 81.8385H90.9575L92.4168 73.5592C93.3579 73.1244 94.2216 72.8921 96.2884 72.9397L95.7583 74.0298Z" fill="#00577A"/>
<path d="M98.838 71.4029C98.3674 71.4029 98.0517 71.0455 98.1292 70.6227C98.2067 70.1819 98.6414 69.8245 99.112 69.8245C99.5706 69.8245 99.8803 70.1819 99.8029 70.6227C99.7254 71.0454 99.2907 71.4029 98.838 71.4029ZM96.2827 81.8384L97.8254 73.0886H99.2549L97.7122 81.8384H96.2827Z" fill="#00577A"/>
<path d="M102.876 81.9993C100.958 81.9993 99.8506 80.2778 100.351 77.4545C100.851 74.5776 102.561 72.9277 104.508 72.9277C105.581 72.9277 106.105 73.267 106.337 73.5115L105.849 74.3334C105.628 74.1428 105.277 73.9163 104.628 73.9163C103.031 73.9163 102.162 75.3637 101.798 77.4067C101.435 79.4974 101.923 80.9448 103.335 80.9448C103.937 80.9448 104.377 80.7481 104.747 80.5277L104.943 81.4152C104.544 81.719 103.847 81.9989 102.876 81.9989" fill="#00577A"/>
<path d="M111.728 76.8708C109.476 77.1509 108.076 77.6154 107.767 79.3844C107.54 80.6471 108.225 81.1713 109.524 81.1713C110.078 81.1713 110.638 81.0701 111.025 80.8795L111.728 76.8708ZM109.268 81.9993C106.998 81.9993 106.111 81.0045 106.397 79.4142C106.802 77.0972 109.101 76.4181 111.859 76.1382L111.954 75.6021C112.192 74.256 111.448 73.8688 110.328 73.8688C109.482 73.8688 108.648 74.1727 108.124 74.4168L107.927 73.571C108.481 73.297 109.518 72.9277 110.721 72.9277C112.347 72.9277 113.651 73.6246 113.276 75.7689L112.281 81.3798C111.549 81.761 110.489 81.9993 109.268 81.9993" fill="#00577A"/>
<path d="M119.072 81.8384L120.174 75.5545C120.317 74.7445 120.132 73.851 118.643 73.851C117.827 73.851 117.416 73.9643 116.928 74.1609L115.575 81.8386H114.152L115.611 73.5474C116.457 73.1722 117.523 72.928 118.917 72.928C121.353 72.928 121.83 74.2741 121.609 75.5249L120.495 81.8386L119.072 81.8384Z" fill="#00577A"/>
<path d="M132.467 71.3673C131.878 71.3673 131.425 71.4508 130.948 71.6116L130.246 75.5844H130.972C133.277 75.5844 134.189 74.8756 134.439 73.4163C134.689 72.0464 133.992 71.3673 132.467 71.3673M130.865 76.3349H130.115L129.334 80.7843C129.721 80.9628 130.174 81.0406 130.859 81.0406C132.318 81.0406 133.563 80.4569 133.849 78.8308C134.147 77.0975 133.277 76.3351 130.865 76.3351M130.752 81.9996C129.489 81.9996 128.459 81.7731 127.815 81.3801L129.62 71.1233C130.299 70.7659 131.413 70.5039 132.634 70.5039C135.088 70.5039 136.19 71.6773 135.904 73.2974C135.63 74.8937 134.314 75.7037 133.277 75.9003L133.272 75.9306C134.273 76.1272 135.66 77.1158 135.363 78.8194C134.957 81.059 133.057 82.0001 130.752 82.0001" fill="#00577A"/>
<path d="M141.878 76.8708C139.627 77.1509 138.227 77.6154 137.911 79.3844C137.691 80.6471 138.376 81.1713 139.674 81.1713C140.228 81.1713 140.776 81.0701 141.175 80.8795L141.878 76.8708ZM139.418 81.9993C137.143 81.9993 136.261 81.0045 136.541 79.4142C136.958 77.0972 139.246 76.4181 142.009 76.1382L142.099 75.6021C142.337 74.256 141.598 73.8688 140.479 73.8688C139.633 73.8688 138.799 74.1727 138.269 74.4168L138.078 73.571C138.632 73.297 139.669 72.9277 140.866 72.9277C142.492 72.9277 143.802 73.6246 143.421 75.7689L142.432 81.3798C141.7 81.761 140.633 81.9993 139.418 81.9993" fill="#00577A"/>
<path d="M149.395 81.8384L150.503 75.5545C150.64 74.7445 150.461 73.851 148.966 73.851C148.15 73.851 147.745 73.9643 147.251 74.1609L145.905 81.8386H144.475L145.94 73.5474C146.786 73.1722 147.846 72.928 149.246 72.928C151.676 72.928 152.153 74.2741 151.938 75.5249L150.819 81.8386L149.395 81.8384Z" fill="#00577A"/>
<path d="M157.621 81.8385L155.078 77.3295H155.036L154.244 81.8385H152.85L155.096 69.0979H156.489L155.072 77.1508H155.102L158.943 73.0886H160.427L156.4 77.1806L159.247 81.8385H157.621Z" fill="#00577A"/>
</g>
<defs>
<clipPath id="clip0_2413_2509">
<rect width="146.639" height="72" fill="white" transform="translate(20 10)"/>
</clipPath>
</defs>
</svg>
