<svg width="303" height="92" viewBox="0 0 303 92" fill="none" xmlns="http://www.w3.org/2000/svg">
<g clip-path="url(#clip0_2413_2510)">
<path fill-rule="evenodd" clip-rule="evenodd" d="M106.605 47.6113L107.495 42.5423C107.495 42.5423 100.639 40.3156 95.0591 44.4452V64.7231H100.985V48.2482C103.346 46.3453 106.605 47.6113 106.605 47.6113Z" fill="#03435F"/>
<mask id="mask0_2413_2510" style="mask-type:alpha" maskUnits="userSpaceOnUse" x="95" y="41" width="13" height="24">
<path d="M95.0586 44.445C97.7434 42.4585 100.724 41.9428 103.094 41.9431C105.649 41.9431 107.495 42.5424 107.495 42.5424L106.605 47.6115C106.605 47.6115 103.346 46.3455 100.984 48.2479V64.7229H95.0586V44.445Z" fill="white"/>
</mask>
<g mask="url(#mask0_2413_2510)">
<path fill-rule="evenodd" clip-rule="evenodd" d="M-265.655 127.572L568.828 127.572L568.828 -1054.61H-265.655L-265.655 127.572Z" fill="#03435F"/>
</g>
<mask id="mask1_2413_2510" style="mask-type:alpha" maskUnits="userSpaceOnUse" x="95" y="41" width="13" height="24">
<path d="M95.0586 44.445C97.7434 42.4585 100.723 41.9431 103.094 41.9431C105.649 41.9431 107.495 42.5424 107.495 42.5424L106.605 47.6115C106.605 47.6115 103.346 46.3455 100.984 48.2479V64.7229H95.0586V44.445Z" fill="white"/>
</mask>
<g mask="url(#mask1_2413_2510)">
<path fill-rule="evenodd" clip-rule="evenodd" d="M85.1245 74.6575H117.43V32.0087H85.1245V74.6575Z" fill="#03435F"/>
</g>
<path fill-rule="evenodd" clip-rule="evenodd" d="M55.5186 36.7612L61.4415 35.6453V42.2403H67.3025V47.5144H61.4415V55.3797C61.4415 56.7196 61.6581 57.7832 62.1012 58.5698C62.5391 59.3684 63.4175 59.7642 64.7364 59.7642C65.3814 59.7642 66.0292 59.7023 66.7124 59.5711C67.3764 59.4376 67.9955 59.2662 68.5526 59.0418L69.3907 63.982C68.6737 64.2896 67.8813 64.5566 67.0077 64.7829C66.1313 65.0069 65.0553 65.1238 63.7839 65.1238C62.1677 65.1238 60.8321 64.8882 59.77 64.4207C58.7133 63.9534 57.8637 63.2975 57.2303 62.4606C56.5969 61.6311 56.1515 60.6131 55.9016 59.421C55.647 58.2312 55.5186 56.9173 55.5186 55.4679V36.7612Z" fill="#03435F"/>
<mask id="mask2_2413_2510" style="mask-type:alpha" maskUnits="userSpaceOnUse" x="55" y="35" width="15" height="31">
<path d="M55.519 36.7612L61.442 35.6453V42.2403H67.303V47.5144H61.442V55.3797C61.442 56.7199 61.6586 57.7832 62.1013 58.5698C62.5392 59.3688 63.4176 59.7642 64.7366 59.7642C65.3815 59.7642 66.0289 59.7023 66.7125 59.5711C67.3765 59.4376 67.9959 59.2662 68.5531 59.0422L69.3908 63.982C68.6742 64.29 67.8814 64.557 67.0078 64.7833C66.1314 65.0073 65.0554 65.1238 63.784 65.1238C62.1674 65.1238 60.8322 64.8882 59.7705 64.4207C58.7134 63.9534 57.8634 63.2975 57.2304 62.461C56.597 61.6311 56.152 60.6131 55.9021 59.421C55.6471 58.2312 55.519 56.9176 55.519 55.4679V36.7612Z" fill="white"/>
</mask>
<g mask="url(#mask2_2413_2510)">
<path fill-rule="evenodd" clip-rule="evenodd" d="M-265.654 127.572L568.828 127.572L568.828 -1054.61H-265.654L-265.654 127.572Z" fill="#03435F"/>
<path fill-rule="evenodd" clip-rule="evenodd" d="M45.584 75.0581H79.3245V25.7106H45.584V75.0581Z" fill="#03435F"/>
</g>
<path fill-rule="evenodd" clip-rule="evenodd" d="M116.268 60.1821C117.352 60.1821 118.118 60.0625 118.573 59.8385C119.025 59.6122 119.244 59.1687 119.244 58.5203C119.244 58.0076 118.959 57.5619 118.373 57.1827C117.787 56.7966 116.906 56.3675 115.711 55.8784C114.785 55.5089 113.943 55.1278 113.183 54.7343C112.433 54.3338 111.79 53.8664 111.26 53.3108C110.731 52.7579 110.321 52.0947 110.026 51.3224C109.731 50.5641 109.591 49.6463 109.591 48.5637C109.591 46.4678 110.321 44.806 111.776 43.5876C113.233 42.3742 115.228 41.7544 117.775 41.7544C119.049 41.7544 120.268 41.8759 121.434 42.1215C122.599 42.3599 123.53 42.6319 124.212 42.9058L123.182 47.841C122.491 47.586 121.742 47.362 120.935 47.1666C120.127 46.9665 119.218 46.8613 118.213 46.8613C116.359 46.8613 115.43 47.4192 115.43 48.5231C115.43 48.7781 115.471 49.0048 115.552 49.2026C115.633 49.403 115.79 49.5937 116.023 49.7771C116.268 49.9586 116.588 50.1632 117.002 50.3734C117.413 50.5951 117.937 50.8237 118.573 51.0837C119.865 51.5987 120.939 52.0994 121.787 52.6051C122.637 53.1104 123.303 53.6424 123.796 54.2332C124.286 54.8105 124.634 55.4497 124.829 56.1597C125.025 56.8681 125.127 57.6857 125.127 58.6182C125.127 60.8282 124.351 62.4993 122.806 63.6295C121.253 64.7551 119.058 65.3223 116.223 65.3223C114.371 65.3223 112.828 65.1578 111.597 64.8123C110.362 64.4761 109.51 64.1855 109.034 63.9611L110.026 58.8159C111.029 59.2403 112.071 59.5692 113.124 59.8176C114.19 60.0606 115.228 60.1821 116.268 60.1821Z" fill="#03435F"/>
<mask id="mask3_2413_2510" style="mask-type:alpha" maskUnits="userSpaceOnUse" x="109" y="41" width="17" height="25">
<path d="M111.776 43.588C113.233 42.3742 115.228 41.7544 117.775 41.7544C119.049 41.7544 120.268 41.8759 121.434 42.1215C122.598 42.3599 123.529 42.6315 124.212 42.9058L123.182 47.841C122.491 47.586 121.742 47.362 120.934 47.1666C120.127 46.9661 119.218 46.8617 118.213 46.8617C116.358 46.8617 115.43 47.4188 115.43 48.5231C115.43 48.7781 115.47 49.0048 115.551 49.2026C115.632 49.403 115.79 49.5937 116.023 49.7771C116.268 49.9586 116.587 50.1632 117.001 50.3734C117.413 50.5947 117.937 50.8241 118.573 51.0837C119.865 51.5987 120.939 52.0994 121.786 52.6051C122.636 53.1104 123.303 53.642 123.796 54.2332C124.286 54.8105 124.634 55.4493 124.829 56.1597C125.025 56.8682 125.126 57.6857 125.126 58.6182C125.126 60.8282 124.35 62.4997 122.806 63.6295C121.253 64.7551 119.058 65.3223 116.223 65.3223C114.371 65.3223 112.828 65.1578 111.597 64.8123C110.361 64.4761 109.51 64.1855 109.033 63.9611L110.026 58.8159C111.029 59.2407 112.071 59.5692 113.123 59.8176C114.19 60.0602 115.228 60.1821 116.268 60.1821C117.351 60.1821 118.118 60.0629 118.573 59.8385C119.025 59.6122 119.244 59.1687 119.244 58.5203C119.244 58.0076 118.958 57.5619 118.373 57.1827C117.787 56.7966 116.906 56.3675 115.711 55.8784C114.785 55.5089 113.942 55.1278 113.183 54.7343C112.433 54.3338 111.79 53.8664 111.26 53.3108C110.731 52.7575 110.321 52.0947 110.026 51.3224C109.731 50.5637 109.59 49.6463 109.59 48.5637C109.59 46.4682 110.321 44.8064 111.776 43.588Z" fill="white"/>
</mask>
<g mask="url(#mask3_2413_2510)">
<path fill-rule="evenodd" clip-rule="evenodd" d="M-265.655 127.572L568.828 127.572L568.828 -1054.61H-265.655L-265.655 127.572Z" fill="#03435F"/>
<path fill-rule="evenodd" clip-rule="evenodd" d="M99.0991 75.2568H135.061V31.8199H99.0991V75.2568Z" fill="#03435F"/>
</g>
<path fill-rule="evenodd" clip-rule="evenodd" d="M143.382 51.8815C142.851 54.037 142.291 56.1828 141.694 58.3047C141.099 60.4339 140.465 62.5751 139.811 64.7302H135.2C134.721 63.5381 134.2 62.122 133.643 60.4791C133.08 58.8293 132.507 57.0387 131.905 55.0909C131.309 53.1498 130.7 51.0949 130.076 48.9204C129.45 46.7556 128.843 44.5668 128.262 42.3517H134.504C134.711 43.3697 134.947 44.4882 135.202 45.692C135.454 46.8983 135.721 48.1407 135.999 49.4187C136.278 50.6921 136.575 51.972 136.88 53.2643C137.187 54.5566 137.502 55.794 137.82 56.9841C138.166 55.7371 138.504 54.4638 138.835 53.1594C139.161 51.8532 139.482 50.5702 139.789 49.3092C140.092 48.0502 140.389 46.8272 140.661 45.6494C140.937 44.4735 141.182 43.3697 141.399 42.3517H145.686C145.905 43.3697 146.136 44.4735 146.405 45.6494C146.667 46.8272 146.946 48.0502 147.241 49.3092C147.526 50.5702 147.838 51.8532 148.15 53.1594C148.471 54.4638 148.8 55.7371 149.141 56.9841C149.462 55.794 149.781 54.5566 150.102 53.2643C150.424 51.972 150.726 50.6921 151.002 49.4187C151.278 48.1407 151.545 46.8983 151.802 45.692C152.057 44.4882 152.288 43.3697 152.499 42.3517H158.661C158.075 44.5668 157.473 46.7556 156.847 48.9204C156.216 51.0949 155.613 53.1498 155.011 55.0909C154.418 57.0387 153.833 58.8293 153.264 60.4791C152.69 62.122 152.161 63.5381 151.69 64.7302H147.079C146.412 62.5751 145.765 60.4339 145.127 58.3047C144.491 56.1828 143.915 54.037 143.382 51.8815Z" fill="#03435F"/>
<mask id="mask4_2413_2510" style="mask-type:alpha" maskUnits="userSpaceOnUse" x="128" y="42" width="31" height="23">
<path d="M152.499 42.3517H158.661C158.075 44.5668 157.473 46.7556 156.846 48.92C156.216 51.0949 155.613 53.1501 155.011 55.0909C154.418 57.0387 153.833 58.8293 153.263 60.4791C152.69 62.122 152.161 63.5377 151.69 64.7302H147.079C146.412 62.5751 145.765 60.4335 145.127 58.3043C144.491 56.1828 143.915 54.037 143.382 51.8815C142.851 54.037 142.291 56.1828 141.694 58.3043C141.099 60.4335 140.465 62.5751 139.811 64.7302H135.199C134.721 63.5377 134.199 62.122 133.642 60.4791C133.08 58.8293 132.507 57.0387 131.905 55.0909C131.309 53.1501 130.7 51.0949 130.076 48.92C129.45 46.7556 128.843 44.5668 128.262 42.3517H134.504C134.711 43.3697 134.947 44.4879 135.202 45.692C135.454 46.8983 135.72 48.1407 135.999 49.4183C136.278 50.6917 136.575 51.972 136.88 53.2643C137.187 54.5566 137.502 55.794 137.82 56.9841C138.165 55.7371 138.504 54.4634 138.834 53.1594C139.16 51.8532 139.482 50.5702 139.789 49.3092C140.091 48.0498 140.389 46.8268 140.661 45.6494C140.937 44.4735 141.182 43.3697 141.398 42.3517H145.686C145.905 43.3697 146.136 44.4735 146.405 45.6494C146.667 46.8268 146.946 48.0498 147.24 49.3092C147.526 50.5702 147.838 51.8532 148.15 53.1594C148.471 54.4634 148.8 55.7371 149.14 56.9841C149.462 55.794 149.781 54.5566 150.102 53.2643C150.424 51.972 150.726 50.6917 151.002 49.4183C151.278 48.1407 151.545 46.8983 151.802 45.692C152.057 44.4879 152.288 43.3697 152.499 42.3517Z" fill="white"/>
</mask>
<g mask="url(#mask4_2413_2510)">
<path fill-rule="evenodd" clip-rule="evenodd" d="M-265.655 127.572L568.828 127.572L568.828 -1054.61H-265.655L-265.655 127.572Z" fill="#03435F"/>
<path fill-rule="evenodd" clip-rule="evenodd" d="M118.328 74.6648H168.595V32.4174H118.328V74.6648Z" fill="#03435F"/>
</g>
<path fill-rule="evenodd" clip-rule="evenodd" d="M162.848 64.7214H168.761V42.3476H162.848V64.7214Z" fill="#03435F"/>
<mask id="mask5_2413_2510" style="mask-type:alpha" maskUnits="userSpaceOnUse" x="162" y="42" width="7" height="23">
<path d="M162.848 64.7219V42.3481H168.762V64.7219H162.848Z" fill="white"/>
</mask>
<g mask="url(#mask5_2413_2510)">
<path fill-rule="evenodd" clip-rule="evenodd" d="M-265.654 127.572L568.828 127.572L568.828 -1054.61H-265.654L-265.654 127.572Z" fill="#03435F"/>
<path fill-rule="evenodd" clip-rule="evenodd" d="M152.913 74.656H178.695V32.4133H152.913V74.656Z" fill="#03435F"/>
</g>
<path fill-rule="evenodd" clip-rule="evenodd" d="M173.465 36.768L179.384 35.6452V42.359H185.24V47.6234H179.384V55.4964C179.384 56.8289 179.603 57.9022 180.038 58.6865C180.474 59.4804 181.357 59.8786 182.679 59.8786C183.319 59.8786 183.976 59.8213 184.647 59.6902C185.326 59.5613 185.94 59.3779 186.499 59.1562L187.331 64.0917C186.614 64.4059 185.816 64.6733 184.948 64.9019C184.068 65.126 183.005 65.2405 181.728 65.2405C180.11 65.2405 178.774 65.0072 177.715 64.5348C176.653 64.0747 175.805 63.4239 175.172 62.5797C174.539 61.7501 174.096 60.7271 173.842 59.5424C173.585 58.3479 173.465 57.027 173.465 55.5842V36.768Z" fill="#03435F"/>
<mask id="mask6_2413_2510" style="mask-type:alpha" maskUnits="userSpaceOnUse" x="173" y="35" width="15" height="31">
<path d="M173.466 36.768L179.384 35.6452V42.359H185.24V47.6234H179.384V55.4964C179.384 56.8289 179.603 57.9018 180.039 58.6865C180.474 59.4804 181.357 59.8782 182.679 59.8782C183.319 59.8782 183.976 59.8213 184.648 59.6902C185.326 59.5609 185.94 59.3779 186.5 59.1562L187.331 64.0913C186.614 64.4059 185.816 64.6733 184.948 64.9019C184.069 65.126 183.005 65.2405 181.729 65.2405C180.11 65.2405 178.774 65.0072 177.715 64.5348C176.653 64.0743 175.806 63.4239 175.173 62.58C174.54 61.7501 174.097 60.7275 173.842 59.5424C173.585 58.3479 173.466 57.0266 173.466 55.5846V36.768Z" fill="white"/>
</mask>
<g mask="url(#mask6_2413_2510)">
<path fill-rule="evenodd" clip-rule="evenodd" d="M-265.654 127.572L568.828 127.572L568.828 -1054.61H-265.654L-265.654 127.572Z" fill="#03435F"/>
<path fill-rule="evenodd" clip-rule="evenodd" d="M163.531 75.175H197.265V25.7107H163.531V75.175Z" fill="#03435F"/>
</g>
<path fill-rule="evenodd" clip-rule="evenodd" d="M189.422 53.5462C189.422 51.927 189.668 50.4013 190.158 48.9709C190.648 47.5355 191.355 46.2911 192.282 45.2252C193.21 44.1596 194.333 43.32 195.662 42.6932C196.983 42.0757 198.492 41.7561 200.187 41.7561C201.299 41.7561 202.321 41.8683 203.249 42.078C204.178 42.295 205.082 42.598 205.951 42.9911L204.723 48.0531C204.163 47.8287 203.556 47.6333 202.89 47.4569C202.228 47.2898 201.482 47.2019 200.664 47.2019C198.916 47.2019 197.609 47.7858 196.754 48.9493C195.885 50.1154 195.462 51.6437 195.462 53.5462C195.462 55.5558 195.864 57.1175 196.679 58.2241C197.478 59.3279 198.892 59.8835 200.904 59.8835C201.621 59.8835 202.385 59.8093 203.211 59.6688C204.03 59.5256 204.784 59.3016 205.48 58.987L206.309 64.1798C205.617 64.4921 204.761 64.7544 203.728 64.9854C202.69 65.2102 201.554 65.3267 200.311 65.3267C198.404 65.3267 196.757 65.0168 195.383 64.4085C194.008 63.8007 192.872 62.9708 191.986 61.9218C191.093 60.8706 190.451 59.6309 190.039 58.2001C189.627 56.7673 189.422 55.2131 189.422 53.5462Z" fill="#03435F"/>
<mask id="mask7_2413_2510" style="mask-type:alpha" maskUnits="userSpaceOnUse" x="189" y="41" width="18" height="25">
<path d="M195.662 42.6934C196.983 42.0759 198.492 41.7563 200.187 41.7563C201.299 41.7563 202.321 41.8681 203.249 42.0778C204.177 42.2953 205.082 42.5979 205.951 42.9913L204.723 48.053C204.163 47.829 203.556 47.6336 202.889 47.4572C202.227 47.2896 201.482 47.2018 200.663 47.2018C198.916 47.2018 197.609 47.786 196.754 48.9495C195.885 50.1153 195.462 51.6436 195.462 53.5465C195.462 55.5561 195.864 57.1177 196.679 58.2243C197.478 59.3281 198.892 59.8838 200.904 59.8838C201.621 59.8838 202.385 59.8095 203.211 59.669C204.03 59.5259 204.784 59.3019 205.479 58.9869L206.308 64.1801C205.618 64.4923 204.761 64.7543 203.727 64.9856C202.69 65.2101 201.554 65.3269 200.311 65.3269C198.404 65.3269 196.757 65.0166 195.383 64.4084C194.008 63.8005 192.872 62.971 191.986 61.9224C191.094 60.8708 190.451 59.6311 190.039 58.2003C189.627 56.7675 189.422 55.2129 189.422 53.5465C189.422 51.9272 189.668 50.4016 190.158 48.9711C190.648 47.5357 191.355 46.291 192.281 45.225C193.21 44.1594 194.333 43.3202 195.662 42.6934Z" fill="white"/>
</mask>
<g mask="url(#mask7_2413_2510)">
<path fill-rule="evenodd" clip-rule="evenodd" d="M-265.655 127.572L568.828 127.572L568.828 -1054.61H-265.655L-265.655 127.572Z" fill="#03435F"/>
<path fill-rule="evenodd" clip-rule="evenodd" d="M179.488 75.2615H216.242V31.8219H179.488V75.2615Z" fill="#03435F"/>
</g>
<path fill-rule="evenodd" clip-rule="evenodd" d="M210.135 64.7222V36.7597L216.055 35.6465V42.4415C216.45 42.3007 216.958 42.1649 217.586 42.0364C218.205 41.9099 218.812 41.843 219.393 41.843C221.086 41.843 222.493 42.0933 223.621 42.587C224.745 43.083 225.652 43.7865 226.323 44.6946C227.004 45.5984 227.475 46.6806 227.759 47.923C228.032 49.1743 228.17 50.5672 228.17 52.0978V64.7222H222.252V52.8581C222.252 50.8171 222.007 49.3724 221.519 48.5165C221.028 47.6746 220.119 47.2482 218.798 47.2482C218.26 47.2482 217.769 47.2985 217.303 47.3937C216.841 47.4939 216.424 47.6034 216.055 47.7156V64.7222H210.135Z" fill="#03435F"/>
<mask id="mask8_2413_2510" style="mask-type:alpha" maskUnits="userSpaceOnUse" x="210" y="35" width="19" height="30">
<path d="M210.134 36.7597L216.054 35.6465V42.4419C216.45 42.3007 216.957 42.1649 217.586 42.0364C218.205 41.9099 218.812 41.8434 219.393 41.8434C221.085 41.8434 222.492 42.0937 223.621 42.587C224.744 43.0834 225.652 43.7865 226.323 44.6949C227.003 45.5984 227.475 46.6806 227.758 47.9234C228.032 49.1747 228.17 50.5672 228.17 52.0982V64.7222H222.252V52.8581C222.252 50.8175 222.006 49.3724 221.519 48.5165C221.028 47.675 220.119 47.2482 218.797 47.2482C218.26 47.2482 217.769 47.2985 217.302 47.3941C216.84 47.4939 216.424 47.6034 216.054 47.7156V64.7222H210.134V36.7597Z" fill="white"/>
</mask>
<g mask="url(#mask8_2413_2510)">
<path fill-rule="evenodd" clip-rule="evenodd" d="M-265.655 127.572L568.828 127.572L568.828 -1054.61H-265.655L-265.655 127.572Z" fill="#03435F"/>
<path fill-rule="evenodd" clip-rule="evenodd" d="M200.2 74.6567H238.104V25.7118H200.2V74.6567Z" fill="#03435F"/>
</g>
<path fill-rule="evenodd" clip-rule="evenodd" d="M31.6338 64.7295V44.4539C31.6338 44.4539 34.6096 41.9099 41.1183 41.9099C47.0412 41.9099 50.2936 45.0787 50.2936 52.0525V64.7295H44.3777V52.0525C44.3777 47.6107 42.3015 47.3031 40.5278 47.3031C38.7542 47.3031 37.5664 48.2472 37.5664 48.2472V64.7295H31.6338Z" fill="#03435F"/>
<mask id="mask9_2413_2510" style="mask-type:alpha" maskUnits="userSpaceOnUse" x="31" y="41" width="20" height="24">
<path d="M31.6343 44.4539C31.6343 44.4539 34.61 41.9099 41.1188 41.9099C47.0417 41.9099 50.2937 45.0783 50.2937 52.0529V64.7295H44.3782V52.0529C44.3782 47.6103 42.302 47.3031 40.5283 47.3031C38.7547 47.3031 37.5669 48.2476 37.5669 48.2476V64.7295H31.6343V44.4539Z" fill="white"/>
</mask>
<g mask="url(#mask9_2413_2510)">
<path fill-rule="evenodd" clip-rule="evenodd" d="M-265.654 127.572L568.828 127.572L568.828 -1054.61H-265.654L-265.654 127.572Z" fill="#03435F"/>
<path fill-rule="evenodd" clip-rule="evenodd" d="M21.7002 74.6641H60.2279V31.9758H21.7002L21.7002 74.6641Z" fill="#03435F"/>
</g>
<path fill-rule="evenodd" clip-rule="evenodd" d="M20.4878 64.7297V36.7624L26.4108 35.6464V64.7297H20.4878Z" fill="#03435F"/>
<mask id="mask10_2413_2510" style="mask-type:alpha" maskUnits="userSpaceOnUse" x="20" y="35" width="7" height="30">
<path d="M20.4878 36.7628L26.4108 35.6464V64.7297H20.4878V36.7628Z" fill="white"/>
</mask>
<g mask="url(#mask10_2413_2510)">
<path fill-rule="evenodd" clip-rule="evenodd" d="M-265.654 127.572L568.828 127.572L568.828 -1054.61H-265.654L-265.654 127.572Z" fill="#03435F"/>
<path fill-rule="evenodd" clip-rule="evenodd" d="M10.5532 74.6643H36.3451V25.7124H10.5532L10.5532 74.6643Z" fill="#03435F"/>
</g>
<path fill-rule="evenodd" clip-rule="evenodd" d="M90.4277 55.1483H77.1054C77.1054 55.1483 77.4029 59.9 83.3189 59.9C86.2807 59.9 89.2422 58.9532 89.2422 58.9532L89.8349 64.0292C89.8349 64.0292 86.8758 65.2859 82.7335 65.2859C76.8079 65.2859 71.48 62.1217 71.48 53.2504C71.48 46.2739 75.6223 41.8441 81.5433 41.8441C90.4277 41.8441 91.0228 51.3379 90.4277 55.1483ZM81.2527 46.2739C77.4029 46.2739 77.1054 50.7084 77.1054 50.7084H85.3901C85.3901 50.7084 85.0999 46.2739 81.2527 46.2739Z" fill="#03435F"/>
<mask id="mask11_2413_2510" style="mask-type:alpha" maskUnits="userSpaceOnUse" x="71" y="41" width="20" height="25">
<path d="M71.48 53.2503C71.48 46.2738 75.6223 41.844 81.5429 41.844C90.4273 41.844 91.0224 51.3381 90.4273 55.1481H77.1054C77.1054 55.1481 77.4029 59.8998 83.3185 59.8998C86.2804 59.8998 89.2418 58.9531 89.2418 58.9531L89.8346 64.029C89.8346 64.029 86.8754 65.2861 82.7331 65.2861C76.8079 65.2861 71.48 62.1219 71.48 53.2503ZM81.2524 46.2738C77.4029 46.2738 77.1054 50.7086 77.1054 50.7086H85.3901C85.3901 50.7086 85.0995 46.2738 81.2524 46.2738Z" fill="white"/>
</mask>
<g mask="url(#mask11_2413_2510)">
<path fill-rule="evenodd" clip-rule="evenodd" d="M-265.654 127.572L568.828 127.572L568.828 -1054.61H-265.654L-265.654 127.572Z" fill="#03435F"/>
<path fill-rule="evenodd" clip-rule="evenodd" d="M61.5454 75.2202H100.527V31.9095H61.5454V75.2202Z" fill="#03435F"/>
</g>
<mask id="mask12_2413_2510" style="mask-type:alpha" maskUnits="userSpaceOnUse" x="236" y="31" width="39" height="51">
<path d="M236.016 35.6518C236.016 34.2999 253.044 31.3826 264.464 31.3826C269.417 31.3826 273.314 31.9313 274.311 33.3938C279.453 40.1842 243.253 82.7857 240.237 81.4934C237.818 80.8472 259.537 53.7313 255.916 42.7522C254.109 36.9464 236.016 37.5922 236.016 35.6518Z" fill="white"/>
</mask>
<g mask="url(#mask12_2413_2510)">
<path fill-rule="evenodd" clip-rule="evenodd" d="M226.082 91.4568H284.745V21.4484H226.082V91.4568Z" fill="#ED342B"/>
</g>
<mask id="mask13_2413_2510" style="mask-type:alpha" maskUnits="userSpaceOnUse" x="266" y="10" width="17" height="18">
<path d="M266.772 18.8678C266.772 14.2306 270.284 10.4779 274.612 10.4779C278.944 10.4779 282.452 14.2306 282.452 18.8678C282.452 23.5073 278.944 27.26 274.612 27.26C270.284 27.26 266.772 23.5073 266.772 18.8678Z" fill="white"/>
</mask>
<g mask="url(#mask13_2413_2510)">
<path fill-rule="evenodd" clip-rule="evenodd" d="M256.838 37.1946H292.386V0.543095H256.838V37.1946Z" fill="#ED342B"/>
</g>
</g>
<defs>
<clipPath id="clip0_2413_2510">
<rect width="262.839" height="72" fill="white" transform="translate(20 10)"/>
</clipPath>
</defs>
</svg>
