<svg width="309" height="86" viewBox="0 0 309 86" fill="none" xmlns="http://www.w3.org/2000/svg">
<path d="M109.079 48.0139L107.237 53.2325H107.084C106.777 52.0558 106.214 50.2651 105.293 48.1162L95.4188 23.3023H85.749V62.8511H92.1444V38.4465C92.1444 36.9116 92.1444 35.1721 92.0932 33.0232C92.042 31.9488 91.9397 31.1302 91.8886 30.5162H92.042C92.349 32.0511 92.7072 33.1767 92.963 33.893L104.833 62.7488H109.335L121.103 33.6372C121.358 32.9721 121.614 31.6418 121.87 30.5162H122.023C121.87 33.4325 121.768 36.0418 121.716 37.6279V62.6976H128.521V23.2H119.209L109.079 48.0139ZM134.968 34.3535H141.619V62.6976H134.968V34.3535ZM138.344 22.3814C137.219 22.3814 136.298 22.7907 135.53 23.5069C134.763 24.2232 134.354 25.1442 134.354 26.2697C134.354 27.3442 134.763 28.2651 135.53 28.9814C136.298 29.6976 137.219 30.0558 138.344 30.0558C139.47 30.0558 140.442 29.6465 141.158 28.9814C141.926 28.2651 142.335 27.3442 142.335 26.2697C142.335 25.1953 141.926 24.2744 141.158 23.5069C140.493 22.7907 139.521 22.3814 138.344 22.3814M165.205 34.0976C163.977 33.8418 162.698 33.6883 161.47 33.6883C158.451 33.6883 155.689 34.3535 153.386 35.6837C151.084 37.0139 149.242 38.8558 148.065 41.1581C146.837 43.5116 146.223 46.2232 146.223 49.3442C146.223 52.0558 146.837 54.4604 148.014 56.6604C149.191 58.8093 150.828 60.5488 153.028 61.7255C155.126 62.9023 157.582 63.5162 160.344 63.5162C163.516 63.5162 166.228 62.8511 168.377 61.6232L168.428 61.5721V55.4325L168.172 55.6372C167.2 56.3535 166.075 56.9674 164.949 57.3255C163.772 57.7349 162.698 57.9395 161.777 57.9395C159.116 57.9395 157.019 57.1721 155.535 55.4837C154 53.8465 153.233 51.5953 153.233 48.7814C153.233 45.8651 154 43.5628 155.586 41.8744C157.172 40.186 159.27 39.3162 161.828 39.3162C163.977 39.3162 166.177 40.0325 168.172 41.4651L168.428 41.6697V35.1721L168.377 35.1209C167.507 34.7628 166.535 34.3535 165.205 34.0976M187.154 33.893C185.516 33.893 183.982 34.4046 182.651 35.479C181.526 36.4 180.758 37.7302 180.093 39.3162H180.042V34.3535H173.391V62.6976H180.042V48.2186C180.042 45.7628 180.554 43.7162 181.679 42.2325C182.805 40.6976 184.237 39.9302 185.977 39.9302C186.591 39.9302 187.205 40.0837 187.972 40.186C188.689 40.3907 189.2 40.5953 189.558 40.8511L189.814 41.0558V34.4046L189.661 34.3535C189.2 34.0465 188.279 33.893 187.154 33.893M205.265 33.7395C200.609 33.7395 196.875 35.1209 194.265 37.8325C191.605 40.5442 190.326 44.279 190.326 48.986C190.326 53.386 191.656 56.9674 194.214 59.5767C196.772 62.1349 200.251 63.4651 204.6 63.4651C209.154 63.4651 212.786 62.0837 215.396 59.3209C218.056 56.5581 219.335 52.8744 219.335 48.3209C219.335 43.8186 218.107 40.2372 215.6 37.6279C213.196 35.0186 209.665 33.7395 205.265 33.7395M210.586 55.5349C209.358 57.1209 207.414 57.8883 205.009 57.8883C202.605 57.8883 200.661 57.1209 199.279 55.4325C197.898 53.8465 197.233 51.5442 197.233 48.6279C197.233 45.6093 197.949 43.3069 199.279 41.6697C200.661 40.0325 202.554 39.2139 204.958 39.2139C207.312 39.2139 209.154 39.9814 210.484 41.5674C211.814 43.1535 212.53 45.4558 212.53 48.4744C212.428 51.5442 211.865 53.9488 210.586 55.5349M234.172 46.1209C232.075 45.2511 230.744 44.586 230.13 44.0232C229.619 43.5116 229.363 42.7953 229.363 41.8744C229.363 41.1069 229.67 40.3395 230.437 39.8279C231.205 39.3162 232.075 39.0604 233.354 39.0604C234.479 39.0604 235.656 39.2651 236.782 39.5721C237.907 39.879 238.93 40.3395 239.749 40.9535L240.005 41.1581V34.9162L239.851 34.8651C239.084 34.5581 238.061 34.2511 236.833 33.9953C235.605 33.7907 234.479 33.6883 233.558 33.6883C230.386 33.6883 227.777 34.4558 225.73 36.1442C223.684 37.7302 222.712 39.879 222.712 42.386C222.712 43.7162 222.916 44.893 223.377 45.8651C223.837 46.8372 224.503 47.7581 225.423 48.5256C226.344 49.2418 227.675 50.0604 229.516 50.8279C231.051 51.493 232.228 52.0046 232.944 52.4139C233.661 52.8232 234.121 53.2837 234.479 53.6418C234.735 54.0511 234.889 54.5628 234.889 55.2279C234.889 57.1209 233.456 58.0418 230.54 58.0418C229.414 58.0418 228.237 57.8372 226.856 57.3767C225.475 56.9162 224.196 56.2511 223.121 55.4837L222.865 55.279V61.7767L223.019 61.8279C223.991 62.2883 225.168 62.5953 226.6 62.9535C228.033 63.2093 229.312 63.4139 230.437 63.4139C233.865 63.4139 236.679 62.6465 238.675 60.9581C240.721 59.3209 241.796 57.2232 241.796 54.5116C241.796 52.6186 241.284 50.9302 240.158 49.6511C238.675 48.4232 236.833 47.1442 234.172 46.1209M259.344 33.7395C254.689 33.7395 250.954 35.1209 248.344 37.8325C245.735 40.5442 244.405 44.279 244.405 48.986C244.405 53.386 245.735 56.9674 248.293 59.5767C250.851 62.1349 254.33 63.4651 258.679 63.4651C263.233 63.4651 266.865 62.0837 269.475 59.3209C272.135 56.5581 273.414 52.8744 273.414 48.3209C273.414 43.8186 272.186 40.2372 269.679 37.6279C267.275 35.0186 263.744 33.7395 259.344 33.7395M264.614 55.5349C263.386 57.1209 261.442 57.8883 259.037 57.8883C256.582 57.8883 254.689 57.1209 253.307 55.4325C251.926 53.8465 251.261 51.5442 251.261 48.6279C251.261 45.6093 251.977 43.3069 253.307 41.6697C254.689 40.0325 256.582 39.2139 258.986 39.2139C261.289 39.2139 263.182 39.9814 264.512 41.5674C265.842 43.1535 266.558 45.4558 266.558 48.4744C266.558 51.5442 265.893 53.9488 264.614 55.5349M308.972 39.8279V34.3535H302.27V25.9628L302.065 26.0139L295.721 27.9069L295.568 27.9581V34.3535H285.54V30.7721C285.54 29.1349 285.949 27.8558 286.665 27.0372C287.382 26.2186 288.456 25.8093 289.786 25.8093C290.707 25.8093 291.679 26.0139 292.754 26.4744L293.009 26.6279V20.8465L292.856 20.7953C291.935 20.4883 290.707 20.2837 289.121 20.2837C287.126 20.2837 285.386 20.7442 283.8 21.5116C282.214 22.3814 281.037 23.5581 280.168 25.1442C279.298 26.679 278.837 28.4186 278.837 30.4139V34.3535H274.182V39.7767H278.837V62.6976H285.54V39.8279H295.568V54.4093C295.568 60.3953 298.382 63.4139 304.009 63.4139C304.93 63.4139 305.903 63.2604 306.823 63.1069C307.796 62.9023 308.512 62.6465 308.921 62.4418L308.972 62.3907V56.9162L308.716 57.1209C308.307 57.3767 307.949 57.5814 307.335 57.7349C306.823 57.8883 306.363 57.9395 306.005 57.9395C304.675 57.9395 303.754 57.6325 303.089 56.8651C302.475 56.1488 302.168 54.9721 302.168 53.2325V39.8279H308.972Z" fill="#737373"/>
<path d="M0 10H31.3628V41.3628H0V10Z" fill="#F25022"/>
<path d="M34.6372 10H66V41.3628H34.6372V10Z" fill="#7FBA00"/>
<path d="M0 44.6372H31.3628V76H0V44.6372Z" fill="#00A4EF"/>
<path d="M34.6372 44.6372H66V76H34.6372V44.6372Z" fill="#FFB900"/>
</svg>
