<svg width="114" height="92" viewBox="0 0 114 92" fill="none" xmlns="http://www.w3.org/2000/svg">
<path d="M113.345 82H0V10H113.345V82V82Z" fill="white"/>
<path d="M1.8877 70.3008H111.455V80.124H1.8877V70.3008V70.3008Z" fill="#F7B600"/>
<path d="M1.8877 21.7117H111.455V11.8885H1.8877V21.7117V21.7117Z" fill="#1A1F71"/>
<path d="M55.7261 32.5343L49.9508 59.535H42.9654L48.7412 32.5343H55.7261ZM85.1138 49.9695L88.7912 39.8293L90.9064 49.9695H85.1138V49.9695ZM92.9109 59.535H99.37L93.7269 32.5343H87.7685C86.4256 32.5343 85.2943 33.3131 84.7932 34.5137L74.3114 59.535H81.6473L83.104 55.5029H92.0645L92.9109 59.535ZM74.6751 50.7198C74.706 43.5943 64.8251 43.1992 64.8907 40.0156C64.9122 39.048 65.8347 38.0174 67.8524 37.754C68.853 37.6249 71.6127 37.521 74.7417 38.9624L75.9654 33.2343C74.2847 32.6267 72.1222 32.0411 69.4318 32.0411C62.5262 32.0411 57.6681 35.709 57.6293 40.9659C57.5852 44.8532 61.0994 47.0204 63.7415 48.3149C66.466 49.6383 67.379 50.4874 67.3659 51.6696C67.347 53.481 65.193 54.2828 63.1884 54.3133C59.6737 54.3678 57.6377 53.3635 56.0142 52.6068L54.7464 58.5259C56.381 59.2742 59.393 59.9254 62.512 59.959C69.8532 59.959 74.6536 56.3335 74.6751 50.7198M45.7449 32.5343L34.4268 59.535H27.0436L21.4735 37.9864C21.1361 36.6614 20.8417 36.1745 19.8148 35.6146C18.1351 34.7021 15.3618 33.8488 12.9238 33.3178L13.0886 32.5343H24.9751C26.489 32.5343 27.8512 33.5418 28.1975 35.2856L31.1398 50.9114L38.4064 32.5343H45.7449Z" fill="#1A1F71"/>
</svg>
